<svg width="359" height="320" viewBox="0 0 359 320" fill="none" xmlns="http://www.w3.org/2000/svg">
<defs>
<radialGradient id="paint0_radial_9836_36118" cx="0" cy="0" r="1" gradientUnits="userSpaceOnUse" gradientTransform="translate(338.594) rotate(90) scale(279.5 697.355)">
<stop stop-color="#AD90E9"/>
<stop offset="1" stop-color="#AD90E9" stop-opacity="0"/>
</radialGradient>
</defs>
<path fill-rule="evenodd" clip-rule="evenodd" d="M249.105 157.998L249.111 158.002C250.413 158.884 251.723 159.773 253.044 160.671C252.753 161.045 252.489 161.392 252.239 161.722C251.717 162.409 251.255 163.017 250.735 163.625C248.341 166.835 245.918 170.032 243.495 173.228C238.65 179.622 233.805 186.015 229.187 192.522C216.874 209.861 205.331 227.842 197.635 248.006C194.428 256.482 191.991 265.216 191.991 274.335C191.991 287.435 198.917 294.114 212 293.857C218.541 293.728 224.57 291.545 230.213 288.719C250.991 278.188 267.281 262.776 279.337 242.868C284.852 234.007 288.444 224.374 289.598 213.842C291.265 197.403 285.494 183.917 273.565 172.872C270.38 170.027 266.964 167.356 263.472 164.626L263.471 164.625L263.467 164.622C261.757 163.286 260.03 161.935 258.302 160.542C261.958 156.047 265.645 151.552 269.333 147.057C273.02 142.562 276.708 138.066 280.363 133.571C280.491 133.635 280.62 133.732 280.748 133.828C280.876 133.924 281.004 134.021 281.133 134.085C281.069 134.342 281.036 134.599 281.004 134.856C280.972 135.112 280.94 135.369 280.876 135.626C280.656 136.91 280.415 138.195 280.175 139.479C279.573 142.69 278.971 145.901 278.696 149.112C278.567 150.396 279.722 152.708 280.748 152.965C281.902 153.35 284.083 152.323 284.98 151.295C287.289 148.47 289.341 145.516 291.009 142.433C292.616 139.384 294.056 136.279 295.402 133.376L295.403 133.373L295.404 133.371C296.098 131.874 296.767 130.43 297.422 129.076C297.858 129.446 298.294 129.868 298.735 130.295C299.979 131.499 301.26 132.739 302.68 132.929C305.759 133.443 307.554 130.617 308.965 128.177C309.286 127.663 309.574 127.182 309.863 126.7C310.152 126.218 310.44 125.737 310.761 125.223C315.122 127.278 317.174 126.764 319.098 123.297C319.386 122.778 319.622 122.259 319.853 121.752C320.136 121.129 320.412 120.524 320.765 119.957C321.15 119.315 321.791 118.544 322.304 118.544C325.896 118.416 327.82 116.104 329.23 113.407C331.1 109.849 332.766 106.155 334.426 102.474L334.43 102.465L334.435 102.454C335.049 101.092 335.662 99.7314 336.285 98.3804C336.969 96.9249 337.539 95.4694 338.109 94.0139C338.394 93.286 338.679 92.5581 338.978 91.8302C337.64 103.143 336.13 114.412 334.623 125.664L334.621 125.674L334.62 125.682C333.527 133.841 332.435 141.99 331.411 150.139C330.447 157.006 329.93 163.962 329.412 170.933L329.412 170.936L329.411 170.94C329.31 172.312 329.208 173.683 329.102 175.055C329.102 175.789 329.429 176.523 329.757 177.257L329.757 177.257C329.888 177.551 330.018 177.844 330.128 178.138C330.358 177.77 330.637 177.418 330.913 177.071C331.406 176.449 331.888 175.843 332.052 175.184C332.694 172.101 333.207 168.891 333.591 165.68C336.157 145.387 341.8 126.122 352.061 108.27C352.366 107.658 352.717 107.092 353.14 106.409C353.428 105.945 353.75 105.426 354.113 104.802C353.857 110.453 355.524 112.251 359.243 110.967C360.654 110.453 362.193 109.683 363.091 108.527L363.092 108.526L363.092 108.526L363.092 108.526C365.401 105.829 367.709 103.132 369.504 100.05C371.428 96.8392 372.454 93.243 369.889 89.39C372.583 87.4635 375.148 85.6654 377.713 83.8673C377.905 83.9958 378.098 84.0921 378.29 84.1884C378.483 84.2847 378.675 84.3811 378.867 84.5095C378.098 87.8488 377.328 91.1881 376.687 94.6558C376.599 95.1817 376.751 95.7673 376.897 96.3312L376.897 96.3316C376.964 96.5939 377.031 96.8514 377.072 97.096C377.405 97.0005 377.775 96.9583 378.14 96.9165C378.757 96.8459 379.362 96.7766 379.765 96.4539C380.706 95.5122 381.532 94.4564 382.358 93.4006L382.359 93.4C382.772 92.872 383.186 92.344 383.613 91.8302C384.767 90.3539 385.889 88.8776 387.01 87.4013L387.011 87.4003L387.012 87.3993L387.013 87.3982L387.014 87.3972C388.135 85.9209 389.257 84.4446 390.411 82.9683C390.539 83.0325 390.699 83.0967 390.86 83.1609C391.02 83.2252 391.18 83.2894 391.309 83.3536C391.309 84.0386 391.294 84.7236 391.28 85.4085V85.41C391.252 86.7794 391.223 88.1489 391.309 89.5184C391.408 90.3156 391.739 91.0354 392.062 91.7378C392.156 91.9409 392.249 92.1424 392.335 92.344C392.596 92.0822 392.902 91.85 393.202 91.6223C393.785 91.1798 394.346 90.7542 394.515 90.1606C395.577 87.2987 396.534 84.3848 397.487 81.4851L397.487 81.4843L397.488 81.4839C398.031 79.8294 398.573 78.1795 399.133 76.5466C399.389 75.8402 399.614 75.1659 399.838 74.4917C400.063 73.8174 400.287 73.1431 400.544 72.4367C400.799 71.7958 401.024 71.1868 401.248 70.5779L401.249 70.5744L401.25 70.5709C401.474 69.962 401.698 69.3531 401.954 68.7121C402.083 68.7763 402.243 68.8085 402.403 68.8406C402.564 68.8727 402.724 68.9048 402.852 68.969C401.698 75.9687 400.544 82.9362 399.389 89.9037C398.235 96.8713 397.08 103.839 395.926 110.838C396.118 110.903 396.311 110.935 396.503 110.967C396.696 110.999 396.888 111.031 397.08 111.095C397.234 110.582 397.429 110.068 397.624 109.554C397.917 108.783 398.209 108.013 398.363 107.242C398.582 106.101 398.772 104.944 398.962 103.783L398.962 103.783L398.962 103.782L398.962 103.781L398.962 103.781C399.328 101.546 399.696 99.2931 400.287 97.096C400.8 95.298 401.826 93.243 403.237 92.344C413.848 85.8386 424.642 79.5163 435.387 73.2225L435.41 73.2089C437.386 72.0518 439.36 70.8957 441.33 69.7396C441.972 69.3543 442.485 68.8406 442.998 68.3268C442.87 68.1342 442.741 67.9736 442.613 67.8131C442.485 67.6526 442.357 67.492 442.228 67.2994C433.811 71.3996 425.888 76.4424 417.901 81.5256C412.378 85.0406 406.824 88.575 401.057 91.8302C401.057 91.3757 401.04 90.9533 401.025 90.5575V90.5569V90.5563C400.998 89.834 400.974 89.1999 401.057 88.6194C401.284 86.8605 401.495 85.0934 401.707 83.3243C402.329 78.1176 402.953 72.8938 404.007 67.8131C406.655 54.5506 409.426 41.3489 412.192 28.1662L412.193 28.1625L412.203 28.1167C413.452 22.1668 414.699 16.2207 415.935 10.2747C416.326 8.31782 416.574 6.31323 416.824 4.29V4.28978L416.824 4.28798C416.984 2.99218 417.145 1.68874 417.346 0.385306C417.089 0.321167 416.801 0.257027 416.513 0.192888L416.512 0.192653C416.223 0.128435 415.935 0.0642169 415.678 0C413.088 7.47048 411.502 15.1924 409.906 22.9627L409.906 22.9631L409.906 22.9636L409.905 22.9685L409.898 23.0031C409.521 24.8377 409.144 26.675 408.752 28.5123C408.158 31.3751 407.586 34.2486 407.013 37.1235C405.607 44.1801 404.199 51.2451 402.467 58.1806C400.867 64.5069 398.934 70.6671 396.997 76.843C395.985 80.0705 394.971 83.3024 394.002 86.5644C393.332 85.2218 392.716 84.1533 392.155 83.1798L392.154 83.1773C391.857 82.6618 391.575 82.1729 391.309 81.684C390.725 82.0739 390.141 82.4453 389.563 82.8122C388.62 83.4123 387.695 84.0004 386.82 84.6379C386.336 84.9609 386.004 85.487 385.665 86.0247C385.465 86.3422 385.262 86.6637 385.024 86.9498C384.127 88.1683 383.231 89.3548 382.334 90.5413L382.33 90.5459L382.327 90.5505C381.43 91.737 380.534 92.9235 379.637 94.142C379.637 92.4711 379.883 90.8824 380.12 89.3526V89.3522L380.12 89.3516C380.303 88.1773 380.479 87.0377 380.535 85.9223C380.791 82.9683 379.509 81.9408 376.687 82.8399C375.148 83.3536 373.737 84.2525 372.326 85.1515L372.326 85.1517C370.274 86.436 368.478 87.7204 366.554 89.1331C365.632 89.8261 364.674 90.473 363.724 91.1152C361.504 92.6153 359.321 94.09 357.704 96.0686C348.598 106.857 342.698 119.572 338.337 133.058C337.504 135.455 336.756 137.938 336.023 140.368L336.022 140.373L336.019 140.382C335.85 140.941 335.683 141.497 335.515 142.048C335.259 140.25 335.387 138.709 335.644 137.039C336.331 132.252 336.994 127.457 337.657 122.658L337.658 122.648L337.659 122.637C339.593 108.643 341.531 94.6142 344.109 80.6565C345.393 73.8695 347.233 67.2018 349.076 60.5207L349.077 60.5199C350.547 55.1903 352.02 49.8521 353.215 44.4381C354.618 37.9186 355.472 31.3208 356.329 24.7058C356.57 22.8503 356.81 20.9935 357.063 19.1367C357.148 18.3747 356.619 17.557 356.102 16.757C355.835 16.3433 355.571 15.9345 355.396 15.5405C355.157 15.8589 354.87 16.1773 354.578 16.4995L354.578 16.4997C353.93 17.2172 353.264 17.9537 353.087 18.7514C352.253 22.6686 351.484 26.5858 350.714 30.5031C349.945 34.4203 349.175 38.3375 348.341 42.2548C347.453 46.4974 346.701 50.7674 345.95 55.0332C343.882 66.78 341.819 78.4948 336.926 89.5184C335.698 92.3096 334.504 95.1009 333.313 97.8856L333.313 97.8867L333.312 97.8878C331.271 102.662 329.237 107.418 327.05 112.123C326.433 113.446 325.332 114.588 324.246 115.714L324.246 115.714L324.246 115.715C323.751 116.228 323.259 116.738 322.817 117.26C322.395 115.908 322.307 114.722 322.222 113.594C322.178 113.008 322.136 112.437 322.048 111.866C322.048 111.333 321.618 110.922 321.183 110.507C320.99 110.323 320.795 110.137 320.637 109.939C320.538 110.038 320.43 110.142 320.318 110.25C319.847 110.7 319.305 111.219 319.098 111.737C318.951 112.251 318.972 112.765 318.993 113.279C319.009 113.664 319.025 114.049 318.97 114.435C318.585 118.544 317.302 122.141 313.583 125.351C313.468 124.372 313.404 123.522 313.346 122.743L313.346 122.741C313.274 121.784 313.211 120.935 313.07 120.086C312.886 118.894 312.507 117.767 312.119 116.613L312.118 116.611C311.962 116.149 311.805 115.682 311.659 115.205C311.393 115.661 311.105 116.107 310.817 116.55C310.134 117.605 309.455 118.653 309.094 119.829C307.811 124.196 306.272 128.305 301.911 131.773C301.805 130.341 301.765 129.04 301.727 127.817C301.673 126.078 301.624 124.495 301.398 122.911C301.311 122.04 300.811 121.229 300.298 120.396L300.298 120.395L300.298 120.395C300.055 120 299.809 119.6 299.602 119.187C299.312 119.441 298.991 119.685 298.669 119.93C297.85 120.552 297.02 121.183 296.652 122.012C293.916 127.583 291.309 133.22 288.694 138.875L288.693 138.876L288.693 138.878L288.687 138.89L288.647 138.976C287.6 141.24 286.552 143.506 285.494 145.772C285.006 146.748 284.313 147.672 283.513 148.741L283.512 148.741C283.048 149.36 282.548 150.028 282.03 150.781C281.651 146.089 282.584 141.772 283.503 137.522C284.445 133.164 285.372 128.876 284.852 124.324C282.8 125.608 281.004 127.021 279.594 128.691C277.221 131.516 274.912 134.374 272.603 137.232C270.295 140.089 267.986 142.947 265.613 145.772C263.109 148.817 260.606 151.799 257.971 154.936L257.959 154.951L257.958 154.952C256.818 156.309 255.654 157.696 254.454 159.13C252.049 157.397 249.657 155.734 247.293 154.09L247.293 154.089L247.292 154.089L247.292 154.089C242.472 150.737 237.766 147.465 233.291 143.846C219.567 132.672 212.385 118.159 214.18 100.178C216.104 80.7849 223.03 62.9326 233.933 46.8784C243.809 32.3653 255.737 20.2926 271.641 12.715C275.874 10.5316 280.748 9.11881 285.494 8.3482C293.83 6.93543 298.704 11.9444 298.191 20.2926C298.191 21.1591 298.046 21.9774 297.905 22.777V22.7773L297.905 22.7782L297.905 22.779L297.905 22.7796C297.816 23.2827 297.728 23.7784 297.678 24.274C297.577 24.779 297.715 25.284 297.902 25.9763C297.953 26.1644 298.008 26.3663 298.063 26.5858C303.194 17.8523 298.191 8.21977 288.828 7.44917C280.876 6.807 273.694 9.63254 267.024 13.4856C239.191 29.5398 221.748 53.3001 213.411 84.1242C210.204 95.8117 209.178 107.628 212.385 119.444C215.591 131.388 223.544 139.993 233.291 147.057C238.456 150.78 243.704 154.337 249.101 157.996L249.105 157.998ZM256.25 163.112L256.25 163.111C280.491 177.624 290.111 198.816 281.646 224.246C275.874 241.969 264.972 256.097 251.761 268.684C242.783 277.289 232.907 284.609 221.235 289.233C218.926 290.132 216.617 290.903 214.18 291.416C204.817 293.471 198.404 288.719 197.122 279.087C195.839 269.069 198.148 259.565 201.611 250.318C208.922 230.796 219.696 213.2 231.496 196.119C236.274 189.332 241.23 182.723 246.202 176.091C248.57 172.933 250.942 169.769 253.3 166.579C254.197 165.423 255.223 164.268 256.249 163.113L256.249 163.112L256.25 163.112ZM356.55 109.811C362.707 108.655 369.889 97.3529 368.478 91.3165C362.322 95.0411 355.909 104.93 356.55 109.811ZM135.797 249.519L135.797 249.519C135.44 249.697 135.086 249.874 134.787 250.061L134.787 250.061C133.761 249.419 132.735 248.777 131.452 248.391V272.023L132.606 272.408C132.785 272.122 132.973 271.847 133.161 271.572C133.646 270.861 134.124 270.16 134.402 269.326C135.236 266.565 136.037 263.771 136.839 260.978C137.641 258.184 138.442 255.391 139.276 252.63C139.661 251.474 140.43 250.189 141.456 249.547C146.416 246.208 151.376 242.983 156.335 239.757C158.815 238.145 161.294 236.532 163.774 234.906C164.207 234.645 164.582 234.209 164.937 233.795L164.937 233.795C165.108 233.596 165.275 233.403 165.441 233.236C165.377 233.108 165.281 232.979 165.185 232.851C165.089 232.722 164.992 232.594 164.928 232.465C161.016 235.098 157.104 237.763 153.192 240.428C149.28 243.093 145.368 245.758 141.456 248.391C141.328 248.263 141.168 248.134 141.008 248.006C140.847 247.878 140.687 247.749 140.559 247.621C144.022 234.777 147.485 221.934 151.076 209.09C151.461 207.421 152.102 205.623 153 204.21C165.056 184.945 172.88 164.139 177.754 142.176C179.806 132.929 181.602 123.425 180.704 113.793C180.625 112.919 180.35 112.095 179.999 111.046C179.783 110.399 179.538 109.666 179.293 108.784C178.808 109.344 178.366 109.829 177.968 110.266C176.998 111.33 176.285 112.111 175.83 113.022C175.627 113.467 175.421 113.912 175.214 114.357C173.989 116.999 172.751 119.669 171.983 122.526C165.441 145.516 158.9 168.634 152.743 191.88C152.538 192.648 152.336 193.416 152.134 194.184L152.134 194.186L152.133 194.187C150.074 202.028 148.032 209.804 141.841 215.769C140.919 216.693 139.942 217.561 138.946 218.447C138.418 218.916 137.885 219.39 137.352 219.879C136.8 218.773 136.818 217.952 136.834 217.254C136.835 217.221 136.836 217.188 136.836 217.155C136.837 217.128 136.837 217.102 136.838 217.075C136.839 217.025 136.839 216.974 136.839 216.925C136.839 216.321 136.868 215.717 136.897 215.117C136.954 213.933 137.009 212.768 136.839 211.659C136.754 211.145 136.212 210.746 135.671 210.346C135.4 210.147 135.129 209.947 134.915 209.733C134.801 209.924 134.663 210.115 134.524 210.31C134.194 210.769 133.851 211.246 133.761 211.788C133.504 213.2 133.504 214.742 133.761 216.154C134.266 219.441 132.659 221.732 129.429 224.252C129.38 224.245 129.33 224.237 129.28 224.228C129.405 222.002 129.531 220.62 129.656 219.237C129.746 218.607 129.852 217.992 129.957 217.382C130.151 216.252 130.343 215.139 130.426 213.971C130.522 213.586 130.186 213.2 129.849 212.815C129.737 212.687 129.624 212.558 129.528 212.43C129.293 212.618 129.023 212.772 128.77 212.917C128.332 213.167 127.942 213.389 127.861 213.714C127.665 214.499 127.569 215.318 127.471 216.153C127.376 216.957 127.28 217.776 127.091 218.595C125.937 223.86 123.885 228.356 119.396 231.695C119.396 230.824 119.418 229.987 119.44 229.177V229.176V229.175C119.491 227.237 119.539 225.453 119.267 223.732C119.179 223.109 118.475 222.549 117.795 222.007C117.493 221.766 117.195 221.529 116.959 221.292C116.745 221.549 116.474 221.791 116.203 222.034C115.662 222.519 115.12 223.004 115.035 223.604L114.984 223.855L114.984 223.855C114.608 225.728 114.17 227.908 114.906 229.383C116.574 232.209 115.548 234.264 113.88 236.318C112.926 237.433 111.825 238.449 110.697 239.488L110.696 239.489C110.048 240.086 109.392 240.692 108.75 241.328C108.635 241.297 108.521 241.261 108.407 241.22C105.937 238.419 106.063 235.459 106.186 232.596C106.246 231.192 106.305 229.811 106.057 228.484C105.864 228.42 105.704 228.356 105.543 228.291L105.543 228.291C105.383 228.227 105.223 228.163 105.03 228.099C103.62 231.374 102.177 234.681 100.734 237.988C99.2907 241.295 97.8478 244.602 96.4369 247.878C96.3087 247.813 96.1483 247.749 95.988 247.685C95.8277 247.621 95.6674 247.556 95.5391 247.492L96.6935 240.942C96.9073 239.778 97.1268 238.613 97.3463 237.448C99.233 227.436 101.124 217.403 99.5152 207.164C98.7456 201.77 98.1043 196.761 99.7717 191.495C100.738 188.473 101.362 185.337 101.967 182.301L102.08 181.734C106.441 160.286 109.776 138.709 107.083 116.747C106.056 108.912 104.261 101.206 99.6435 94.5275C95.0261 87.8489 88.3565 85.0234 80.5326 87.0783C76.3 88.1058 72.0674 89.9038 68.3478 92.2157C58.2152 98.3805 50.3913 107.114 43.4652 116.618C25.5087 141.149 14.0935 168.762 6.91087 198.302C1.65218 220.007 -1.6826 241.841 0.882618 264.189C1.78045 272.28 3.5761 279.986 8.57827 286.665C9.59734 287.94 10.8976 289.047 12.2183 290.171L12.2186 290.171C12.8925 290.745 13.5718 291.323 14.2217 291.93C14.3874 291.847 14.4996 291.711 14.6273 291.555C14.6974 291.47 14.7722 291.379 14.863 291.288C9.98914 287.692 7.03913 282.812 5.24348 277.16C1.9087 266.886 1.39565 256.226 1.90869 245.437C3.06304 223.09 7.93696 201.384 14.9913 180.193C22.9435 156.689 32.9478 134.342 48.2109 114.692C56.4196 104.16 65.6543 94.7843 78.3522 89.5185C88.2282 85.5371 95.2826 87.9773 99.1304 97.8668C101.567 104.16 103.106 111.095 103.748 117.902C105.672 137.553 103.106 156.818 99.6435 176.083C98.7519 180.725 97.6124 185.368 96.4835 189.967L96.4832 189.968L96.4829 189.97C95.988 191.986 95.4951 193.994 95.0261 195.99C88.2282 194.963 86.5608 195.22 80.7891 198.559C77.8391 200.357 74.8891 202.284 72.3239 204.467C55.3935 218.98 42.3109 236.575 31.7935 256.226C24.7391 269.326 19.2239 283.068 17.4283 297.967C16.787 303.233 17.0435 308.37 19.0957 313.379C21.1478 318.388 24.6109 320.956 29.7413 319.672C34.2304 318.516 38.8478 316.461 42.5674 313.764C49.8783 308.498 55.137 301.178 59.8826 293.6C74.5044 270.353 84.5087 245.052 92.4608 218.851C93.1663 216.475 93.9038 214.067 94.6413 211.659C95.3788 209.251 96.1163 206.843 96.8217 204.467C97.0335 204.467 97.2065 204.506 97.362 204.541C97.4889 204.569 97.6043 204.595 97.7196 204.595C97.7196 206.166 97.7676 207.762 97.8158 209.366V209.366V209.367C97.9254 213.009 98.0364 216.698 97.5913 220.264C96.7961 226.555 95.7544 232.796 94.7107 239.049C94.071 242.882 93.4305 246.719 92.8456 250.575C92.7517 251.421 93.0018 252.337 93.2431 253.22C93.3313 253.543 93.4183 253.861 93.4869 254.171C93.8305 253.941 94.1967 253.735 94.5587 253.531C95.4129 253.049 96.243 252.581 96.6935 251.859C97.6339 250.232 98.4603 248.492 99.2868 246.751L99.2872 246.75C99.7005 245.88 100.114 245.009 100.541 244.153C101.231 242.695 101.875 241.236 102.556 239.696C103.014 238.658 103.488 237.584 104.004 236.447C105.343 239.075 106.839 240.65 108.407 241.22C108.476 241.299 108.548 241.377 108.622 241.456C108.664 241.413 108.707 241.37 108.75 241.328C110.836 241.888 113.039 240.696 115.163 237.86C115.267 237.703 115.372 237.544 115.477 237.383C115.59 237.209 115.703 237.034 115.817 236.857C116.377 235.99 116.955 235.093 117.6 234.264C117.985 233.621 118.498 232.851 119.139 232.722C123.062 231.962 124.862 229.077 126.757 226.039L126.835 225.915C127.22 225.145 128.246 223.989 128.759 224.117C128.937 224.162 129.11 224.199 129.28 224.228L129.272 224.374C129.325 224.333 129.377 224.293 129.429 224.252C132.104 224.653 133.748 223.174 135.172 221.035C135.428 220.521 136.198 220.136 136.711 220.136C140.046 220.264 142.098 218.081 144.15 215.769C144.769 215.149 145.327 214.469 145.866 213.811C146.109 213.515 146.348 213.223 146.587 212.944C144.15 224.888 141.072 236.447 137.737 248.006C137.555 248.643 136.665 249.086 135.797 249.519ZM134.787 250.061C136.198 250.703 137.096 251.345 136.454 253.143C136.25 253.757 136.051 254.375 135.851 254.997L135.851 254.997C135.045 257.499 134.224 260.05 132.991 262.519V262.517C132.991 258.922 132.991 255.198 133.12 251.602C133.201 251.275 133.646 250.948 134.092 250.621C134.346 250.435 134.6 250.248 134.787 250.061ZM20.0978 304.576C20.0677 303.847 20.0385 303.138 19.9935 302.462C20.3783 289.105 24.6109 277.032 30.2543 265.473C41.2848 242.355 55.5217 221.549 75.0174 204.595C78.1665 201.806 82.002 199.703 85.7676 197.639L86.4326 197.275C87.9717 196.504 90.1522 196.504 91.9478 196.504C93.7435 196.504 94.3848 197.403 93.8717 199.586C85.15 232.594 73.8631 264.574 55.3935 293.6C51.6935 299.26 47.2522 304.344 42.7957 309.444C41.6908 310.709 40.5849 311.974 39.4891 313.25C37.8217 315.177 35.3848 316.718 33.0761 317.874C27.5609 320.7 23.5848 319.03 21.5326 313.25C21.0196 311.838 20.6348 310.296 20.3783 308.755C20.2118 307.339 20.1534 305.922 20.0978 304.576ZM177.883 113.536C182.372 123.425 165.57 181.477 154.154 196.247C154.71 193.97 155.262 191.694 155.815 189.417L155.816 189.413C162.028 163.827 168.225 138.302 177.883 113.536ZM448 43.6676C443.896 45.9794 439.823 48.2592 435.751 50.5389C431.679 52.8186 427.606 55.0983 423.502 57.4101C423.438 57.2816 423.342 57.1211 423.246 56.9606C423.149 56.8 423.053 56.6395 422.989 56.511C425.378 55.1061 427.733 53.645 430.088 52.1841L430.089 52.1837C435.699 48.7038 441.306 45.2255 447.359 42.5117C447.615 42.897 447.872 43.2823 448 43.6676ZM283.441 107.756C281.517 111.609 282.415 113.407 285.622 114.692C285.666 113.987 285.725 113.282 285.783 112.583C285.896 111.242 286.007 109.921 286.007 108.655C286.1 108 285.989 107.414 285.873 106.796C285.829 106.565 285.785 106.331 285.75 106.087C285.523 106.238 285.261 106.379 284.996 106.522C284.365 106.862 283.712 107.213 283.441 107.756Z" fill="url(#paint0_radial_9836_36118)"/>
</svg>
