<svg width="64" height="64" viewBox="0 0 64 64" fill="none" xmlns="http://www.w3.org/2000/svg">
<defs>
<linearGradient id="paint0_linear_9683_35498" x1="55.8587" y1="11.9247" x2="8.24274" y2="51.9887" gradientUnits="userSpaceOnUse">
<stop stop-color="#B6509E"/>
<stop offset="1" stop-color="#2EBAC6"/>
</linearGradient>
<clipPath id="clip0_9683_35498">
<path d="M0 32C0 14.3269 14.3269 0 32 0V0C49.6731 0 64 14.3269 64 32V32C64 49.6731 49.6731 64 32 64V64C14.3269 64 0 49.6731 0 32V32Z" fill="white"/>
</clipPath>
</defs>
<g clip-path="url(#clip0_9683_35498)">
<path d="M32 64C49.6731 64 64 49.6731 64 32C64 14.3269 49.6731 0 32 0C14.3269 0 0 14.3269 0 32C0 49.6731 14.3269 64 32 64Z" fill="url(#paint0_linear_9683_35498)"/>
<path d="M46.0041 44.7505L35.1835 18.5897C34.5732 17.2371 33.666 16.5773 32.4701 16.5773H31.5134C30.3175 16.5773 29.4103 17.2371 28.8 18.5897L24.0907 29.9876H20.5279C19.4639 29.9959 18.598 30.8536 18.5897 31.9258V31.9505C18.598 33.0144 19.4639 33.8804 20.5279 33.8887H22.4413L17.9464 44.7505C17.8639 44.9897 17.8145 45.2371 17.8145 45.4928C17.8145 46.1031 18.0041 46.5815 18.3423 46.9526C18.6804 47.3237 19.167 47.5052 19.7773 47.5052C20.1815 47.4969 20.5691 47.3732 20.8907 47.134C21.2371 46.8949 21.4763 46.5485 21.666 46.1526L26.6145 33.8804H30.0454C31.1093 33.8722 31.9753 33.0144 31.9835 31.9423V31.8928C31.9753 30.8289 31.1093 29.9629 30.0454 29.9547H28.2145L31.9918 20.5443L42.2846 46.1443C42.4742 46.5402 42.7134 46.8866 43.0598 47.1258C43.3815 47.365 43.7773 47.4887 44.1732 47.4969C44.7835 47.4969 45.2619 47.3155 45.6083 46.9443C45.9547 46.5732 46.1361 46.0949 46.1361 45.4845C46.1444 45.2371 46.1031 44.9815 46.0041 44.7505Z" fill="white"/>
</g>
</svg>
