<svg width="64" height="64" viewBox="0 0 64 64" fill="none" xmlns="http://www.w3.org/2000/svg">
<path d="M32 64C49.6731 64 64 49.6731 64 32C64 14.3269 49.6731 0 32 0C14.3269 0 0 14.3269 0 32C0 49.6731 14.3269 64 32 64Z" fill="#2E3148"/>
<path d="M32.69 12C30.1 12 28 21.394 28 32.98C28 44.566 30.1 53.96 32.69 53.96C35.278 53.96 37.378 44.566 37.378 32.98C37.378 21.394 35.278 12 32.69 12ZM33.014 52.774C32.718 53.17 32.42 52.874 32.42 52.874C31.228 51.49 30.632 48.924 30.632 48.924C28.546 42.21 29.042 27.796 29.042 27.796C30.022 16.354 31.806 13.65 32.412 13.05C32.4741 12.9885 32.5559 12.9509 32.643 12.9439C32.7302 12.937 32.817 12.9611 32.888 13.012C33.768 13.638 34.508 16.246 34.508 16.246C36.688 24.342 36.49 31.942 36.49 31.942C36.688 38.558 35.398 45.962 35.398 45.962C34.404 51.59 33.014 52.774 33.014 52.774Z" fill="white"/>
<path d="M50.5446 22.7681C49.2546 20.5201 40.0646 23.3741 30.0106 29.1401C19.9566 34.9061 12.8646 41.4001 14.1506 43.6481C15.4406 45.8961 24.6326 43.0421 34.6866 37.2761C44.7406 31.5101 51.8346 25.0141 50.5466 22.7681H50.5446ZM15.3386 43.3381C14.8466 43.2781 14.9586 42.8701 14.9586 42.8701C15.5626 41.1501 17.4906 39.3541 17.4906 39.3541C22.2766 34.2041 35.0286 27.4621 35.0286 27.4621C45.4406 22.6181 48.6746 22.8221 49.4946 23.0461C49.5793 23.0694 49.6529 23.122 49.7024 23.1945C49.7518 23.267 49.7739 23.3548 49.7646 23.4421C49.6646 24.5161 47.7646 26.4561 47.7646 26.4561C41.8326 32.3781 35.1406 35.9921 35.1406 35.9921C29.5006 39.4561 22.4346 42.0181 22.4346 42.0181C17.0586 43.9541 15.3386 43.3381 15.3386 43.3381V43.3381Z" fill="white"/>
<path d="M50.456 43.7888C51.756 41.5488 44.682 35.0228 34.66 29.2128C24.64 23.4048 15.452 20.5168 14.154 22.7608C12.854 25.0068 19.93 31.5268 29.954 37.3368C39.98 43.1448 49.158 46.0328 50.456 43.7888ZM15.016 23.6268C14.822 23.1708 15.228 23.0608 15.228 23.0608C17.022 22.7208 19.542 23.4948 19.542 23.4948C26.396 25.0548 38.618 32.7108 38.618 32.7108C48.028 39.2948 49.472 42.1968 49.688 43.0188C49.7098 43.1033 49.7012 43.1928 49.6635 43.2714C49.6258 43.3501 49.5615 43.4129 49.482 43.4488C48.502 43.8988 45.872 43.2288 45.872 43.2288C37.772 41.0568 31.294 37.0788 31.294 37.0788C25.474 33.9388 19.718 29.1088 19.718 29.1088C15.344 25.4248 15.018 23.6288 15.018 23.6288L15.014 23.6268H15.016Z" fill="white"/>
<path d="M32.468 34.936C33.831 34.936 34.936 33.831 34.936 32.468C34.936 31.105 33.831 30 32.468 30C31.105 30 30 31.105 30 32.468C30 33.831 31.105 34.936 32.468 34.936Z" fill="white"/>
<path d="M42 26C43.1046 26 44 25.1046 44 24C44 22.8954 43.1046 22 42 22C40.8954 22 40 22.8954 40 24C40 25.1046 40.8954 26 42 26Z" fill="white"/>
<path d="M18 30C19.1046 30 20 29.1046 20 28C20 26.8954 19.1046 26 18 26C16.8954 26 16 26.8954 16 28C16 29.1046 16.8954 30 18 30Z" fill="white"/>
<path d="M30 48C31.1046 48 32 47.1046 32 46C32 44.8954 31.1046 44 30 44C28.8954 44 28 44.8954 28 46C28 47.1046 28.8954 48 30 48Z" fill="white"/>
</svg>
