<svg width="64" height="64" viewBox="0 0 64 64" fill="none" xmlns="http://www.w3.org/2000/svg">
<path d="M0 32C0 14.3269 14.3269 0 32 0V0C49.6731 0 64 14.3269 64 32V32C64 49.6731 49.6731 64 32 64V64C14.3269 64 0 49.6731 0 32V32Z" fill="#0055D5"/>
<path fill-rule="evenodd" clip-rule="evenodd" d="M17.4081 21.1712C17.4081 21.1712 13.9649 18.4192 13.7281 25.216C13.4913 30.4832 13.4977 40.7104 15.9361 45.5423C16.9665 47.3599 18.3425 46.8031 20.9025 44.9919C23.1297 43.3472 31.1873 35.9232 34.5985 32.6656C38.0097 29.408 44.9281 20.064 46.3681 26.4128C46.9377 29.0816 47.6417 31.3472 47.1041 37.2672C46.9377 39.0912 46.1569 40.4736 42.5985 38.0032C39.9105 36.2752 37.3569 34.4192 37.3569 34.4192C37.3569 34.4192 36.8641 33.536 35.6993 34.9696C34.7841 36.1152 34.3233 36.3968 35.7889 37.2672C37.2609 38.1376 44.7041 43.2703 47.5585 44.0703C49.9137 44.7551 51.2577 44.7423 51.3281 40.1152C51.3153 36.4416 51.1041 25.9264 49.7665 21.4464C48.7553 18.656 47.2705 17.3888 44.0641 20.5248C40.8577 23.6608 30.7457 33.4656 25.2161 37.9072C21.5489 40.6592 19.9809 43.1424 18.5985 38.5536C17.6257 35.0784 16.3649 24.2624 20.3457 26.3232C22.8353 27.5136 24.0769 27.5072 23.1041 28.256C22.1313 28.9984 19.3345 31.5648 19.3345 31.5648C19.3345 31.5648 18.4705 32.2624 18.8737 33.7728C19.2769 34.8288 19.2769 35.3536 21.4465 33.312C23.6161 31.2704 25.2161 29.728 25.2161 29.728C25.2161 29.728 25.5617 29.184 26.5921 30.1888C27.6225 31.1936 27.7889 31.4752 27.7889 31.4752C27.7889 31.4752 28.0641 32.224 29.1649 30.9248C30.2721 29.6256 30.9825 28.832 28.8897 27.616C26.8033 26.3872 17.4081 21.1712 17.4081 21.1712Z" fill="white"/>
</svg>
