<svg width="64" height="64" viewBox="0 0 64 64" fill="none" xmlns="http://www.w3.org/2000/svg">
<path d="M0 32C0 14.3269 14.3269 0 32 0V0C49.6731 0 64 14.3269 64 32V32C64 49.6731 49.6731 64 32 64V64C14.3269 64 0 49.6731 0 32V32Z" fill="#13B5EC"/>
<path fill-rule="evenodd" clip-rule="evenodd" d="M34.4 25.8L41.6 21.6V30L34.4 25.8ZM41.6 43.8L32 49.4L22.4 43.8V34L32 39.6L41.6 34V43.8ZM22.4 21.6L29.6 25.8L22.4 30V21.6ZM33.2 27.8L40.4 32L33.2 36.2V27.8ZM30.8 36.2L23.6 32L30.8 27.8V36.2ZM40.4 19.6L32 24.4L23.6 19.6L32 14.6L40.4 19.6ZM20 18.8V45L32 51.8L44 45V18.8L32 12L20 18.8Z" fill="white"/>
</svg>
