<svg width="64" height="64" viewBox="0 0 64 64" fill="none" xmlns="http://www.w3.org/2000/svg">
<path d="M32 64C49.6731 64 64 49.6731 64 32C64 14.3269 49.6731 0 32 0C14.3269 0 0 14.3269 0 32C0 49.6731 14.3269 64 32 64Z" fill="#EF0027"/>
<path d="M42.864 19.312L14 14L29.19 52.224L50.356 26.436L42.864 19.312ZM42.4 21.652L46.816 25.85L34.74 28.036L42.4 21.652V21.652ZM32.116 27.598L19.388 17.042L40.192 20.87L32.116 27.598V27.598ZM31.21 29.466L29.134 46.626L17.944 18.46L31.21 29.464V29.466ZM33.13 30.376L46.504 27.956L31.164 46.642L33.13 30.376Z" fill="white"/>
</svg>
