<svg width="64" height="64" viewBox="0 0 64 64" fill="none" xmlns="http://www.w3.org/2000/svg">
<path d="M32 64C49.6731 64 64 49.6731 64 32C64 14.3269 49.6731 0 32 0C14.3269 0 0 14.3269 0 32C0 49.6731 14.3269 64 32 64Z" fill="black"/>
<path d="M46.262 18.4158L41.462 20.8638L18.266 32.6778C17.9355 30.139 18.3169 27.5583 19.3675 25.2235C20.4182 22.8888 22.0968 20.8919 24.2162 19.4555C26.3356 18.0192 28.8123 17.1999 31.3701 17.0891C33.928 16.9782 36.4663 17.5802 38.702 18.8278L41.45 17.4278L41.86 17.2178C39.253 15.326 36.1591 14.2196 32.9437 14.0295C29.7282 13.8393 26.5255 14.5731 23.7137 16.1445C20.9019 17.7158 18.5984 20.0589 17.0753 22.8971C15.5522 25.7353 14.873 28.9501 15.118 32.1618C15.1638 32.7659 15.0299 33.3701 14.7331 33.8982C14.4363 34.4263 13.9899 34.8549 13.45 35.1298L12 35.8698V39.3178L16.268 37.1418L17.65 36.4358L19.012 35.7418L43.464 23.2818L46.212 21.8838L51.892 18.9898V15.5438L46.262 18.4158ZM51.894 22.4398L20.404 38.4718L17.656 39.8718L12.002 42.7578V46.2038L17.618 43.3438L22.42 40.8958L45.64 29.0638C45.9755 31.6065 45.5968 34.1924 44.5461 36.5321C43.4955 38.8718 41.8144 40.8729 39.6911 42.3114C37.5677 43.7499 35.0859 44.5691 32.5235 44.6773C29.961 44.7854 27.419 44.1783 25.182 42.9238L25.012 43.0138L22.032 44.5338C24.6394 46.4267 27.7341 47.5337 30.9505 47.724C34.1669 47.9143 37.3705 47.18 40.183 45.6079C42.9954 44.0357 45.2991 41.6914 46.8218 38.8519C48.3445 36.0124 49.0226 32.7964 48.776 29.5838C48.7306 28.9803 48.8646 28.3768 49.161 27.8491C49.4574 27.3215 49.903 26.8931 50.442 26.6178L51.894 25.8778V22.4418V22.4398Z" fill="white"/>
</svg>
