<svg width="64" height="64" viewBox="0 0 64 64" fill="none" xmlns="http://www.w3.org/2000/svg">
<defs>
<clipPath id="clip0_9683_35450">
<rect width="64" height="64" rx="32" fill="white"/>
</clipPath>
</defs>
<g clip-path="url(#clip0_9683_35450)">
<rect width="64" height="64" rx="32" fill="white"/>
<path d="M31.4602 10.1312C32.4187 9.58746 33.5894 10.8443 33.0811 11.8811C32.7829 12.7264 31.6603 12.9509 31.0881 12.306C30.4817 11.6896 30.6798 10.4657 31.4602 10.129V10.1312ZM21.1449 11.333C21.7272 11.0733 22.4656 11.65 22.4055 12.339C22.4656 13.083 21.6251 13.6333 21.0308 13.2789C20.2444 12.9487 20.3345 11.5663 21.1449 11.333V11.333ZM42.2719 13.2987C41.3614 13.1798 41.2173 11.6302 42.0918 11.3176C42.7721 10.961 43.3964 11.6324 43.4965 12.3302C43.3524 12.9245 42.8922 13.4704 42.2719 13.2987V13.2987ZM23.4921 16.0832C24.4666 15.4163 25.8553 16.409 25.7053 17.6351C25.6552 18.87 24.1384 19.5876 23.282 18.7511C22.4536 18.0951 22.5796 16.5895 23.4921 16.0832ZM38.3598 16.792C38.7941 15.5814 40.555 15.5417 41.0492 16.7216C41.5395 17.6395 40.9372 18.7775 40.0667 19.0901C38.9121 19.3234 37.8175 17.9719 38.3598 16.792ZM30.2176 19.0219C30.2076 17.9785 31.0841 17.2037 31.9985 17.131C32.6068 17.2631 33.2672 17.5426 33.5273 18.2052C34.0136 19.1209 33.5813 20.3778 32.7069 20.7982C32.3067 21.0404 31.8304 20.9501 31.3942 20.9215C30.7279 20.5693 30.1656 19.8715 30.2176 19.0219ZM14.8776 20.5407C15.7681 19.9464 16.9687 21.025 16.6306 22.0727C16.4465 22.9774 15.3219 23.345 14.6795 22.7683C13.9932 22.2268 14.1012 20.9259 14.8796 20.5385L14.8776 20.5407ZM47.8187 20.5363C48.5731 19.9023 49.8198 20.6309 49.7277 21.6611C49.7798 22.601 48.7012 23.312 47.9528 22.8278C47.1284 22.4249 47.0423 21.0514 47.8187 20.5385V20.5363ZM34.5318 22.4095C35.7765 21.9253 37.2573 22.5042 37.9656 23.7082C38.9021 25.1764 38.4059 27.4129 36.9511 28.2559C35.4463 29.2531 33.2472 28.41 32.6889 26.5874C32.0586 24.9585 32.979 22.9202 34.5298 22.4095H34.5318ZM27.222 22.5702C28.6028 21.8658 30.4617 22.4557 31.1281 23.9834C31.9125 25.4714 31.3062 27.5428 29.9034 28.311C28.4987 29.1761 26.5157 28.5201 25.8373 26.9242C25.0749 25.379 25.7513 23.2812 27.222 22.5702V22.5702ZM19.9042 25.2755C20.0103 24.3136 20.8487 23.6862 21.6952 23.6202C22.1366 23.6715 22.5492 23.886 22.8654 24.2287C23.1816 24.5713 23.3828 25.0219 23.4361 25.5066C23.3761 26.4972 22.6697 27.4613 21.7012 27.4569C20.6346 27.556 19.7001 26.4069 19.9042 25.2755V25.2755ZM41.5195 23.8315C42.614 23.1425 44.1328 24.1441 44.0848 25.5044C44.1588 26.9462 42.478 27.961 41.3894 27.1157C40.2568 26.4113 40.3449 24.4302 41.5195 23.8315ZM24.2505 28.9097C25.5272 28.5289 26.9919 29.1805 27.6183 30.4528C28.3046 31.7339 28.0245 33.5124 26.9579 34.4546C25.5872 35.8325 23.0639 35.2778 22.3355 33.398C21.4971 31.6744 22.5156 29.3632 24.2485 28.9075L24.2505 28.9097ZM38.1117 28.9031C39.3543 28.5179 40.8151 29.0352 41.4834 30.2613C42.3679 31.6634 41.9457 33.7568 40.631 34.6593C39.2503 35.7093 37.1172 35.159 36.3568 33.5168C35.4363 31.8197 36.3628 29.4204 38.1117 28.9031V28.9031ZM16.0202 30.5012C17.1248 30.0499 18.3494 31.3685 17.9012 32.5549C17.6291 33.6335 16.2223 34.0341 15.496 33.2373C14.6455 32.4889 14.9597 30.827 16.0202 30.5012V30.5012ZM45.9738 32.2225C45.953 31.738 46.1071 31.264 46.4023 30.9037C46.6976 30.5434 47.1103 30.326 47.5506 30.2987C48.307 30.4307 49.0434 31.0911 48.9833 31.9826C49.0534 33.1603 47.7427 33.9593 46.8142 33.4068C46.38 33.1669 46.1579 32.6848 45.9738 32.2225ZM10.5874 31.0867C11.2518 30.7719 12.0742 31.3949 11.9221 32.1939C11.8861 33.0986 10.6514 33.4486 10.1992 32.6914C9.79901 32.1653 10.0391 31.3575 10.5874 31.0845V31.0867ZM52.5072 31.0669C52.9754 30.7081 53.7278 30.9656 53.9119 31.5578C54.2261 32.2049 53.6498 33.0898 52.9774 32.982C52.0329 33.0744 51.7288 31.5181 52.5072 31.0669ZM27.8604 35.4099C29.6093 34.919 31.4903 36.4973 31.5023 38.4476C31.6143 40.4177 29.7614 42.1632 27.9724 41.7098C26.5877 41.4676 25.5012 40.0236 25.5472 38.5114C25.5432 37.063 26.5517 35.7159 27.8604 35.4099V35.4099ZM34.788 35.4077C36.5629 34.8706 38.4999 36.4775 38.4719 38.4718C38.5659 40.4044 36.771 42.0928 35.0181 41.7076C33.3672 41.4786 32.1506 39.5174 32.6108 37.7828C32.843 36.6294 33.7354 35.6916 34.788 35.4055V35.4077ZM21.429 36.6074C22.6577 36.3806 23.8103 37.862 23.312 39.1255C22.9478 40.4727 21.1389 40.8359 20.3385 39.7375C19.402 38.6809 20.1024 36.7526 21.429 36.6074V36.6074ZM41.7476 36.6668C42.8442 36.1693 44.1889 37.1951 44.1048 38.4828C44.1488 39.8982 42.488 40.8755 41.4174 40.0478C40.2028 39.306 40.4249 37.1202 41.7476 36.6668V36.6668ZM47.4265 42.8302C46.9983 41.9651 47.7767 40.8183 48.6672 40.979C49.1074 40.9702 49.4176 41.3466 49.6997 41.6635C49.7577 42.1764 49.8558 42.7884 49.4616 43.1824C48.9273 43.9154 47.7167 43.7063 47.4265 42.8302V42.8302ZM14.8736 41.2189C15.7041 40.6224 16.8987 41.5139 16.7106 42.5616C16.6105 43.4927 15.53 44.0232 14.8196 43.4949C14.0552 43.0173 14.0832 41.6547 14.8736 41.2189V41.2189ZM31.2681 43.1626C32.3547 42.6453 33.7394 43.6688 33.6354 44.9632C33.7154 46.3939 32.0045 47.3845 30.942 46.526C29.7614 45.7886 29.9595 43.6182 31.2681 43.1626V43.1626ZM23.6762 45.0798C24.6007 44.5537 25.8413 45.4628 25.7573 46.5855C25.7853 47.5056 24.9569 48.2892 24.1164 48.1527C23.4221 48.1373 22.9698 47.4615 22.7457 46.821C22.7577 46.1232 23.0239 45.3462 23.6762 45.082V45.0798ZM39.0562 45.0974C40.0087 44.4591 41.3614 45.3748 41.2713 46.5722C41.2954 47.8269 39.7666 48.6282 38.8801 47.8049C38.0237 47.16 38.1277 45.6103 39.0562 45.0974ZM41.7316 52.2514C41.3074 51.5602 41.8056 50.7259 42.492 50.5675C43.0463 50.6885 43.6326 51.1398 43.5145 51.8309C43.4345 52.7709 42.1658 53.057 41.7316 52.2536V52.2514ZM20.4986 51.6505C20.6666 51.1001 21.0749 50.5564 21.6732 50.6995C22.5436 50.7656 22.8018 52.1875 22.0394 52.6256C21.355 53.1253 20.5586 52.4407 20.4986 51.6505ZM30.7439 52.2822C30.91 51.4677 31.8805 51.0737 32.5208 51.5052C32.945 51.7033 33.0691 52.214 33.1771 52.6498C33.12 52.8762 33.0667 53.1037 33.0171 53.3322C32.7549 53.6668 32.4167 54.0035 31.9805 53.9925C31.1701 54.096 30.4377 53.1032 30.7419 52.2822H30.7439Z" fill="#1933A7"/>
<circle cx="32" cy="31.9995" r="31.5" stroke="#1933A7" stroke-opacity="0.2"/>
</g>
</svg>
