<svg width="64" height="64" viewBox="0 0 64 64" fill="none" xmlns="http://www.w3.org/2000/svg">
<path d="M0 32C0 14.3269 14.3269 0 32 0V0C49.6731 0 64 14.3269 64 32V32C64 49.6731 49.6731 64 32 64V64C14.3269 64 0 49.6731 0 32V32Z" fill="#E84142"/>
<path fill-rule="evenodd" clip-rule="evenodd" d="M22.9384 44.7175H16.7322C15.4281 44.7175 14.7839 44.7175 14.3912 44.4664C13.9669 44.1915 13.7077 43.7362 13.6763 43.2336C13.6527 42.7707 13.9748 42.2052 14.619 41.0747L29.9428 14.0824C30.5948 12.9362 30.9247 12.363 31.3411 12.1511C31.7889 11.9234 32.3231 11.9234 32.7709 12.1511C33.1873 12.363 33.5172 12.9362 34.1692 14.0824L37.3195 19.5779L37.3356 19.6059C38.0398 20.8356 38.397 21.4591 38.5529 22.1136C38.7257 22.828 38.7257 23.5817 38.5529 24.2961C38.3958 24.9556 38.0422 25.5836 37.3273 26.8319L29.2781 41.0512L29.2573 41.0876C28.5484 42.3274 28.1891 42.9558 27.6912 43.4298C27.1492 43.9481 26.4971 44.3247 25.7822 44.537C25.1302 44.7175 24.3996 44.7175 22.9384 44.7175ZM38.611 44.7175H47.5037C48.8157 44.7175 49.4757 44.7175 49.8687 44.4587C50.2928 44.1839 50.5598 43.7205 50.5837 43.2183C50.6062 42.7702 50.2911 42.2268 49.6737 41.162C49.6524 41.1258 49.6311 41.0889 49.6094 41.0513L45.1549 33.4362L45.1043 33.3505C44.4783 32.2927 44.1624 31.7585 43.7566 31.552C43.309 31.3243 42.7823 31.3243 42.3347 31.552C41.9262 31.764 41.5963 32.3214 40.9442 33.444L36.5056 41.0592L36.4904 41.0854C35.8407 42.2063 35.5159 42.7664 35.5393 43.226C35.5708 43.7285 35.83 44.1915 36.2542 44.4664C36.6392 44.7175 37.2991 44.7175 38.611 44.7175Z" fill="white"/>
</svg>
