<svg width="64" height="64" viewBox="0 0 64 64" fill="none" xmlns="http://www.w3.org/2000/svg">
<path d="M32 64C49.6731 64 64 49.6731 64 32C64 14.3269 49.6731 0 32 0C14.3269 0 0 14.3269 0 32C0 49.6731 14.3269 64 32 64Z" fill="#F3BA2F"/>
<path d="M24.232 28.808L32 21.04L39.772 28.812L44.292 24.292L32 12L19.712 24.288L24.232 28.808ZM12 32L16.52 27.48L21.04 32L16.52 36.52L12 32ZM24.232 35.192L32 42.96L39.772 35.188L44.292 39.706L32 52L19.712 39.712L19.706 39.706L24.232 35.192ZM42.96 32L47.48 27.48L52 32L47.48 36.52L42.96 32ZM36.584 31.996H36.588V32L32 36.588L27.418 32.008L27.41 32L27.418 31.994L28.22 31.19L28.61 30.8L32 27.412L36.586 31.998L36.584 31.996Z" fill="white"/>
</svg>
