<svg width="64" height="64" viewBox="0 0 64 64" fill="none" xmlns="http://www.w3.org/2000/svg">
<path d="M0 32C0 14.3269 14.3269 0 32 0V0C49.6731 0 64 14.3269 64 32V32C64 49.6731 49.6731 64 32 64V64C14.3269 64 0 49.6731 0 32V32Z" fill="#172852"/>
<path d="M25.7762 14.3008C29.5234 12.8992 33.741 12.896 37.5586 14.048C42.5282 15.5904 46.7234 19.3408 48.9154 24.048C49.5202 25.3888 50.0994 26.7872 50.157 28.2784C47.3634 26.6592 44.301 25.6096 41.2322 24.6528C36.3234 22.8832 31.1842 21.6544 26.5378 19.2224C25.4562 18.576 24.077 17.9136 23.7826 16.5664C23.6642 15.4016 24.8962 14.752 25.7762 14.3008Z" fill="#FFD83D"/>
<path d="M14.4642 25.6293C15.5489 22.6851 17.328 19.9521 19.7439 17.9264C20.3582 22.9795 22.5085 27.863 26.0603 31.5368C30.3193 35.9627 36.3862 38.6796 42.5586 38.5772C45.0097 38.654 47.4064 38.0876 49.7967 37.63C47.4448 46.1297 38.1301 51.7716 29.5001 50.4147C24.2908 49.7491 19.4815 46.6641 16.5792 42.3086C13.3058 37.4956 12.4803 31.1048 14.4642 25.6293Z" fill="#FFD83D"/>
<path d="M41.2319 24.6528C44.3004 25.6096 47.3625 26.6592 50.1558 28.2784L50.3446 28.3776C50.6038 30.3264 50.7925 32.3136 50.447 34.2656C49.0423 33.6704 47.9032 32.624 46.713 31.6992C44.422 29.792 42.083 27.6096 41.2319 24.6528Z" fill="#FF6F03"/>
</svg>
