<svg width="64" height="64" viewBox="0 0 64 64" fill="none" xmlns="http://www.w3.org/2000/svg">
<defs>
<clipPath id="clip0_9683_35456">
<rect width="64" height="64" rx="32" fill="white"/>
</clipPath>
</defs>
<g clip-path="url(#clip0_9683_35456)">
<rect width="64" height="64" rx="32" fill="white"/>
<path d="M42.8479 15.84L35.3363 27C34.8169 27.76 35.8158 28.68 36.535 28.04L43.9267 21.6C44.1265 21.44 44.4062 21.56 44.4062 21.84V41.96C44.4062 42.24 44.0466 42.36 43.8868 42.16L21.5117 15.36C20.7925 14.48 19.7536 14 18.5949 14H17.7958C15.7181 14 14 15.72 14 17.84V46.16C14 48.28 15.7181 50 17.8357 50C19.1543 50 20.3929 49.32 21.1121 48.16L28.6238 37C29.1432 36.24 28.1443 35.32 27.4251 35.96L20.0333 42.36C19.8335 42.52 19.5538 42.4 19.5538 42.12V22.04C19.5538 21.76 19.9134 21.64 20.0733 21.84L42.4484 48.64C43.1676 49.52 44.2464 50 45.3651 50H46.1643C48.2819 50 50 48.28 50 46.16V17.84C50 15.72 48.2819 14 46.1643 14C44.8058 14 43.5671 14.68 42.8479 15.84Z" fill="black"/>
<path fill-rule="evenodd" clip-rule="evenodd" d="M32 63.1995C49.2313 63.1995 63.2 49.2308 63.2 31.9995C63.2 14.7682 49.2313 0.799512 32 0.799512C14.7687 0.799512 0.8 14.7682 0.8 31.9995C0.8 49.2308 14.7687 63.1995 32 63.1995ZM32 63.9995C49.6731 63.9995 64 49.6726 64 31.9995C64 14.3264 49.6731 -0.000488281 32 -0.000488281C14.3269 -0.000488281 0 14.3264 0 31.9995C0 49.6726 14.3269 63.9995 32 63.9995Z" fill="black" fill-opacity="0.2"/>
</g>
<rect x="0.5" y="0.5" width="63" height="63" rx="31.5" stroke="black" stroke-opacity="0.2"/>
</svg>
