<svg width="64" height="64" viewBox="0 0 64 64" fill="none" xmlns="http://www.w3.org/2000/svg">
<path d="M0 32C0 14.3269 14.3269 0 32 0V0C49.6731 0 64 14.3269 64 32V32C64 49.6731 49.6731 64 32 64V64C14.3269 64 0 49.6731 0 32V32Z" fill="#F00500"/>
<path d="M46.1003 37.3908C46.076 37.519 45.6951 37.9036 45.3142 38.184C44.1959 38.9933 42.1944 39.7465 40.1604 40.107C39.0016 40.3153 37.8428 40.3474 37.4943 40.1791C37.2674 40.0669 37.235 39.9788 37.316 39.6904C37.4862 39.0894 38.0373 38.4324 38.8962 37.8155C39.3338 37.503 41.1085 36.4374 41.9351 35.9887C43.2965 35.2515 44.3985 34.8109 45.1441 34.7067C45.3791 34.6746 45.6627 34.6666 45.7518 34.7067C45.8977 34.7628 46.0598 35.1874 46.1246 35.7002C46.157 35.9726 46.1408 37.1745 46.1003 37.3908Z" fill="black"/>
<path d="M27.0085 40.0429C26.9599 40.1391 26.7167 40.2432 26.4412 40.2833C26.1657 40.3233 25.3229 40.2993 24.8448 40.2432C23.1269 40.0189 21.3036 39.4981 19.9746 38.8571C19.2291 38.4965 18.6943 38.136 18.2972 37.7434L18.0703 37.511L18.046 37.2065C18.0055 36.6777 18.0136 35.8445 18.0784 35.548C18.1189 35.2996 18.2081 35.0592 18.3296 34.8429C18.3945 34.7628 18.3945 34.7628 18.6862 34.7628C19.0427 34.7628 19.3426 34.8189 19.8288 34.9711C20.8255 35.2756 22.3084 36.0127 24.1155 37.0864C25.6066 37.9677 26.1657 38.4004 26.5952 38.9933C26.8869 39.3619 27.0814 39.8827 27.0085 40.0429Z" fill="black"/>
<path d="M38.483 51.1961C38.483 51.2201 38.3857 51.6047 38.2642 52.0614C38.1426 52.5181 38.0454 52.8867 38.0454 52.9027C37.9563 52.9107 37.8752 52.9187 37.7861 52.9107H37.5268L37.1702 53.744C36.9757 54.2007 36.7975 54.6253 36.7731 54.6894L36.7245 54.8016L36.5543 54.5292L36.3842 54.2568V52.0374L36.3193 52.0534C36.1816 52.0854 35.2011 52.2136 34.7716 52.2537C32.9969 52.43 31.2141 52.3899 29.4476 52.1415C29.1639 52.1015 28.9208 52.0694 28.9127 52.0774C28.9046 52.0854 28.9127 52.5982 28.9289 53.2312L28.9533 54.3689L28.8155 54.5773C28.7426 54.6894 28.6696 54.7856 28.6696 54.7936C28.6453 54.8176 28.5643 54.6894 28.3779 54.3209C28.1753 53.9363 28.0295 53.5276 27.9241 53.103L27.8674 52.8706L27.6162 52.8867L27.365 52.9107L27.3001 52.6142C27.2677 52.454 27.2272 52.2056 27.211 52.0694L27.1867 51.813L26.976 51.6287C26.8544 51.5246 26.7329 51.4204 26.7086 51.4044C26.6681 51.3723 26.6519 51.3162 26.6519 51.2682V51.172L27.6648 51.18L28.6777 51.188L28.7101 51.2922L28.7426 51.3964L29.091 51.4124C29.2855 51.4204 29.9014 51.4364 30.4524 51.4525L31.4653 51.4765L31.7247 51.0759L31.9921 50.6753H32.3324L32.3243 49.842L32.3162 49.0087L31.8705 48.8164C30.4362 48.1914 29.5934 47.4783 29.2774 46.613C29.2126 46.4367 29.2126 46.3726 29.1964 45.5714C29.1883 44.7782 29.1883 44.7061 29.245 44.5298C29.3584 44.1292 29.6745 43.8167 30.0796 43.7125C30.2174 43.6725 30.5821 43.6725 32.4945 43.6725L34.7473 43.6805L34.9985 43.8007C35.2983 43.9449 35.4361 44.0491 35.6062 44.2734C35.8007 44.5298 35.8574 44.7301 35.8574 45.2189C35.8574 45.9159 35.8088 46.5169 35.7359 46.7572C35.6306 47.0857 35.4685 47.3982 35.2659 47.6786C34.8607 48.1914 34.1233 48.7042 33.4507 48.9366L33.2562 49.0087L33.2643 49.85L33.2724 50.6913L33.4507 50.7073L33.629 50.7233L33.8721 51.0839L34.1071 51.4444H35.193C35.7926 51.4444 36.3193 51.4525 36.368 51.4605C36.449 51.4765 36.4652 51.4685 36.5462 51.3323L36.6435 51.188H37.5754C38.2723 51.156 38.483 51.172 38.483 51.1961Z" fill="black"/>
<path d="M34.2044 53.4956C34.0504 53.5837 33.9451 53.6238 33.9208 53.6078C33.8965 53.5997 33.783 53.5036 33.6614 53.4155L33.4427 53.2392L33.2158 53.4796C32.7214 54.0084 32.7052 54.0324 32.5594 54.0404C32.3325 54.0645 32.2839 54.0244 32.0083 53.6158C31.8625 53.4074 31.749 53.2312 31.749 53.2312C31.749 53.2312 31.6437 53.2151 31.5221 53.2071L31.2952 53.1831L31.1899 53.3994L31.0846 53.6158L30.8982 53.5597C30.7523 53.5116 30.6064 53.4555 30.4687 53.3914L30.2256 53.2712V52.8145L32.3811 52.8225L34.5366 52.8305L34.5447 53.0469C34.5528 53.3033 34.5609 53.2953 34.2044 53.4956Z" fill="black"/>
<path d="M54.463 43.7205C54.4549 43.6885 54.4549 43.6324 54.4468 43.5443C52.502 43.3359 46.9511 43.2077 41.7973 47.4142C41.7973 47.4142 40.1361 39.8826 32.3567 39.8826C24.5774 39.8826 21.6926 47.4142 21.6926 47.4142C17.3329 42.7751 11.4984 43.1116 9.39148 43.4161C9.39148 43.4641 9.38337 43.5202 9.38337 43.5683C9.31854 44.7301 9.35096 45.2829 9.54544 46.0121C10.1532 48.2956 12.0251 50.8114 14.9586 53.2792C19.7639 57.3175 26.2791 60.2339 31.2141 60.5705C36.3598 60.915 43.9528 57.9424 49.0094 53.5997C49.8035 52.9027 50.549 52.1655 51.2459 51.3803C51.7483 50.8034 52.4939 49.8099 52.4371 49.8099C52.4209 49.8099 52.4371 49.7939 52.4696 49.7779C52.4939 49.7618 52.5182 49.7378 52.502 49.7218C52.4939 49.7138 52.5101 49.6897 52.5344 49.6817C52.5587 49.6737 52.5749 49.6577 52.5668 49.6416C52.5587 49.6256 52.5668 49.6096 52.5992 49.6016C52.6235 49.5936 52.6316 49.5695 52.6235 49.5535C52.6154 49.5375 52.6235 49.5215 52.6397 49.5215C52.6559 49.5215 52.6721 49.4974 52.6721 49.4814C52.6721 49.4654 52.6883 49.4413 52.7046 49.4413C52.7208 49.4413 52.737 49.4253 52.737 49.4093C52.7613 49.3452 52.8018 49.2811 52.8423 49.225C52.9639 49.0407 53.4501 48.1834 53.5149 48.0392C53.9768 47.0056 54.2685 46.0842 54.4063 45.1628C54.4549 44.7221 54.4954 43.9128 54.463 43.7205ZM34.2043 53.4956C34.0504 53.5837 33.945 53.6238 33.9207 53.6077C33.8964 53.5997 33.7829 53.5036 33.6614 53.4155L33.4426 53.2392L33.2157 53.4795C32.7214 54.0084 32.7052 54.0324 32.5593 54.0404C32.3324 54.0644 32.2838 54.0244 32.0083 53.6158C31.8624 53.4074 31.749 53.2312 31.749 53.2312C31.749 53.2312 31.6436 53.2151 31.5221 53.2071L31.2952 53.1831L31.1898 53.3994L31.0845 53.6158L30.8981 53.5597C30.7522 53.5116 30.6064 53.4555 30.4686 53.3914L30.2255 53.2712V52.8145L32.381 52.8225L34.5366 52.8305L34.5447 53.0469C34.5528 53.3033 34.5609 53.2953 34.2043 53.4956ZM38.2561 52.0534C38.1345 52.5101 38.0373 52.8786 38.0373 52.8946C37.9481 52.9027 37.8671 52.9107 37.778 52.9027H37.5186L37.1702 53.744C36.9757 54.2007 36.7974 54.6253 36.7731 54.6894L36.7245 54.8016L36.5543 54.5292L36.3842 54.2567V52.0373L36.3193 52.0534C36.1816 52.0854 35.201 52.2136 34.7716 52.2537C32.9969 52.4299 31.2141 52.3899 29.4476 52.1415C29.164 52.1014 28.9209 52.0694 28.9127 52.0774C28.9046 52.0854 28.9128 52.5982 28.929 53.2312L28.9533 54.3689L28.8155 54.5772C28.7426 54.6894 28.6696 54.7856 28.6696 54.7936C28.6453 54.8176 28.5643 54.6894 28.3779 54.3208C28.1753 53.9363 28.0295 53.5276 27.9241 53.103L27.8674 52.8706L27.6162 52.8866L27.365 52.9107L27.3002 52.6142C27.2677 52.454 27.2272 52.2056 27.211 52.0694L27.1867 51.813L26.976 51.6287C26.8545 51.5245 26.7329 51.4204 26.7086 51.4044C26.6681 51.3723 26.6519 51.3162 26.6519 51.2681V51.172L27.6648 51.18L28.6777 51.188L28.7102 51.2922L28.7426 51.3963L29.091 51.4124C29.2855 51.4204 29.9014 51.4364 30.4524 51.4524L31.4653 51.4765L31.7247 51.0758L31.9921 50.6752H32.3324L32.3243 49.8419L32.3162 49.0087L31.8705 48.8164C30.4362 48.1914 29.5934 47.4783 29.2774 46.613C29.2126 46.4367 29.2126 46.3726 29.1964 45.5714C29.1883 44.7782 29.1883 44.706 29.245 44.5298C29.3584 44.1292 29.6745 43.8167 30.0797 43.7125C30.2174 43.6725 30.5821 43.6725 32.4945 43.6725L34.7472 43.6805L34.9985 43.8007C35.2983 43.9449 35.436 44.049 35.6062 44.2734C35.8007 44.5298 35.8574 44.7301 35.8574 45.2188C35.8574 45.9159 35.8088 46.5168 35.7359 46.7572C35.6305 47.0857 35.4685 47.3982 35.2659 47.6786C34.8607 48.1914 34.1233 48.7042 33.4507 48.9366L33.2562 49.0087L33.2643 49.85L33.2724 50.6913L33.4507 50.7073L33.629 50.7233L33.8721 51.0839L34.1071 51.4444H35.1929C35.7926 51.4444 36.3193 51.4524 36.3679 51.4604C36.449 51.4765 36.4652 51.4685 36.5462 51.3322L36.6435 51.188H37.5754C38.2966 51.188 38.5073 51.196 38.5073 51.2201C38.483 51.2121 38.3776 51.6047 38.2561 52.0534Z" fill="white"/>
<path d="M54.3981 42.9033C54.3819 42.5427 54.3495 42.038 54.3252 41.7896C53.9768 38.152 53.0368 35.1794 51.254 32.0306C51.1811 31.9104 51.1162 31.7902 51.0757 31.694C51.0595 31.67 51.0514 31.646 51.0433 31.63C51.2945 30.8848 52.3237 27.768 53.1421 24.2025C54.2523 19.3631 54.9573 13.7064 52.8018 12.0078C52.8018 12.0078 49.0742 11.7354 44.0824 16.5748C42.7291 17.9129 41.4893 19.3631 40.3872 20.9095L40.0388 20.7973C38.0291 20.1483 35.9465 19.7477 33.8477 19.6115C33.2157 19.5634 30.8576 19.5634 30.0877 19.6115C27.762 19.7637 25.9793 20.1082 23.9534 20.8053C23.8724 20.8374 23.7994 20.8614 23.7265 20.8854C22.5839 19.3471 21.3117 17.9048 19.9098 16.5828C14.7154 11.7193 10.8501 11.9998 10.8501 11.9998C8.5649 13.7545 9.34283 19.6676 10.5259 24.6672C11.3039 27.9763 12.2601 30.8848 12.6166 31.9344C12.5923 31.9905 12.5599 32.0546 12.5275 32.1107C10.6394 35.8925 9.61835 39.5381 9.37524 43.4161C11.4903 43.1116 17.3167 42.7671 21.6844 47.4142C21.6844 47.4142 24.5693 39.8826 32.3486 39.8826C40.1279 39.8826 41.7891 47.4142 41.7891 47.4142C46.943 43.2078 52.4938 43.344 54.4387 43.5443C54.4306 43.384 54.4144 43.1437 54.3981 42.9033ZM14.1482 28.9138C14.1482 28.9138 11.1175 21.4223 11.8954 17.1437C12.0251 16.4226 12.2682 15.7896 12.649 15.3089C12.649 15.3089 16.0849 15.6454 21.6277 21.7347C21.6277 21.7347 20.5742 22.2395 19.1642 23.3132C19.1642 23.3132 19.1561 23.3212 19.148 23.3212C17.6165 24.483 15.6554 26.3258 14.1482 28.9138ZM27.0084 40.0429C26.9598 40.139 26.7167 40.2432 26.4412 40.2833C26.1656 40.3233 25.3229 40.2993 24.8448 40.2432C23.1268 40.0189 21.3036 39.4981 19.9746 38.8571C19.2291 38.4965 18.6942 38.136 18.2972 37.7434L18.0703 37.511L18.046 37.2065C18.0054 36.6777 18.0135 35.8444 18.0784 35.548C18.1189 35.2996 18.208 35.0592 18.3296 34.8429C18.3944 34.7628 18.3944 34.7628 18.6861 34.7628C19.0427 34.7628 19.3425 34.8189 19.8287 34.9711C20.8255 35.2756 22.3084 36.0127 24.1155 37.0863C25.6065 37.9677 26.1656 38.4004 26.5951 38.9933C26.8869 39.3618 27.0813 39.8826 27.0084 40.0429ZM46.1002 37.3908C46.0759 37.519 45.695 37.9036 45.3142 38.184C44.1959 38.9933 42.1943 39.7464 40.1603 40.107C39.0015 40.3153 37.8427 40.3474 37.4943 40.1791C37.2674 40.0669 37.235 39.9788 37.316 39.6903C37.4862 39.0894 38.0372 38.4324 38.8962 37.8155C39.3338 37.503 41.1085 36.4373 41.935 35.9887C43.2964 35.2515 44.3985 34.8108 45.144 34.7067C45.379 34.6746 45.6626 34.6666 45.7517 34.7067C45.8976 34.7628 46.0597 35.1874 46.1245 35.7002C46.1569 35.9726 46.1407 37.1745 46.1002 37.3908ZM44.755 23.3132L44.7388 23.3051C43.3774 22.2315 42.3564 21.7267 42.3564 21.7267C47.7128 15.6374 51.0271 15.3008 51.0271 15.3008C51.3918 15.7896 51.6268 16.4146 51.7564 17.1357C52.51 21.4142 49.5847 28.9138 49.5847 28.9138C48.3611 26.7585 46.7161 24.8515 44.755 23.3132Z" fill="#FFA409"/>
<path d="M51.7645 17.1357C51.1325 17.0555 48.1423 17.0395 44.7551 23.3132L44.7389 23.3052C43.3775 22.2315 42.3564 21.7267 42.3564 21.7267C47.7128 15.6374 51.0271 15.3008 51.0271 15.3008C51.3999 15.7896 51.6349 16.4146 51.7645 17.1357Z" fill="#FF9300"/>
<path d="M49.5928 28.9138C48.361 26.7505 46.7241 24.8515 44.755 23.3132C48.1422 17.0395 51.1243 17.0555 51.7645 17.1357C52.5181 21.4223 49.5928 28.9138 49.5928 28.9138Z" fill="#FF8300"/>
<path d="M51.8861 17.1597C51.8456 17.1517 51.805 17.1437 51.7645 17.1357L51.8861 17.1597Z" fill="#FF8300"/>
<path d="M21.6278 21.7267C21.6278 21.7267 20.5744 22.2315 19.1644 23.3052C19.1644 23.3052 19.1563 23.3132 19.1482 23.3132C15.6394 17.0315 12.5519 17.0555 11.8875 17.1357C12.0171 16.4146 12.2602 15.7816 12.6411 15.3008C12.6492 15.3008 16.085 15.6374 21.6278 21.7267Z" fill="#FF9300"/>
<path d="M19.1562 23.3132C17.6166 24.483 15.6555 26.3178 14.1483 28.9138C14.1483 28.9138 11.1176 21.4223 11.8955 17.1357C12.5519 17.0555 15.6474 17.0395 19.1562 23.3132Z" fill="#FF8300"/>
<path d="M11.8955 17.1357C11.855 17.1437 11.8064 17.1517 11.7659 17.1597L11.8955 17.1357Z" fill="#FF8300"/>
<path d="M41.3921 33.0722C41.3921 33.0722 38.799 33.2324 39.1231 31.2294C39.4473 29.2263 41.4731 28.9859 42.0404 29.066C42.6076 29.1461 44.8766 29.9474 44.4714 31.63C44.0662 33.3126 43.499 32.9921 43.1749 33.0722C42.8507 33.1523 41.3921 33.0722 41.3921 33.0722Z" fill="white"/>
<path d="M22.268 33.0722C22.268 33.0722 19.6748 33.2324 19.999 31.2294C20.3231 29.2263 22.349 28.9859 22.9162 29.066C23.4835 29.1461 25.7524 29.9474 25.3473 31.63C24.9421 33.3126 24.3749 32.9921 24.0507 33.0722C23.7266 33.1523 22.268 33.0722 22.268 33.0722Z" fill="white"/>
</svg>
