<svg width="64" height="64" viewBox="0 0 64 64" fill="none" xmlns="http://www.w3.org/2000/svg">
<defs>
<linearGradient id="paint0_linear_9683_35453" x1="48.2966" y1="12.1547" x2="25.4823" y2="54.966" gradientUnits="userSpaceOnUse">
<stop stop-color="#00FFA3"/>
<stop offset="1" stop-color="#DC1FFF"/>
</linearGradient>
<linearGradient id="paint1_linear_9683_35453" x1="38.636" y1="7.00659" x2="15.8218" y2="49.8178" gradientUnits="userSpaceOnUse">
<stop stop-color="#00FFA3"/>
<stop offset="1" stop-color="#DC1FFF"/>
</linearGradient>
<linearGradient id="paint2_linear_9683_35453" x1="43.4356" y1="9.56429" x2="20.6213" y2="52.3755" gradientUnits="userSpaceOnUse">
<stop stop-color="#00FFA3"/>
<stop offset="1" stop-color="#DC1FFF"/>
</linearGradient>
<clipPath id="clip0_9683_35453">
<rect width="40" height="32" fill="white" transform="translate(12 16)"/>
</clipPath>
</defs>
<path d="M0 32C0 14.3269 14.3269 0 32 0V0C49.6731 0 64 14.3269 64 32V32C64 49.6731 49.6731 64 32 64V64C14.3269 64 0 49.6731 0 32V32Z" fill="black"/>
<g clip-path="url(#clip0_9683_35453)">
<path d="M18.4973 40.4235C18.7387 40.1771 19.0706 40.0334 19.4226 40.0334H51.3462C51.9296 40.0334 52.2212 40.752 51.8089 41.1729L45.5026 47.6099C45.2612 47.8563 44.9293 48 44.5773 48H12.6537C12.0704 48 11.7787 47.2814 12.1911 46.8604L18.4973 40.4235Z" fill="url(#paint0_linear_9683_35453)"/>
<path d="M18.4973 16.3901C18.7488 16.1437 19.0807 16 19.4226 16H51.3462C51.9296 16 52.2212 16.7186 51.8089 17.1396L45.5026 23.5765C45.2612 23.8229 44.9293 23.9666 44.5773 23.9666H12.6537C12.0704 23.9666 11.7787 23.248 12.1911 22.8271L18.4973 16.3901Z" fill="url(#paint1_linear_9683_35453)"/>
<path d="M45.5026 28.3298C45.2612 28.0834 44.9293 27.9397 44.5773 27.9397H12.6537C12.0704 27.9397 11.7787 28.6583 12.1911 29.0793L18.4973 35.5162C18.7387 35.7626 19.0706 35.9063 19.4226 35.9063H51.3462C51.9296 35.9063 52.2212 35.1877 51.8089 34.7668L45.5026 28.3298Z" fill="url(#paint2_linear_9683_35453)"/>
</g>
</svg>
