<svg width="64" height="64" viewBox="0 0 64 64" fill="none" xmlns="http://www.w3.org/2000/svg">
<path d="M32 64C49.6731 64 64 49.6731 64 32C64 14.3269 49.6731 0 32 0C14.3269 0 0 14.3269 0 32C0 49.6731 14.3269 64 32 64Z" fill="#2775C9"/>
<path d="M31.5 55C18.52 55 8 44.48 8 31.5C8 18.52 18.52 8 31.5 8C44.48 8 55 18.52 55 31.5C55 37.7326 52.5241 43.7099 48.117 48.117C43.7099 52.5241 37.7326 55 31.5 55V55ZM30.1 22.78C28.8142 22.8438 27.5987 23.3859 26.6921 24.2999C25.7855 25.2139 25.2533 26.4337 25.2 27.72C25.2 30.14 26.68 31.72 29.82 32.38L32.02 32.9C34.16 33.4 35.04 34.12 35.04 35.34C35.04 36.56 33.5 37.76 31.5 37.76C30.7896 37.8251 30.0752 37.689 29.4386 37.3671C28.8019 37.0453 28.2687 36.5507 27.9 35.94C27.7908 35.7083 27.6183 35.5121 27.4024 35.3741C27.1866 35.2361 26.9362 35.1619 26.68 35.16H25.5C25.4093 35.1768 25.3227 35.2114 25.2454 35.2618C25.1681 35.3121 25.1015 35.3773 25.0494 35.4535C24.9974 35.5297 24.9609 35.6155 24.9421 35.7058C24.9234 35.7962 24.9226 35.8894 24.94 35.98C25.2274 37.1531 25.8957 38.1978 26.8403 38.9506C27.7848 39.7033 28.9523 40.1216 30.16 40.14V41.82C30.16 42.194 30.3086 42.5526 30.573 42.817C30.8374 43.0814 31.196 43.23 31.57 43.23C31.944 43.23 32.3026 43.0814 32.567 42.817C32.8314 42.5526 32.98 42.194 32.98 41.82V40.12C34.3456 40.1045 35.6511 39.5565 36.6187 38.5927C37.5862 37.6289 38.1392 36.3255 38.16 34.96C38.16 32.42 36.7 30.96 33.24 30.22L31.24 29.78C29.24 29.28 28.3 28.62 28.3 27.5C28.3 26.38 29.5 25.14 31.5 25.14C32.1299 25.0742 32.7653 25.1922 33.3296 25.4796C33.8939 25.7671 34.3629 26.2118 34.68 26.76C34.8085 27.0338 35.012 27.2655 35.2669 27.4283C35.5218 27.5912 35.8176 27.6784 36.12 27.68H37.06C37.2737 27.6277 37.4584 27.4937 37.5743 27.3067C37.6903 27.1197 37.7282 26.8947 37.68 26.68C37.409 25.5969 36.8029 24.627 35.9482 23.9087C35.0934 23.1904 34.0336 22.7604 32.92 22.68V21.3C32.92 20.926 32.7714 20.5674 32.507 20.303C32.2426 20.0386 31.884 19.89 31.51 19.89C31.136 19.89 30.7774 20.0386 30.513 20.303C30.2486 20.5674 30.1 20.926 30.1 21.3V22.78V22.78ZM13.88 31.5C13.8823 35.1841 15.0419 38.7745 17.1952 41.7639C19.3484 44.7532 22.3864 46.9906 25.88 48.16H26.16C26.3987 48.16 26.6276 48.0652 26.7964 47.8964C26.9652 47.7276 27.06 47.4987 27.06 47.26V46.84C27.0607 46.4677 26.9508 46.1036 26.7443 45.7938C26.5377 45.4841 26.2439 45.2426 25.9 45.1C23.1792 44.0018 20.8487 42.1155 19.2076 39.6834C17.5664 37.2512 16.6896 34.3841 16.6896 31.45C16.6896 28.5159 17.5664 25.6488 19.2076 23.2166C20.8487 20.7845 23.1792 18.8982 25.9 17.8C26.2423 17.6609 26.5355 17.4231 26.7421 17.1167C26.9487 16.8104 27.0594 16.4495 27.06 16.08V15.62C27.0613 15.4849 27.03 15.3516 26.9688 15.2312C26.9075 15.1108 26.8182 15.0069 26.7083 14.9284C26.5984 14.8499 26.4711 14.7991 26.3374 14.7802C26.2037 14.7613 26.0673 14.775 25.94 14.82C22.4319 15.9802 19.3786 18.2162 17.2137 21.2105C15.0487 24.2048 13.8823 27.8051 13.88 31.5V31.5ZM49.12 31.5C49.1135 27.8193 47.9519 24.2334 45.799 21.248C43.6461 18.2626 40.6104 16.0283 37.12 14.86H36.82C36.5707 14.86 36.3316 14.959 36.1553 15.1353C35.979 15.3116 35.88 15.5507 35.88 15.8V16.1C35.8881 16.4857 36.0075 16.8609 36.224 17.1803C36.4405 17.4997 36.7447 17.7496 37.1 17.9C39.8146 19.0014 42.1388 20.8878 43.7752 23.3177C45.4115 25.7476 46.2857 28.6105 46.2857 31.54C46.2857 34.4695 45.4115 37.3324 43.7752 39.7623C42.1388 42.1922 39.8146 44.0786 37.1 45.18C36.7515 45.3319 36.4535 45.5801 36.2409 45.8954C36.0284 46.2106 35.9101 46.5799 35.9 46.96V47.3C35.9017 47.4483 35.9385 47.594 36.0073 47.7254C36.0761 47.8567 36.175 47.9699 36.2959 48.0558C36.4168 48.1416 36.5563 48.1976 36.703 48.2192C36.8497 48.2408 36.9995 48.2273 37.14 48.18C40.6331 47.0061 43.6691 44.7643 45.8188 41.7712C47.9685 38.7781 49.1233 35.1851 49.12 31.5V31.5Z" fill="white"/>
</svg>
