<svg width="64" height="64" viewBox="0 0 64 64" fill="none" xmlns="http://www.w3.org/2000/svg">
<path d="M32 64C49.6731 64 64 49.6731 64 32C64 14.3269 49.6731 0 32 0C14.3269 0 0 14.3269 0 32C0 49.6731 14.3269 64 32 64Z" fill="#23292F"/>
<path d="M46.14 16H51.92L39.89 27.914C37.7867 29.9862 34.9526 31.1479 32 31.1479C29.0474 31.1479 26.2133 29.9862 24.11 27.914L12.07 16H17.86L27 25.046C28.331 26.3597 30.1259 27.0963 31.996 27.0963C33.8661 27.0963 35.661 26.3597 36.992 25.046L46.14 16ZM17.79 49.126H12L24.11 37.14C26.2133 35.0678 29.0474 33.9062 32 33.9062C34.9526 33.9062 37.7867 35.0678 39.89 37.14L52 49.124H46.21L37 40C35.669 38.6863 33.8741 37.9497 32.004 37.9497C30.1339 37.9497 28.339 38.6863 27.008 40L17.788 49.126H17.79Z" fill="white"/>
</svg>
