<svg width="24" height="24" viewBox="0 0 24 24" fill="none" xmlns="http://www.w3.org/2000/svg">
<path fill-rule="evenodd" clip-rule="evenodd" d="M19.0249 16.9763C19.0001 14.7574 18.2383 12.007 16.6756 9.30045C15.113 6.59391 13.112 4.55898 11.2028 3.42797C9.25185 2.27223 7.67986 2.19865 6.67576 2.77837C5.67166 3.35809 4.94939 4.75625 4.97481 7.02372C4.99968 9.24264 5.7615 11.993 7.32412 14.6995C8.88674 17.4061 10.8877 19.441 12.7969 20.572C14.7479 21.7278 16.3199 21.8013 17.324 21.2216C18.3281 20.6419 19.0504 19.2437 19.0249 16.9763ZM17.9989 22.3906C21.2268 20.5269 21.1577 14.3641 17.8446 8.62556C14.5314 2.88701 9.22882 -0.25422 6.00088 1.60943C2.77294 3.47308 2.84202 9.63588 6.15518 15.3744C9.46833 21.113 14.7709 24.2542 17.9989 22.3906Z" fill="#96A1A7"/>
<path fill-rule="evenodd" clip-rule="evenodd" d="M6.00088 1.60943C5.80474 1.72267 5.61313 1.84061 5.42587 1.96303C1.30916 4.65423 -0.648732 9.50908 0.191422 14.1419C0.233505 14.374 0.282611 14.6055 0.338815 14.8361C0.60286 15.9197 1.02362 16.9843 1.60943 17.999C2.19524 19.0137 2.90688 19.9104 3.71325 20.6808C3.88489 20.8448 4.06082 21.0031 4.24075 21.1556C7.83283 24.1996 13.0162 24.9314 17.4052 22.7119C17.6049 22.6109 17.8027 22.5038 17.9989 22.3906C18.195 22.2773 18.3869 22.1594 18.5741 22.037C22.6908 19.3458 24.6487 14.4909 23.8086 9.85807C23.7665 9.62602 23.7174 9.39452 23.6612 9.16387C23.3971 8.08031 22.9764 7.01566 22.3906 6.001C21.8048 4.98635 21.0931 4.08963 20.2868 3.31918C20.1151 3.15518 19.9392 2.99691 19.7593 2.84444C16.1672 -0.199581 10.9838 -0.931425 6.5948 1.28815C6.39515 1.38911 6.19702 1.49619 6.00088 1.60943ZM6.10194 3.13404C2.63453 5.43602 0.91541 9.47932 1.44353 13.419L9.39087 8.83063L6.10194 3.13404ZM10.5598 8.15574L7.27088 2.45915C10.9982 0.607275 15.3593 1.14013 18.5071 3.56734L10.5598 8.15574ZM10.0658 9.99957L1.72724 14.8138C1.96293 15.6717 2.3112 16.515 2.77837 17.3241C3.24553 18.1333 3.80169 18.8565 4.42679 19.4896L12.7653 14.6753L10.0658 9.99957ZM13.9342 14.0004L11.2347 9.32468L19.5732 4.51044C20.1983 5.14348 20.7545 5.86673 21.2216 6.67589C21.6888 7.48505 22.0371 8.32831 22.2728 9.18619L13.9342 14.0004ZM13.4402 15.8443L5.49286 20.4327C8.64068 22.8599 13.0018 23.3927 16.7291 21.5408L13.4402 15.8443ZM17.8981 20.866L14.6091 15.1694L22.5565 10.581C23.0846 14.5207 21.3655 18.564 17.8981 20.866Z" fill="#96A1A7"/>
</svg>
