<svg width="16" height="14" viewBox="0 0 16 14" fill="none" xmlns="http://www.w3.org/2000/svg">
<path d="M0 7.12906C0 7.12906 3.40944 13 8.13115 13C8.9372 13 9.72389 12.7835 10.4689 12.4335L8.5 10.4646C8.3367 10.4879 8.16976 10.5 8 10.5C6.067 10.5 4.5 8.933 4.5 7C4.5 6.83024 4.51209 6.6633 4.53544 6.5L2.20091 4.16546C0.815434 5.66335 0 7.12906 0 7.12906Z" fill="black"/>
<path fill-rule="evenodd" clip-rule="evenodd" d="M8.13115 1.00003C12.3279 1.00003 16 7.12906 16 7.12906C16 7.12906 14.8271 9.00433 13.0494 10.6352L15.0001 12.5858L13.5859 14L1 1.41421L2.41421 0L4.56052 2.14629C5.62094 1.46844 6.82593 1.00003 8.13115 1.00003ZM11.5 7C11.5 5.067 9.933 3.5 8 3.5C7.39725 3.5 6.83008 3.65237 6.33491 3.92068L11.0793 8.66509C11.3476 8.16992 11.5 7.60275 11.5 7Z" fill="black"/>
</svg>
