<svg width="21" height="20" viewBox="0 0 21 20" fill="none" xmlns="http://www.w3.org/2000/svg">
<path d="M14.9548 16.8743C15.592 16.47 16.1691 15.977 16.6692 15.4117L18.4721 16.4689L20.1138 13.5816L18.3145 12.5267C18.5432 11.8175 18.6778 11.0653 18.703 10.2855L20.75 9.91899L20.1797 6.63575L18.1331 7.00224C17.8502 6.29044 17.4708 5.62856 17.0106 5.03374L18.3484 3.41499L15.8333 1.27214L14.4966 2.88952C13.8437 2.53427 13.1367 2.2687 12.3915 2.10935V0L9.10831 0V2.10935C8.36311 2.2687 7.65608 2.53427 7.00313 2.88952L5.66649 1.27214L3.15135 3.41506L4.48904 5.03382C4.02894 5.62863 3.64948 6.29059 3.36665 7.00232L1.32005 6.63583L0.75 9.91906L2.79667 10.2856C2.8219 11.0654 2.95654 11.8175 3.18531 12.527L1.38586 13.5818L3.02755 16.469L4.83054 15.4121C5.33048 15.9771 5.90761 16.4702 6.5449 16.8745L5.83321 18.8598L8.91854 19.9998L9.62926 18.0173C9.99553 18.0699 10.3696 18.0978 10.7499 18.0978C11.1303 18.0978 11.5044 18.07 11.8707 18.0173L12.5813 20L15.6665 18.8596L14.9548 16.8743ZM10.7498 15C7.98841 14.9999 5.75 12.7614 5.75 10C5.75 7.23858 7.98858 5 10.75 5C13.5114 5 15.75 7.23858 15.75 10C15.75 12.7615 13.5113 15.0001 10.7498 15Z" fill="#828282"/>
</svg>
