<svg width="16" height="16" viewBox="0 0 16 16" fill="none" xmlns="http://www.w3.org/2000/svg">
<g clip-path="url(#clip0_2297_21)">
<path fill-rule="evenodd" clip-rule="evenodd" d="M5.53373 7.13315C7.22735 7.13315 8.6003 5.7602 8.6003 4.06657C8.6003 2.37295 7.22735 1 5.53373 1C3.84011 1 2.46715 2.37295 2.46715 4.06657C2.46715 5.7602 3.84011 7.13315 5.53373 7.13315ZM2.97969e-09 13.5637C2.97969e-09 10.4541 2.49221 7.93324 5.5665 7.93324C8.64079 7.93324 11.133 10.4541 11.133 13.5637C11.133 13.8318 10.8663 14.0664 10.633 14.0664H0.499985C0.266626 14.0664 -3.25473e-05 13.8318 2.97969e-09 13.5637ZM16.0002 12.1615C16.0002 9.86313 14.1945 7.9999 11.967 7.9999C11.2392 7.9999 10.5565 8.19879 9.96705 8.54676C10.9337 9.36653 11.9003 10.9332 12.1003 12.5331H15.6379C15.807 12.5331 16.0002 12.3597 16.0002 12.1615ZM11.9998 7.33265C13.2516 7.33265 14.2664 6.31786 14.2664 5.06605C14.2664 3.81425 13.2516 2.79945 11.9998 2.79945C10.748 2.79945 9.7332 3.81425 9.7332 5.06605C9.7332 6.31786 10.748 7.33265 11.9998 7.33265Z" fill="white"/>
</g>
<defs>
<clipPath id="clip0_2297_21">
<rect width="16" height="16" fill="white"/>
</clipPath>
</defs>
</svg>
