<svg width="16" height="16" viewBox="0 0 16 16" fill="none" xmlns="http://www.w3.org/2000/svg">
<path d="M15.827 5.04612C15.827 4.36489 15.6931 3.7047 15.4309 3.08087C15.1764 2.48001 14.8128 1.94038 14.3497 1.47729C13.8866 1.0142 13.347 0.650619 12.7461 0.396112C12.1242 0.132037 11.4621 0 10.7809 0C10.0997 0 9.43947 0.133951 8.81564 0.396112C8.2148 0.650619 7.67514 1.0142 7.21206 1.47729C6.74897 1.94038 6.38539 2.48001 6.13088 3.08087C5.86681 3.70279 5.73477 4.36489 5.73477 5.04612C5.73477 5.89767 5.94909 6.73199 6.35669 7.47446L0.315498 13.5099C0.175806 13.6496 0.131794 13.862 0.217905 14.0629C0.235127 14.105 0.263831 14.1433 0.296362 14.1758L1.64927 15.5287C1.6818 15.5613 1.72007 15.5881 1.76217 15.6072C1.96309 15.6933 2.1755 15.6512 2.31519 15.5096L3.33366 14.4911L4.8621 16.0196C4.89463 16.0521 4.93291 16.0789 4.97498 16.098C5.17591 16.1841 5.38834 16.1421 5.52801 16.0004L6.86178 14.6667C6.89431 14.6341 6.9211 14.5959 6.94024 14.5538C7.02635 14.3529 6.98425 14.1404 6.84264 14.0008L5.33333 12.4914L8.35062 9.47225C9.09118 9.87984 9.92741 10.0942 10.779 10.0942C11.4602 10.0942 12.1204 9.96021 12.7442 9.69805C13.3451 9.44354 13.8847 9.07996 14.3478 8.61687C14.8109 8.15381 15.1744 7.61417 15.429 7.01329C15.6931 6.38755 15.827 5.72736 15.827 5.04612ZM12.5491 6.81619C12.0764 7.28885 11.4468 7.54909 10.779 7.54909C10.1112 7.54909 9.48157 7.28885 9.00893 6.81619C8.53628 6.34353 8.27412 5.71397 8.27412 5.04612C8.27412 4.37637 8.53436 3.74871 9.00702 3.27606C9.47967 2.8034 10.1093 2.54315 10.7771 2.54315C11.4449 2.54315 12.0745 2.8034 12.5472 3.27606C13.0198 3.74871 13.2801 4.37828 13.2801 5.04612C13.2839 5.71397 13.0236 6.34353 12.5491 6.81619Z" fill="white"/>
</svg>
