<svg width="16" height="16" viewBox="0 0 16 16" fill="none" xmlns="http://www.w3.org/2000/svg">
<path fill-rule="evenodd" clip-rule="evenodd" d="M0.5 0C0.223858 0 0 0.223857 0 0.5V3.50017C0 3.77631 0.223857 4.00017 0.5 4.00017H3.50017C3.77631 4.00017 4.00017 3.77631 4.00017 3.50017V0.5C4.00017 0.223858 3.77631 0 3.50017 0H0.5ZM6.49956 0C6.22342 0 5.99956 0.223858 5.99956 0.5V9.90045C5.99956 10.1766 6.22342 10.4004 6.49956 10.4004H15.5C15.7761 10.4004 16 10.1766 16 9.90045V0.5C16 0.223858 15.7761 0 15.5 0H6.49956ZM0 6.50024C0 6.2241 0.223858 6.00024 0.5 6.00024H3.50017C3.77631 6.00024 4.00017 6.2241 4.00017 6.50024V9.50042C4.00017 9.77656 3.77631 10.0004 3.50017 10.0004H0.5C0.223857 10.0004 0 9.77656 0 9.50042V6.50024ZM0.5 11.9999C0.223858 11.9999 0 12.2237 0 12.4999V15.5C0 15.7762 0.223857 16 0.5 16H3.50017C3.77631 16 4.00017 15.7762 4.00017 15.5001V12.4999C4.00017 12.2237 3.77631 11.9999 3.50017 11.9999H0.5ZM5.99956 12.4999C5.99956 12.2237 6.22342 11.9999 6.49956 11.9999H9.49973C9.77587 11.9999 9.99973 12.2237 9.99973 12.4999V15.5001C9.99973 15.7762 9.77587 16 9.49973 16H6.49956C6.22341 16 5.99956 15.7762 5.99956 15.5V12.4999ZM12.5004 11.9999C12.2243 11.9999 12.0004 12.2237 12.0004 12.4999V15.5C12.0004 15.7762 12.2243 16 12.5004 16H15.5006C15.7767 16 16.0006 15.7762 16.0006 15.5001V12.4999C16.0006 12.2237 15.7767 11.9999 15.5006 11.9999H12.5004Z" fill="white"/>
</svg>
