<svg width="410" height="264" viewBox="0 0 410 264" fill="none" xmlns="http://www.w3.org/2000/svg">
<circle cx="121" cy="98" r="95" fill="url(#paint0_linear_12201_286)"/>
<path d="M95.99 52.1504L58.627 90.968L128.593 90.968L166.267 52.1504L95.99 52.1504Z" fill="white"/>
<path d="M166.268 124.561L128.624 163.058L128.594 90.9681L166.268 52.1504L166.268 124.561Z" fill="white"/>
<path d="M72 226.037C72 245.94 53.1342 264 33.2519 264C13.3697 264 0 245.94 0 226.037C0 206.134 18.3162 190 38.1985 190C58.0807 190 72 206.134 72 226.037Z" fill="url(#paint1_linear_12201_286)"/>
<path d="M128.683 212.055C136.672 213.189 142.815 222.002 141.65 230.203C140.485 238.405 132.453 242.891 124.464 241.757C116.476 240.622 111.073 232.146 112.238 223.944C113.403 215.742 120.695 210.92 128.683 212.055Z" fill="url(#paint2_linear_12201_286)"/>
<circle cx="276" cy="168" r="95" fill="url(#paint3_linear_12201_286)"/>
<mask id="mask0_12201_286" style="mask-type:alpha" maskUnits="userSpaceOnUse" x="181" y="73" width="190" height="190">
<circle cx="276" cy="168" r="95" fill="url(#paint4_linear_12201_286)"/>
</mask>
<g mask="url(#mask0_12201_286)">
<g filter="url(#filter0_f_12201_286)">
<path d="M227.55 107.212C275.638 98.998 327.423 129.597 343.214 175.558C359.006 221.519 332.825 265.436 284.737 273.651C236.649 281.865 184.865 251.266 169.073 205.305C153.281 159.345 179.462 115.427 227.55 107.212Z" fill="url(#paint5_linear_12201_286)"/>
</g>
<g filter="url(#filter1_f_12201_286)">
<path d="M342.372 203.923C304.834 235.081 244.688 234.473 208.031 202.566C171.375 170.658 172.09 119.534 209.628 88.3761C247.166 57.2182 307.312 57.8258 343.969 89.733C380.625 121.64 379.91 172.765 342.372 203.923Z" fill="url(#paint6_linear_12201_286)"/>
</g>
</g>
<path d="M318.26 108.887C314.843 108.361 311.342 108.66 308.08 109.757C304.817 110.854 301.897 112.713 299.589 115.164C295.184 119.854 293.813 125.961 294.871 132.08C295.829 137.598 297.1 143.199 297.386 148.515C297.786 156.523 296.504 164.525 293.613 172.056C290.998 178.871 287.272 184.156 279.287 185.325C278.695 185.414 276.539 185.477 275.927 185.508C275.315 185.54 273.378 185.42 272.779 185.331C264.795 184.162 261.035 178.877 258.427 172.018C255.536 164.487 254.254 156.485 254.654 148.478C254.94 143.18 256.211 137.573 257.169 132.042C258.227 125.923 256.856 119.816 252.451 115.126C250.136 112.677 247.209 110.822 243.94 109.732C240.671 108.641 237.165 108.351 233.747 108.887C223.506 110.473 216.685 119.108 216.626 128.167C216.597 131.657 217.595 135.086 219.507 138.066C222.694 143.06 227.924 146.701 232.489 150.481C235.51 153.01 240.733 160.185 243.295 167.96C244.846 172.67 246.11 177.442 247.361 182.259C249.117 188.972 251.533 203.802 253.123 210.535C256.297 224.012 266.012 227.065 275.747 227.375L276.093 227.375C285.828 227.065 295.703 224.006 298.877 210.528C300.46 203.796 302.869 188.96 304.639 182.253C305.897 177.461 307.154 172.663 308.705 167.954C311.267 160.178 316.49 152.978 319.511 150.475C324.076 146.682 329.299 143.054 332.493 138.06C334.405 135.079 335.403 131.651 335.374 128.161C335.321 119.083 328.527 110.442 318.26 108.887Z" fill="white"/>
<path d="M351.006 81.1196C328.623 75.2878 313.069 51.7397 318.082 32.4997C323.095 13.2598 346.776 5.61385 369.159 11.4456C391.542 17.2773 405.07 39.7294 400.057 58.9693C395.044 78.2093 373.389 86.9513 351.006 81.1196Z" fill="url(#paint7_linear_12201_286)"/>
<path d="M261.947 50.2161C250.685 54.2803 236.413 46.7385 232.143 34.9038C227.872 23.0691 235.219 11.4231 246.481 7.35886C257.743 3.29468 270.807 10.9025 275.078 22.7372C279.349 34.5719 273.209 46.1519 261.947 50.2161Z" fill="url(#paint8_linear_12201_286)"/>
<defs>
<filter id="filter0_f_12201_286" x="154.473" y="95.8789" width="203.342" height="189.105" filterUnits="userSpaceOnUse" color-interpolation-filters="sRGB">
<feFlood flood-opacity="0" result="BackgroundImageFix"/>
<feBlend mode="normal" in="SourceGraphic" in2="BackgroundImageFix" result="shape"/>
<feGaussianBlur stdDeviation="5" result="effect1_foregroundBlur_12201_286"/>
</filter>
<filter id="filter1_f_12201_286" x="171" y="55.3994" width="210" height="181.5" filterUnits="userSpaceOnUse" color-interpolation-filters="sRGB">
<feFlood flood-opacity="0" result="BackgroundImageFix"/>
<feBlend mode="normal" in="SourceGraphic" in2="BackgroundImageFix" result="shape"/>
<feGaussianBlur stdDeviation="5" result="effect1_foregroundBlur_12201_286"/>
</filter>
<linearGradient id="paint0_linear_12201_286" x1="204.917" y1="14.0833" x2="56.0833" y2="159.75" gradientUnits="userSpaceOnUse">
<stop stop-color="#FF6922"/>
<stop offset="1" stop-color="#7E44FB"/>
</linearGradient>
<linearGradient id="paint1_linear_12201_286" x1="67.8" y1="194.317" x2="9.88919" y2="249.463" gradientUnits="userSpaceOnUse">
<stop stop-color="#FF6922"/>
<stop offset="1" stop-color="#7E44FB"/>
</linearGradient>
<linearGradient id="paint2_linear_12201_286" x1="115.705" y1="211.979" x2="135.172" y2="238.48" gradientUnits="userSpaceOnUse">
<stop stop-color="#FF6922"/>
<stop offset="1" stop-color="#7E44FB"/>
</linearGradient>
<linearGradient id="paint3_linear_12201_286" x1="196.489" y1="98.8152" x2="337.957" y2="244.413" gradientUnits="userSpaceOnUse">
<stop stop-color="#649A66"/>
<stop offset="1" stop-color="#2B4CCF"/>
</linearGradient>
<linearGradient id="paint4_linear_12201_286" x1="196.489" y1="98.8152" x2="337.957" y2="244.413" gradientUnits="userSpaceOnUse">
<stop stop-color="#649A66"/>
<stop offset="1" stop-color="#2B4CCF"/>
</linearGradient>
<linearGradient id="paint5_linear_12201_286" x1="232.296" y1="265.85" x2="256.719" y2="194.505" gradientUnits="userSpaceOnUse">
<stop stop-color="#369CFF"/>
<stop offset="1" stop-color="#2B4CCF" stop-opacity="0"/>
</linearGradient>
<linearGradient id="paint6_linear_12201_286" x1="266.683" y1="81.3269" x2="265.19" y2="229.212" gradientUnits="userSpaceOnUse">
<stop stop-color="#49F150"/>
<stop offset="1" stop-color="#2B4CCF" stop-opacity="0"/>
</linearGradient>
<linearGradient id="paint7_linear_12201_286" x1="400.611" y1="56.8419" x2="317.389" y2="35.1591" gradientUnits="userSpaceOnUse">
<stop stop-color="#3376E0"/>
<stop offset="1" stop-color="#4BF051"/>
</linearGradient>
<linearGradient id="paint8_linear_12201_286" x1="274.606" y1="21.4286" x2="232.733" y2="36.5396" gradientUnits="userSpaceOnUse">
<stop stop-color="#3376E0"/>
<stop offset="1" stop-color="#4BF051"/>
</linearGradient>
</defs>
</svg>
