<svg width="24" height="24" viewBox="0 0 24 24" fill="none" xmlns="http://www.w3.org/2000/svg">
<path fill-rule="evenodd" clip-rule="evenodd" d="M12 21.24C17.1031 21.24 21.24 17.1031 21.24 12C21.24 6.89689 17.1031 2.76 12 2.76C6.89689 2.76 2.76 6.89689 2.76 12C2.76 17.1031 6.89689 21.24 12 21.24ZM12 23C18.0751 23 23 18.0751 23 12C23 5.92487 18.0751 1 12 1C5.92487 1 1 5.92487 1 12C1 18.0751 5.92487 23 12 23Z" fill="#96A1A7"/>
<path d="M7.15163 14.5634C6.60382 14.9286 6.25005 15.409 6.0238 15.8615C5.92942 16.0503 5.85569 16.2371 5.798 16.4138C6.49982 17.1881 6.80853 17.3675 7.41658 17.6533L7.41677 17.6461C7.41709 17.6368 7.41785 17.6189 7.41965 17.5936C7.42328 17.5428 7.43099 17.4642 7.44711 17.3675C7.48007 17.1697 7.54429 16.92 7.66359 16.6814C7.78109 16.4464 7.94295 16.2393 8.16858 16.0889C8.38847 15.9423 8.72285 15.8131 9.24995 15.8131L11.7609 15.8132L14.75 15.8131C15.1799 15.8131 15.6283 16.1477 16.0497 16.7799C16.2418 17.0681 16.3898 17.3628 16.4904 17.589C16.5401 17.7009 16.5768 17.7928 16.6003 17.8546C16.6121 17.8854 16.6204 17.9085 16.6255 17.9226L16.6304 17.9368L16.6308 17.9379C17.0416 17.6465 17.4999 17.1881 17.9583 16.4138C17.8525 16.2104 17.725 15.9877 17.5751 15.7629C17.0799 15.0201 16.1532 13.9797 14.7498 13.9798L11.7611 13.9799L9.24995 13.9798C8.40204 13.9798 7.70517 14.1944 7.15163 14.5634Z" fill="#96A1A7"/>
<path fill-rule="evenodd" clip-rule="evenodd" d="M11.9998 7.23333C10.9477 7.23333 10.1665 8.01459 10.1665 9.06667C10.1665 10.1187 10.9477 10.9 11.9998 10.9C13.0519 10.9 13.8332 10.1187 13.8332 9.06667C13.8332 8.0146 13.0519 7.23333 11.9998 7.23333ZM8.33315 9.06667C8.33315 7.00207 9.93523 5.4 11.9998 5.4C14.0644 5.4 15.6665 7.00207 15.6665 9.06667C15.6665 11.1313 14.0644 12.7333 11.9998 12.7333C9.93523 12.7333 8.33315 11.1313 8.33315 9.06667Z" fill="#96A1A7"/>
</svg>
