<svg width="24" height="24" viewBox="0 0 24 24" fill="none" xmlns="http://www.w3.org/2000/svg">
<path d="M1 4V10H7" stroke="#2B63F1" stroke-width="2" stroke-linecap="round" stroke-linejoin="round"/>
<path d="M23 20V14H17" stroke="#2B63F1" stroke-width="2" stroke-linecap="round" stroke-linejoin="round"/>
<path d="M20.49 8.99959C19.9828 7.56637 19.1209 6.28499 17.9845 5.27501C16.8482 4.26502 15.4745 3.55935 13.9917 3.22385C12.5089 2.88834 10.9652 2.93393 9.50481 3.35636C8.04437 3.77879 6.71475 4.5643 5.64 5.63959L1 9.99959M23 13.9996L18.36 18.3596C17.2853 19.4349 15.9556 20.2204 14.4952 20.6428C13.0348 21.0652 11.4911 21.1108 10.0083 20.7753C8.52547 20.4398 7.1518 19.7342 6.01547 18.7242C4.87913 17.7142 4.01717 16.4328 3.51 14.9996" stroke="#2B63F1" stroke-width="2" stroke-linecap="round" stroke-linejoin="round"/>
</svg>
