<svg width="463" height="248" viewBox="0 0 463 248" fill="none" xmlns="http://www.w3.org/2000/svg">
<path d="M198.789 221.456C248.852 176.825 275.957 157.76 330.089 115.399L343.185 104.779L346.307 92.665L342.307 78.4278L317.81 73.3725L275.028 110.396C218.316 160.095 200.387 172.02 183.816 188.521C174.432 197.865 169.56 200.424 168.125 203.074C160.948 216.323 159.977 224.122 152.699 237.129L156.05 245.102L186.946 228.992C193.001 225.879 196.935 223.109 198.789 221.456Z" fill="#C5E4F3"/>
<path d="M190.828 194.413C177.023 205.235 177.086 204.07 171.577 214.994C168.364 221.367 166.305 223.312 162.523 230.87C157.797 240.317 154.666 237.691 157.014 233.259C159.361 228.826 162.698 223.396 166.475 216.353C170.251 209.309 172.383 202.41 178.978 197.274C185.574 192.138 309.004 86.2714 316.965 79.6901C324.926 73.1087 325.701 78.1788 321.844 82.4116C317.988 86.6445 302.274 100.286 272.242 125.541C242.211 150.796 204.634 183.59 190.828 194.413Z" fill="white"/>
<path fill-rule="evenodd" clip-rule="evenodd" d="M266.239 122.382L317.671 78.3135C322.256 74.3971 331.274 77.9983 335.222 80.3183C337.077 81.4081 339.349 84.6338 340.749 88.5133L340.664 88.5491C327.517 100.281 319.962 105.492 313.181 110.169C307.85 113.846 302.998 117.193 296.284 123.117C284.1 133.868 272.768 145.214 264.397 153.595C260.22 157.777 256.781 161.22 254.341 163.483C245.648 171.545 230.549 183.415 217.204 193.904C207.343 201.656 198.439 208.655 193.789 212.806C190.142 196.715 175.633 196.558 170.819 198.581C166.005 200.604 167.223 203.503 169.63 202.492C175.166 200.166 191.097 203.704 189.231 218.133C182.76 216.806 174.48 223.919 164.754 232.274C164.232 232.723 163.705 233.176 163.175 233.63C160.052 236.307 162.279 240.26 165.104 238.221C181.893 226.096 187.473 225.258 190.365 224.824C191.402 224.668 192.094 224.564 192.833 224.01C193.659 223.39 193.957 222.6 194.291 221.717C194.654 220.757 195.058 219.687 196.226 218.604C205.085 210.387 214.752 202.405 225.193 193.783C235.165 185.548 245.843 176.73 257.2 166.567C264.638 159.911 270.318 154.034 275.855 148.306C282.794 141.126 289.506 134.182 299.167 126.234C315.046 113.169 330.514 101.489 342.019 96.5103C341.799 99.721 340.53 102.741 337.596 104.861C312.176 123.218 296.385 136.814 274.563 155.648C268.053 160.374 267.736 166.382 274.664 160.627L329.187 115.828C337.032 117.648 344.671 113.585 346.033 103.348L417.142 37.365C428.565 25.4589 420.867 15.9015 412.007 11.666C403.147 7.43054 394.734 8.97574 384.639 16.6288L378.471 21.4948C375.689 24.2456 373.125 23.6058 369.631 22.7341C368.1 22.3522 366.391 21.9257 364.406 21.7204C360.668 21.5861 358.282 22.6485 353.093 26.4743C348.049 30.1935 342.632 34.2919 337.508 38.168C328.052 45.3216 319.598 51.7178 316.337 53.5747C310.624 56.8282 314.319 59.2552 319.484 61.0641C322.805 62.2269 325.991 60.0355 326.235 56.2374C326.424 53.3157 327.513 51.8632 330.147 50.0455C340.685 42.7745 348.899 36.0372 353.68 31.913C360.747 25.8165 365.624 24.6195 370.607 29.0635C351.216 42.8975 337.804 54.7871 322.733 68.795C310.872 67.5259 302.274 77.3926 301.367 86.0171L262.106 119.287C257.521 123.203 262.756 125.552 266.239 122.382ZM159.048 241.334C160.655 236.395 155.826 235.013 150.899 238.789C148.542 240.595 146.747 244.514 148.661 246.268C151.212 248.607 157.454 244.278 159.048 241.334Z" fill="#293166"/>
<path d="M150.358 245.067C124.957 244.387 96.0981 217.605 116.774 218.159C137.45 218.712 139.565 250.898 116.096 244.15C92.6256 237.402 61.8751 215.159 86.6862 215.823C111.497 216.488 109.478 248.562 86.0078 241.814C62.5378 235.066 21.385 212.545 50.0604 214.843C78.7358 217.141 80.3918 253.139 49.382 240.834C18.3721 228.529 -12.3584 205.522 8.84832 208.385C30.0551 211.247 47.6696 238.493 16.4403 234.597" stroke="#293166" stroke-width="2"/>
</svg>
