<svg width="340" height="248" viewBox="0 0 340 248" fill="none" xmlns="http://www.w3.org/2000/svg">
<mask id="mask0_4310_44417" style="mask-type:alpha" maskUnits="userSpaceOnUse" x="0" y="0" width="340" height="248">
<path d="M0 0H340V248H0V0Z" fill="#FCF6F3"/>
</mask>
<g mask="url(#mask0_4310_44417)">
<path d="M111.449 203.597C157.474 162.565 182.394 145.038 232.16 106.092L244.2 96.3291L247.071 85.1923L243.393 72.1032L220.871 67.4556L181.539 101.493C129.401 147.184 112.918 158.147 97.6832 173.318C89.0561 181.909 84.5771 184.261 83.2576 186.697C76.6598 198.878 75.7672 206.048 69.0761 218.006L72.1562 225.336L100.561 210.525C106.127 207.663 109.744 205.117 111.449 203.597Z" fill="#C5E4F3"/>
<path d="M104.13 178.734C91.4373 188.684 91.4959 187.612 86.4313 197.656C83.4769 203.515 81.5837 205.303 78.1075 212.251C73.7623 220.936 70.8841 218.522 73.042 214.447C75.2 210.373 78.2683 205.38 81.7401 198.905C85.212 192.429 87.1715 186.087 93.2351 181.365C99.2988 176.643 212.775 79.314 220.094 73.2635C227.413 67.2129 228.125 71.8741 224.58 75.7655C221.034 79.657 206.587 92.1985 178.978 115.417C151.369 138.635 116.822 168.785 104.13 178.734Z" fill="white"/>
<path fill-rule="evenodd" clip-rule="evenodd" d="M173.459 112.513L220.743 71.9978C224.958 68.3973 233.25 71.7081 236.879 73.8409C238.584 74.8429 240.673 77.8086 241.961 81.3753L241.883 81.4081C229.796 92.1938 222.85 96.9846 216.616 101.285C211.715 104.665 207.254 107.742 201.082 113.188C189.88 123.073 179.462 133.504 171.766 141.208C167.926 145.053 164.764 148.219 162.521 150.299C154.53 157.711 140.648 168.623 128.38 178.267C119.313 185.394 111.128 191.828 106.852 195.644C103.5 180.851 90.1607 180.707 85.735 182.567C81.3093 184.427 82.4293 187.092 84.6422 186.162C89.7318 184.023 104.377 187.277 102.662 200.542C96.7127 199.321 89.1004 205.861 80.1591 213.543C79.6789 213.955 79.1949 214.371 78.707 214.789C75.8358 217.25 77.8837 220.884 80.4804 219.009C95.9158 207.863 101.046 207.092 103.704 206.693C104.658 206.55 105.294 206.454 105.973 205.944C106.733 205.375 107.007 204.649 107.314 203.836C107.648 202.954 108.02 201.97 109.092 200.975C117.238 193.421 126.125 186.082 135.724 178.155C144.891 170.585 154.709 162.478 165.149 153.134C171.987 147.015 177.21 141.612 182.3 136.346C188.68 129.745 194.851 123.361 203.732 116.054C218.33 104.043 232.551 93.3045 243.128 88.7275C242.925 91.6791 241.759 94.4556 239.061 96.404C215.691 113.281 201.174 125.78 181.112 143.096C175.127 147.44 174.836 152.964 181.205 147.674L231.331 106.487C238.543 108.16 245.566 104.425 246.818 95.0132L312.193 34.3517C322.695 23.4058 315.617 14.6192 307.472 10.7252C299.326 6.8313 291.592 8.25188 282.311 15.2878L276.641 19.7613C274.083 22.2903 271.725 21.7021 268.513 20.9007C267.106 20.5496 265.534 20.1575 263.71 19.9687C260.273 19.8453 258.08 20.822 253.309 24.3393C248.672 27.7585 243.691 31.5264 238.981 35.0898C230.288 41.6666 222.515 47.547 219.517 49.2542C214.265 52.2452 217.662 54.4765 222.411 56.1395C225.464 57.2086 228.392 55.1939 228.617 51.702C228.79 49.016 229.791 47.6807 232.213 46.0095C241.902 39.3249 249.453 33.1309 253.848 29.3394C260.345 23.7345 264.83 22.634 269.41 26.7196C251.583 39.438 239.252 50.3688 225.397 63.247C214.493 62.0802 206.588 71.1512 205.754 79.0802L169.659 109.667C165.444 113.267 170.257 115.426 173.459 112.513ZM74.9134 221.872C76.39 217.331 71.9505 216.061 67.421 219.532C65.2546 221.192 63.6042 224.795 65.3634 226.407C67.709 228.558 73.4472 224.578 74.9134 221.872Z" fill="#293166"/>
<path d="M66.924 225.303C43.5708 224.678 17.0396 200.056 36.048 200.565C55.0565 201.074 57.0015 230.664 35.4243 224.46C13.8472 218.256 -14.4234 197.807 8.3867 198.418C31.1968 199.029 29.3402 228.517 7.763 222.313C-13.8142 216.109 -51.6482 195.404 -25.2854 197.517C1.07746 199.629 2.59996 232.724 -25.9091 221.411C-54.4181 210.099 -82.6704 188.947 -63.1739 191.579C-43.6773 194.211 -27.4833 219.259 -56.1942 215.677" stroke="#060C32" stroke-width="2"/>
</g>
</svg>
