<svg width="40" height="41" viewBox="0 0 40 41" fill="none" xmlns="http://www.w3.org/2000/svg">
<g clip-path="url(#clip0_6193_2238)">
<path d="M20 40.541C31.0457 40.541 40 31.5867 40 20.541C40 9.49532 31.0457 0.541016 20 0.541016C8.9543 0.541016 0 9.49532 0 20.541C0 31.5867 8.9543 40.541 20 40.541Z" fill="#0088CC"/>
<path fill-rule="evenodd" clip-rule="evenodd" d="M13.5456 11.6523C13.3618 11.6523 13.188 11.7362 13.0733 11.8803L7.90994 18.3578C7.71726 18.5996 7.73663 18.948 7.95464 19.1668L19.5718 30.8263C19.8079 31.0635 20.191 31.0635 20.4274 30.8263L32.0445 19.1668C32.2628 18.948 32.2817 18.5996 32.089 18.3578L26.9262 11.8803C26.8112 11.7362 26.6374 11.6523 26.4534 11.6523H19.9996H13.5456ZM14.992 18.13L13.3407 13.489L9.6414 18.13H14.992ZM18.5249 28.0579L9.84327 19.3445H15.4243L18.5249 28.0579ZM19.9996 28.5915L16.7093 19.3445H19.9996H23.2899L19.9996 28.5915ZM21.4743 28.0579L24.5747 19.3445H30.1562L21.4743 28.0579ZM25.0075 18.13H30.3578L26.6587 13.489L25.0075 18.13ZM21.1078 12.8669H25.595L23.9924 17.3704L21.1078 12.8669ZM19.9996 13.3826L23.0404 18.13H19.9996H16.9588L19.9996 13.3826ZM18.8911 12.8669L16.0068 17.3704L14.4042 12.8669H18.8911Z" fill="white"/>
</g>
<defs>
<clipPath id="clip0_6193_2238">
<rect width="40" height="40" fill="white" transform="translate(0 0.541016)"/>
</clipPath>
</defs>
</svg>
