<svg width="40" height="40" viewBox="0 0 40 40" fill="none" xmlns="http://www.w3.org/2000/svg">
<path d="M20 40C31.0457 40 40 31.0457 40 20C40 8.9543 31.0457 0 20 0C8.9543 0 0 8.9543 0 20C0 31.0457 8.9543 40 20 40Z" fill="white"/>
<path d="M27.8288 10.1017C27.1959 9.99914 26.5475 10.0575 25.9431 10.2714C25.3387 10.4853 24.7979 10.8478 24.3704 11.3255C23.5545 12.24 23.3006 13.4306 23.4966 14.6237C23.6741 15.6996 23.9095 16.7916 23.9625 17.8281C24.0366 19.3893 23.799 20.9495 23.2636 22.4179C22.7793 23.7551 22.0854 24.7855 20.6052 25.0135C20.4955 25.0307 20.0962 25.0431 19.9828 25.0492C19.8694 25.0554 19.5107 25.032 19.3998 25.0147C17.9208 24.7867 17.2245 23.7564 16.7413 22.4191C16.206 20.9508 15.9684 19.3905 16.0425 17.8293C16.0955 16.7965 16.3309 15.7033 16.5084 14.6249C16.7044 13.4318 16.4505 12.2413 15.6346 11.3268C15.2071 10.849 14.6663 10.4865 14.0619 10.2726C13.4575 10.0587 12.8091 10.0004 12.1762 10.1029C10.277 10.4147 9.01367 12.0971 9.00011 13.8657C8.99482 14.5462 9.17965 15.2146 9.53378 15.7957C10.1241 16.7694 11.0929 17.4793 11.9384 18.2163C12.4979 18.7093 13.4654 20.1082 13.9399 21.6242C14.2271 22.5424 14.4612 23.4729 14.693 24.412C15.0183 25.7209 15.4657 28.6123 15.7603 29.9249C16.3482 32.5526 18.1476 33.1479 19.9507 33.2083H20.0148C21.8179 33.1479 23.6469 32.5514 24.2348 29.9237C24.5282 28.6111 24.9743 25.7185 25.3022 24.4108C25.5351 23.4766 25.7681 22.5411 26.0552 21.6229C26.5297 20.107 27.4972 18.7032 28.0568 18.2151C28.9023 17.4756 29.8698 16.7682 30.4614 15.7945C30.817 15.2143 31.0035 14.5462 30.9999 13.8657C30.9889 12.0946 29.7256 10.4147 27.8288 10.1017Z" fill="black"/>
</svg>
