<svg width="24" height="24" viewBox="0 0 24 24" fill="none" xmlns="http://www.w3.org/2000/svg">
<path d="M16 6H20C20.5304 6 21.0391 6.21071 21.4142 6.58579C21.7893 6.96086 22 7.46957 22 8V19C22 19.5304 21.7893 20.0391 21.4142 20.4142C21.0391 20.7893 20.5304 21 20 21H4C3.46957 21 2.96086 20.7893 2.58579 20.4142C2.21071 20.0391 2 19.5304 2 19V6M16 6H2M16 6V5C16 5 16 4.17157 16 3.58579C16 3 15 3 15 3H4C3.46957 3 2.96086 3.21071 2.58579 3.58579C2.21071 3.96086 2 4.46957 2 5V6" stroke="#2B63F1" stroke-width="2" stroke-linecap="round" stroke-linejoin="round"/>
<circle cx="17" cy="14" r="2" fill="#2B63F1"/>
</svg>
