<svg width="231" height="236" viewBox="0 0 231 236" fill="none" xmlns="http://www.w3.org/2000/svg">
<path d="M182.721 211.973L195.736 232.568L194.823 233.254L196.421 236L228.387 215.863L226.789 213.117L225.875 213.574C222.222 212.43 212.404 213.346 205.782 215.176L203.727 211.973L204.412 211.057L203.499 211.515L201.672 208.082C201.901 207.93 202.357 207.35 202.357 206.252C202.357 204.879 201.444 203.048 200.531 203.048C199.8 203.048 199.617 203.963 199.617 204.421L198.476 203.048L200.987 201.675L199.617 198.929C206.696 187.487 207.381 160.256 203.727 149.272L204.641 148.815L203.727 146.069L202.814 146.297C201.17 139.707 192.996 123.414 181.351 119.066L195.964 90.4619C198.476 85.8853 196.878 84.5123 193.681 84.5123C190.758 84.5123 173.436 84.8174 165.14 84.9699C161.258 69.4092 156.006 67.1209 149.385 67.1209C143.677 67.1209 138.197 69.8669 132.945 78.3338L119.93 99.3865L113.994 94.8098L111.025 84.9699L111.71 84.5123C109.884 65.7479 100.75 51.5602 85.6806 50.6449V47.2124C89.5622 46.297 93.4438 42.8645 93.4438 37.3725C93.4438 34.9927 92.5305 23.5662 92.0738 18.1505C92.0738 18.1505 96.4121 16.5487 96.4121 12.6585C96.4121 6.02233 88.1922 8.99716 88.1922 6.70883C88.1922 6.25116 89.3339 5.86977 89.1055 5.79349C87.0506 5.10699 86.3656 1.90332 82.0273 1.90332C78.374 1.90332 77.4607 4.87816 76.0907 4.87816C75.5427 4.87816 74.4924 4.19166 72.8941 4.19166C69.9258 4.19166 66.7291 5.79349 66.7291 7.39533C66.7291 8.08183 64.6742 10.1413 64.6742 11.2855C64.6742 11.972 65.1308 11.972 65.1308 12.4297C65.1308 13.1162 63.3042 14.4892 63.3042 17.0063C63.3042 18.837 63.9892 19.9812 63.9892 21.8118C63.9892 23.4137 65.8158 25.4732 65.5875 27.3039C62.2995 27.3039 61.0209 27.9904 61.0209 30.2787C61.0209 34.3062 62.3909 35.7707 65.8158 35.7707L66.0442 49.5009C56.6826 50.6449 45.4944 52.4756 43.896 66.8922C6.4499 76.2744 0.741636 123.414 0.056592 142.865C-0.510469 158.966 3.32933 181.614 5.07986 190.92C6.90651 202.27 13.5281 208.311 22.433 208.311H176.099L179.981 213.575L182.721 211.973Z" fill="white"/>
<path d="M103.301 206.252C114.809 206.252 156.959 207.167 176.595 207.625L140.976 156.595H121.568C129.788 165.519 138.693 186.572 138.693 195.497C138.693 196.183 138.008 196.183 138.008 195.497C135.039 174.444 116.316 150.416 102.616 140.348C88.9165 130.279 78.4133 127.075 74.76 127.075C71.8374 127.075 65.3224 127.228 62.4302 127.304C55.5803 127.304 48.502 123.414 46.4471 115.863C37.0855 121.355 33.2039 128.906 29.3223 135.771C29.0939 132.339 37.9988 119.066 46.2187 113.803C46.0665 113.345 45.7621 111.835 45.7621 109.455C45.7621 107.075 45.6098 97.1744 45.5337 92.5215C43.7071 90.462 35.4872 87.9448 31.3772 87.716C37.4052 87.1668 43.3265 89.6229 45.5337 90.9196V86.343C41.6521 86.343 41.1955 85.8853 41.4238 84.7411C41.6065 83.8258 41.9566 81.3086 42.1088 80.1645C41.1955 79.5319 39.1405 78.2344 38.2272 78.105C39.3232 78.105 41.4238 78.8677 42.3371 79.2491L44.8487 67.5786C30.0073 69.867 2.83594 89.3178 2.83594 145.611C2.83594 162.773 5.72812 178.029 7.17422 190.005C8.77253 198.7 11.5125 207.854 23.614 207.854C32.5189 207.854 88.9165 206.252 103.301 206.252Z" fill="#F7E3DC"/>
<path d="M183.368 123.342H182.455L184.053 130.207C185.423 128.376 186.565 128.834 186.565 130.893C186.565 132.541 185.652 133.715 185.195 134.097L187.25 140.733C195.835 140.55 203.461 142.335 206.201 143.25C204.375 136.385 196.84 123.799 185.88 117.85L183.368 123.342Z" fill="#F7E3DC"/>
<path d="M204.147 196.568C210.083 186.957 211.682 159.268 207.572 147.826L182.684 156.293L204.147 196.568Z" fill="#F7E3DC"/>
<path fill-rule="evenodd" clip-rule="evenodd" d="M197.638 230.664L184.623 210.069L181.883 211.671L178.002 206.408H24.3353C15.4304 206.408 8.80885 200.367 6.98221 189.017C5.23167 179.711 1.39187 157.063 1.95894 140.962C2.64398 121.511 8.35224 74.3711 45.7983 64.9889C47.3967 50.5723 58.5849 48.7416 67.9465 47.5976L67.7182 33.8674C64.2932 33.8674 62.9232 32.4028 62.9232 28.3754C62.9232 26.087 64.2019 25.4005 67.4898 25.4005C67.6146 24.3997 67.1253 23.3306 66.656 22.3052C66.2669 21.4549 65.8915 20.6347 65.8915 19.9085C65.8915 18.9932 65.7203 18.2495 65.549 17.5058C65.3778 16.7621 65.2065 16.0184 65.2065 15.103C65.2065 13.4494 65.9948 12.2896 66.5357 11.4938C66.8182 11.0782 67.0332 10.7619 67.0332 10.5263C67.0332 10.3206 66.9409 10.2074 66.8393 10.0827C66.7149 9.92998 66.5765 9.76011 66.5765 9.38218C66.5765 8.73743 67.229 7.80203 67.7987 6.98543C68.24 6.3529 68.6315 5.79166 68.6315 5.49201C68.6315 3.89017 71.8281 2.28834 74.7964 2.28834C75.8045 2.28834 76.5945 2.56142 77.1781 2.76311C77.5198 2.88121 77.7907 2.97484 77.993 2.97484C78.5133 2.97484 78.9678 2.54573 79.5315 2.01346C80.452 1.14428 81.6638 0 83.9296 0C86.7023 0 87.9827 1.30859 89.0822 2.43231C89.7031 3.06684 90.2663 3.64242 91.0079 3.89017C91.1008 3.92121 90.9669 4.00275 90.7754 4.11939C90.4962 4.28942 90.0945 4.53405 90.0945 4.80551C90.0945 5.65212 91.2197 5.77833 92.6374 5.93736C95.0516 6.20817 98.3144 6.57418 98.3144 10.7552C98.3144 14.6454 93.9762 16.2472 93.9762 16.2472C94.4328 21.6629 95.3461 33.0893 95.3461 35.4692C95.3461 40.9612 91.4645 44.3937 87.5829 45.3091V48.7416C102.653 49.6569 111.786 63.8446 113.613 82.6089L112.928 83.0666L115.896 92.9065L121.832 97.4831L134.847 76.4304C140.099 67.9636 145.579 65.2176 151.287 65.2176C157.909 65.2176 163.16 67.5059 167.042 83.0666C175.338 82.9141 192.661 82.6089 195.583 82.6089C198.78 82.6089 200.378 83.9819 197.867 88.5586L183.253 117.163C194.898 121.511 203.072 137.804 204.716 144.394L205.63 144.165L206.543 146.911L205.63 147.369C209.283 158.353 208.598 185.584 201.52 197.026L202.89 199.772L200.378 201.145L201.52 202.518C201.52 202.06 201.702 201.145 202.433 201.145C203.346 201.145 204.26 202.975 204.26 204.348C204.26 205.447 203.803 206.027 203.575 206.179L205.401 209.612L206.315 209.154L205.63 210.069L207.685 213.273C214.306 211.442 224.125 210.527 227.778 211.671L228.691 211.213L230.289 213.959L198.323 234.097L196.725 231.351L197.638 230.664ZM86.9345 14.0567C85.7787 13.5274 84.7216 13.0432 83.7021 13.0432C82.8106 13.0432 81.9625 13.4794 81.0943 13.9259C80.1836 14.3942 79.2508 14.8739 78.2222 14.8739C77.3152 14.8739 76.5292 14.1279 75.6668 13.3094C74.6186 12.3146 73.4574 11.2126 71.8289 11.2126C71.8289 11.6957 71.6381 11.9749 71.4578 12.2385C71.2966 12.4742 71.1439 12.6975 71.1439 13.0432C71.1439 13.3168 71.2395 13.5456 71.3593 13.8323C71.5601 14.3131 71.8289 14.9567 71.8289 16.2469C71.8289 18.5105 70.7367 19.8784 69.9927 20.8101C69.6086 21.2913 69.3173 21.656 69.3173 21.9678C69.3173 23.4713 69.3988 24.3216 69.4644 25.0065C69.5086 25.4683 69.5456 25.8548 69.5456 26.3156C69.5456 27.0021 69.226 28.3751 67.9473 28.3751C67.9473 28.3751 68.5154 27.5965 68.5154 25.6933C68.5154 24.7202 68.0899 23.6502 67.686 22.6346L67.6859 22.6345C67.4492 22.0393 67.2199 21.4627 67.088 20.9352C66.7377 19.534 66.9032 18.9065 67.0149 18.4831C67.0549 18.3314 67.088 18.2059 67.088 18.0804C67.088 17.7084 66.9426 17.5545 66.7654 17.3671C66.4894 17.0751 66.1364 16.7017 66.1364 15.2953C66.1364 12.986 67.0882 11.8949 68.0398 10.9433C68.459 10.5241 68.2319 10.3819 67.9607 10.2121C67.6161 9.99629 67.2004 9.73592 67.9473 8.80668C69.7657 6.80528 69.7211 6.67514 69.6694 6.52448C69.629 6.40685 69.5844 6.2767 70.4188 5.23362C72.5539 2.74269 74.9551 3.44535 76.707 3.95798C77.2975 4.13079 77.8143 4.28201 78.2222 4.28201C79.0025 4.28201 79.8713 3.61791 80.7708 2.93031C81.7363 2.19228 82.7372 1.42717 83.7021 1.42717C85.1933 1.42717 88.1561 3.3304 89.4511 4.28201C88.9753 4.44061 88.1188 5.0433 88.4995 6.18524C88.6838 6.73816 90.0104 7.00551 91.5667 7.31915C94.0281 7.81519 97.064 8.42701 97.064 10.4675C97.064 13.132 94.2449 14.7962 92.8353 15.2953C90.5293 15.7031 88.6262 14.8315 86.9345 14.0567ZM177.546 205.722C157.91 205.264 115.76 204.349 104.252 204.349C96.2017 204.349 74.9919 204.85 56.3128 205.292C41.6161 205.64 28.4862 205.95 24.565 205.95C12.4635 205.95 9.72354 196.797 8.12523 188.101C7.78135 185.254 7.3557 182.22 6.90661 179.02C5.46717 168.762 3.78695 156.789 3.78695 143.708C3.78695 87.4145 30.9583 67.9636 45.7998 65.6753L43.2881 77.3458C42.3748 76.9644 40.2742 76.2017 39.1782 76.2017C40.0915 76.3311 42.1465 77.6286 43.0598 78.2612C42.9076 79.4053 42.5575 81.9225 42.3748 82.8378C42.1465 83.982 42.6031 84.4397 46.4848 84.4397V89.0163C44.2776 87.7196 38.3562 85.2635 32.3283 85.8127C36.4382 86.0415 44.6581 88.5587 46.4848 90.6182C46.5609 95.2711 46.7131 105.172 46.7131 107.552C46.7131 109.932 47.0175 111.442 47.1697 111.9C38.9498 117.163 30.045 130.435 30.2733 133.868C30.4864 133.491 30.6996 133.112 30.9136 132.731L30.9138 132.731L30.9139 132.731L30.9141 132.73L30.9142 132.73C34.5981 126.179 38.551 119.149 47.3981 113.959C49.453 121.511 56.5313 125.401 63.3812 125.401C66.2734 125.325 72.7884 125.172 75.7111 125.172C79.3643 125.172 89.8675 128.376 103.567 138.444C117.267 148.513 135.99 172.541 138.959 193.593C138.959 194.28 139.644 194.28 139.644 193.593C139.644 184.669 130.739 163.616 122.519 154.692H141.927L177.546 205.722ZM124.117 118.764L122.747 121.968H179.601C185.081 111.366 196.269 89.6569 197.182 87.6431C198.324 85.126 198.096 84.2106 196.041 84.2106C194.397 84.2106 172.979 83.9055 162.476 83.753C156.996 83.753 155.626 84.8971 153.8 89.245L142.383 115.103C141.104 117.849 140.328 118.764 137.131 118.764H124.117ZM178.687 126.316L165.215 130.206C165.976 130.893 167.909 133.227 169.553 137.071C171.197 140.916 175.87 149.352 178.002 153.09L203.118 144.623C201.063 144.013 196.542 142.792 194.898 142.792C195.263 143.708 195.05 144.394 194.898 144.623L193.756 142.792L189.875 142.335C189.722 142.792 189.464 143.845 189.646 144.394C189.19 144.623 188.733 143.708 188.961 142.335H185.765C185.384 142.869 184.623 144.074 184.623 144.623C183.71 144.623 184.395 142.945 184.851 142.106H183.253L182.34 138.902C182.035 139.055 181.381 139.451 181.198 139.817C180.97 140.275 180.741 138.673 182.34 138.216C182.157 137.483 181.503 135.775 181.198 135.012C179.524 135.622 176.129 136.385 175.947 134.554C175.764 132.724 179.372 133.486 181.198 134.097L178.687 126.316ZM180.97 134.554C180.209 134.401 178.595 134.096 178.23 134.096C176.86 134.096 175.947 135.012 178.23 135.012C178.961 135.012 180.361 134.707 180.97 134.554ZM182.34 133.41C182.112 132.952 181.655 131.854 181.655 131.122C181.655 130.206 183.025 129.062 183.025 131.122C183.025 132.495 182.569 133.334 182.34 133.41ZM180.514 123.341H179.601L181.199 130.206C182.569 128.376 183.711 128.833 183.711 130.893C183.711 132.541 182.798 133.715 182.341 134.097L184.396 140.733C192.981 140.55 200.607 142.335 203.347 143.25C201.521 136.385 193.986 123.799 183.026 117.849L180.514 123.341ZM199.465 201.831L201.749 205.721C200.455 205.721 197.867 205.95 197.867 206.866C197.867 208.01 199.694 208.239 202.434 207.323L204.26 210.069L203.575 211.442L204.717 210.756L206.772 214.417H207.228V216.019L208.142 214.417L211.795 213.502L212.48 215.332V213.502L216.818 212.815L217.732 214.646V212.586C219.178 212.434 222.846 212.174 225.952 212.358C226.5 212.358 225.875 212.815 225.495 213.044L198.552 230.207L185.537 209.612L199.465 201.831ZM202.206 206.637C201.901 206.484 201.018 206.225 199.922 206.408C198.552 206.637 197.867 208.01 202.206 206.637ZM203.347 205.95C203.727 205.34 203.985 204.025 203.347 202.746C202.433 200.916 201.063 202.06 203.347 205.95ZM204.718 147.826C208.828 159.268 207.23 186.957 201.293 196.568L179.83 156.293L204.718 147.826ZM118.865 102.289L116.353 94.0508L121.148 98.6274L118.865 102.289ZM171.837 97.9409C173.435 97.9409 174.12 99.2768 174.12 100C174.12 101.145 172.978 102.746 170.695 102.746C169.934 102.67 168.503 102.151 168.868 100.687C169.325 98.8563 170.695 97.9409 171.837 97.9409ZM47.3971 62.7004C45.5704 72.2198 44.3527 80.0917 43.9721 82.8377H66.3485L65.6635 109.84L105.85 115.332L107.676 113.959L103.795 106.408L100.141 81.9224L111.33 80.7782C111.147 76.5677 107.676 51.2587 87.5833 49.428C87.2788 52.0977 83.93 57.4372 77.765 57.4372C70.6411 57.4372 68.2513 51.335 67.9468 48.2838C60.1836 49.1992 49.6804 50.801 47.3971 62.7004ZM199.921 219.909C200.678 219.909 201.291 219.294 201.291 218.536C201.291 217.778 200.678 217.163 199.921 217.163C199.165 217.163 198.551 217.778 198.551 218.536C198.551 219.294 199.165 219.909 199.921 219.909ZM182.233 209.355L200.79 198.887L168.435 138.935C161.773 128.468 157.491 124.661 140.838 124.661H80.8864C91.8299 127.516 108.483 136.081 120.854 152.258H141.79L182.233 209.355ZM117.047 108.484L131.797 110.387L136.555 117.049C138.934 117.049 140.362 116.097 141.313 114.194L153.208 86.597C155.112 82.3148 157.966 81.3632 161.773 81.3632H165.104C160.821 68.0405 156.843 67.1194 151.781 66.6132C146.547 66.0897 140.837 68.9922 137.031 75.6535L117.047 108.484Z" fill="#293166"/>
<g style="mix-blend-mode:darken">
<path d="M125.537 121.621L124.168 124.821L182.107 125.278C187.126 115.372 197.619 94.6445 199.443 90.9868C201.268 87.329 199.596 86.4146 198.531 86.4146H164.771C159.297 86.4146 156.711 88.8531 156.103 90.0723L142.417 120.706L125.537 121.621Z" fill="#C5E4F3"/>
</g>
</svg>
