<svg width="48" height="48" viewBox="0 0 48 48" fill="none" xmlns="http://www.w3.org/2000/svg">
<circle cx="24" cy="24" r="24" fill="#2B63F1"/>
<path d="M9.47063 19.2H12.6906C14.2306 19.2 15.3973 19.592 16.1906 20.376C16.984 21.1507 17.3806 22.2613 17.3806 23.708V24.492C17.3806 25.92 16.9793 27.0307 16.1766 27.824C15.374 28.608 14.212 29 12.6906 29H9.47063V19.2ZM11.1506 20.684V27.516H12.6906C13.6613 27.516 14.3893 27.2687 14.8746 26.774C15.3693 26.2793 15.6166 25.5187 15.6166 24.492V23.708C15.6166 22.6907 15.3693 21.9347 14.8746 21.44C14.38 20.936 13.652 20.684 12.6906 20.684H11.1506ZM22.3863 29.126C21.8823 29.126 21.4296 29.0513 21.0283 28.902C20.6269 28.7433 20.2816 28.5193 19.9923 28.23C19.7029 27.9313 19.4789 27.572 19.3203 27.152C19.1709 26.732 19.0963 26.256 19.0963 25.724V25.276C19.0963 24.744 19.1709 24.268 19.3203 23.848C19.4789 23.428 19.7029 23.0733 19.9923 22.784C20.2816 22.4853 20.6269 22.2613 21.0283 22.112C21.4296 21.9533 21.8823 21.874 22.3863 21.874C23.4036 21.874 24.2063 22.1867 24.7943 22.812C25.3823 23.4373 25.6763 24.3333 25.6763 25.5V26.046H20.7203C20.7669 26.634 20.9303 27.0587 21.2103 27.32C21.4903 27.572 21.8823 27.698 22.3863 27.698C22.8809 27.698 23.2403 27.614 23.4643 27.446C23.6976 27.2687 23.8516 27.0633 23.9263 26.83H25.6063C25.5316 27.1567 25.4149 27.46 25.2563 27.74C25.0976 28.02 24.8876 28.2627 24.6263 28.468C24.3649 28.6733 24.0476 28.8367 23.6743 28.958C23.3009 29.07 22.8716 29.126 22.3863 29.126ZM22.3863 23.302C21.9103 23.302 21.5369 23.4187 21.2663 23.652C20.9956 23.8853 20.8229 24.254 20.7483 24.758H24.0243C23.9589 24.2353 23.7863 23.862 23.5063 23.638C23.2356 23.414 22.8623 23.302 22.3863 23.302ZM27.7468 19.2H34.0468V20.684H29.4268V23.358H33.2068V24.842H29.4268V29H27.7468V19.2ZM35.9073 22H37.5313V29H35.9073V22ZM36.7193 21.16C36.4207 21.16 36.1687 21.062 35.9633 20.866C35.7673 20.6607 35.6693 20.4087 35.6693 20.11C35.6693 19.8113 35.7673 19.564 35.9633 19.368C36.1687 19.1627 36.4207 19.06 36.7193 19.06C37.0087 19.06 37.256 19.1627 37.4613 19.368C37.6667 19.564 37.7693 19.8113 37.7693 20.11C37.7693 20.4087 37.6667 20.6607 37.4613 20.866C37.256 21.062 37.0087 21.16 36.7193 21.16Z" fill="white"/>
</svg>
