<svg width="64" height="64" viewBox="0 0 64 64" fill="none" xmlns="http://www.w3.org/2000/svg">
<path d="M64 32C64 14.3269 49.6732 0 32 0C14.3269 0 0 14.3269 0 32C0 49.6732 14.3269 64 32 64C49.6732 64 64 49.6732 64 32Z" fill="black"/>
<path fill-rule="evenodd" clip-rule="evenodd" d="M4 31.9974C4 47.4608 16.5316 59.9972 31.9948 60C35.6728 60.0004 39.3148 59.2768 42.7128 57.8696C46.1108 56.4624 49.1984 54.3996 51.7988 51.7988C54.3996 49.1984 56.4624 46.1108 57.8696 42.7128C59.2768 39.3148 60.0004 35.6728 60 31.9948C59.9972 16.5316 47.4608 4 31.9974 4C16.5367 4 4 16.5367 4 31.9974ZM6.21416 31.9948C6.20904 17.7489 17.7489 6.19364 31.9948 6.18344C35.3858 6.18072 38.7438 6.84644 41.8772 8.14248C45.0108 9.43856 47.8576 11.3396 50.256 13.7368C52.6544 16.134 54.556 18.9804 55.8536 22.1132C57.1508 25.2462 57.818 28.604 57.8168 31.9948C57.8164 32.3031 57.8108 32.6102 57.8 32.9159C54.9808 32.5296 51.9884 30.844 49.5664 28.5274C46.7836 25.8656 45 22.6096 45 20H43C43 22.6358 41.69 24.863 39.636 26.4606C37.5712 28.0666 34.7902 29 32 29C29.2098 29 26.4288 28.0666 24.364 26.4606C22.31 24.863 21 22.6358 21 20H19C19 22.6096 17.2166 25.8656 14.4338 28.5274C12.0205 30.8356 9.04088 32.5174 6.23048 32.9117C6.21976 32.6074 6.21428 32.3017 6.21416 31.9948ZM6.37812 34.9101C6.49668 35.9605 6.67828 36.9917 6.91908 38H13.4V31.9682C11.2496 33.4915 8.81412 34.5973 6.37812 34.9101ZM8.23012 42C10.2518 46.7948 13.6811 50.8508 18 53.6504V42H8.23012ZM22 55.7696C25.0796 57.068 28.4639 57.786 32.0154 57.786C35.5553 57.786 38.9288 57.0728 42 55.7828V42H32.6H31.4H22V55.7696ZM46 53.6712C50.334 50.8708 53.7748 46.8068 55.8008 42H46V53.6712ZM57.112 38C57.3524 36.993 57.5336 35.963 57.6524 34.914C55.206 34.6064 52.7592 33.4978 50.6 31.9682V38H57.112ZM14.6 38V31.0514C15.0208 30.7056 15.4271 30.3448 15.8162 29.9726C16.6066 29.2165 17.3438 28.3962 18 27.5354V38H14.6ZM22 38V27.0367C22.3557 27.3934 22.7357 27.728 23.136 28.0394C23.8327 28.5813 24.5936 29.0554 25.4 29.4562V38H22ZM26.6 38V29.9857C28.118 30.5751 29.7537 30.9199 31.4 30.9876V38H26.6ZM32.6 38V30.9876C34.2463 30.9199 35.882 30.5751 37.4 29.9857V38H32.6ZM38.6 38V29.4562C39.4064 29.0554 40.1672 28.5813 40.864 28.0394C41.2644 27.728 41.6444 27.3934 42 27.0367V38H38.6ZM46 38V27.5354C46.656 28.3962 47.3932 29.2165 48.1836 29.9726C48.5728 30.3448 48.9792 30.7056 49.4 31.0514V38H46Z" fill="white"/>
</svg>
