<svg width="64" height="64" viewBox="0 0 64 64" fill="none" xmlns="http://www.w3.org/2000/svg">
<path d="M32 64C49.6731 64 64 49.6731 64 32C64 14.3269 49.6731 0 32 0C14.3269 0 0 14.3269 0 32C0 49.6731 14.3269 64 32 64Z" fill="#F7931A"/>
<path d="M46.064 28.04C46.692 23.848 43.498 21.594 39.134 20.09L40.55 14.41L37.094 13.55L35.714 19.08C34.806 18.852 33.874 18.64 32.944 18.428L34.334 12.862L30.878 12L29.462 17.678C28.71 17.506 27.97 17.338 27.254 17.158L27.258 17.14L22.49 15.95L21.57 19.642C21.57 19.642 24.136 20.23 24.082 20.266C25.482 20.616 25.734 21.542 25.692 22.278L24.08 28.748C24.176 28.772 24.3 28.808 24.44 28.862L24.074 28.772L21.814 37.836C21.642 38.26 21.208 38.898 20.228 38.656C20.264 38.706 17.716 38.03 17.716 38.03L16 41.986L20.5 43.108C21.336 43.318 22.156 43.538 22.962 43.744L21.532 49.488L24.986 50.348L26.402 44.668C27.346 44.922 28.262 45.158 29.158 45.382L27.746 51.038L31.202 51.898L32.632 46.166C38.528 47.282 42.96 46.832 44.826 41.5C46.33 37.208 44.752 34.73 41.65 33.116C43.91 32.596 45.61 31.11 46.064 28.04V28.04ZM38.164 39.116C37.098 43.41 29.868 41.088 27.524 40.506L29.424 32.896C31.768 33.482 39.282 34.64 38.164 39.116ZM39.234 27.978C38.26 31.884 32.244 29.898 30.294 29.412L32.014 22.512C33.964 22.998 40.25 23.904 39.234 27.978Z" fill="white"/>
</svg>
