<svg width="64" height="64" viewBox="0 0 64 64" fill="none" xmlns="http://www.w3.org/2000/svg">
<path d="M32 64C49.6731 64 64 49.6731 64 32C64 14.3269 49.6731 0 32 0C14.3269 0 0 14.3269 0 32C0 49.6731 14.3269 64 32 64Z" fill="#F4B731"/>
<path fill-rule="evenodd" clip-rule="evenodd" d="M18.554 16H31.658C39.628 16 45.67 20.232 47.918 26.388H52V30.11H48.778C48.84 30.698 48.872 31.298 48.872 31.906V31.998C48.872 32.682 48.832 33.358 48.752 34.018H52V37.738H47.84C45.534 43.81 39.54 48 31.66 48H18.554V37.738H14V34.018H18.554V30.11H14V26.39H18.554V16V16ZM22.216 37.738V44.662H31.656C37.484 44.662 41.812 41.888 43.826 37.738H22.216V37.738ZM44.948 34.018H22.216V30.11H44.956C45.038 30.724 45.082 31.354 45.082 31.998V32.088C45.082 32.746 45.036 33.388 44.948 34.016V34.018ZM31.66 19.33C37.512 19.33 41.854 22.178 43.856 26.386H22.216V19.332H31.656L31.66 19.33Z" fill="white"/>
</svg>
