<svg width="64" height="64" viewBox="0 0 64 64" fill="none" xmlns="http://www.w3.org/2000/svg">
<defs>
<clipPath id="clip0_9683_35418">
<rect width="64" height="64" fill="white"/>
</clipPath>
</defs>
<g clip-path="url(#clip0_9683_35418)">
<path d="M32 64C49.6731 64 64 49.6731 64 32C64 14.3269 49.6731 0 32 0C14.3269 0 0 14.3269 0 32C0 49.6731 14.3269 64 32 64Z" fill="#C3A634"/>
<path d="M32 64C49.6731 64 64 49.6731 64 32C64 14.3269 49.6731 0 32 0C14.3269 0 0 14.3269 0 32C0 49.6731 14.3269 64 32 64Z" fill="#988430"/>
<path d="M32 62.9749C49.107 62.9749 62.9749 49.107 62.9749 32C62.9749 14.893 49.107 1.02502 32 1.02502C14.893 1.02502 1.02502 14.893 1.02502 32C1.02502 49.107 14.893 62.9749 32 62.9749Z" fill="#7A6A2A"/>
<path d="M31.9999 62.3223C48.7465 62.3223 62.3223 48.7466 62.3223 32C62.3223 15.2534 48.7465 1.67767 31.9999 1.67767C15.2534 1.67767 1.67761 15.2534 1.67761 32C1.67761 48.7466 15.2534 62.3223 31.9999 62.3223Z" fill="#BA9F33"/>
<path fill-rule="evenodd" clip-rule="evenodd" d="M13.9909 28.5826C13.8096 28.417 13.6181 28.2511 13.442 28.0856C13.2659 27.92 13.085 27.7541 12.9037 27.5886L12.3651 27.0766C12.277 26.9885 12.1838 26.9111 12.0958 26.8227C12.0077 26.7452 11.9043 26.6571 11.8162 26.5793C11.1015 25.9011 10.3826 25.2228 9.67776 24.5443C10.4079 25.2122 11.1226 25.8754 11.8527 26.5533L12.1064 26.8073C12.1944 26.895 12.2876 26.9728 12.3757 27.0609L12.9139 27.5579C13.0952 27.7234 13.2713 27.8893 13.4526 28.0699C13.6338 28.2504 13.8099 28.4167 13.9912 28.5819L13.9909 28.5826ZM4.50486 28.4802C4.50486 28.4802 7.10411 28.7491 8.37285 28.9304C9.54806 29.0963 13.2246 29.6605 13.2246 29.6605L4.50486 28.4802ZM4.50486 28.4802C5.23497 28.5423 5.96508 28.6198 6.69519 28.6976C7.06793 28.7338 7.42531 28.7751 7.78268 28.8113L8.3312 28.8737C8.51245 28.8993 8.68858 28.9253 8.86983 28.9512L11.0448 29.298L12.132 29.4792C12.4893 29.5414 12.8467 29.609 13.2194 29.6711C12.8621 29.6349 12.4893 29.583 12.132 29.5311L11.0448 29.3758L8.86983 29.055C8.68858 29.029 8.51245 28.9925 8.3312 28.9669L7.78234 28.9038C7.42496 28.8676 7.05223 28.8157 6.69485 28.7741C5.96474 28.6863 5.23463 28.5928 4.50452 28.4791L4.50486 28.4802ZM12.9658 30.3377C12.9658 30.3377 10.1904 31.0422 9.25315 31.3115C8.33155 31.5651 5.54046 32.4144 5.54046 32.4144L12.9655 30.338L12.9658 30.3377Z" fill="#CFB66C"/>
<path fill-rule="evenodd" clip-rule="evenodd" d="M12.9656 30.3377C12.3495 30.519 11.7368 30.6951 11.1118 30.861L9.25804 31.358C8.64194 31.5392 8.02924 31.7154 7.41484 31.8966L6.49324 32.1502C6.18775 32.2383 5.87713 32.3158 5.5614 32.4042C5.86655 32.3018 6.17751 32.197 6.483 32.1089L7.4046 31.814C8.02071 31.6222 8.6334 31.4409 9.2478 31.2494C9.87415 31.0941 10.4906 30.9282 11.1169 30.778C11.7122 30.6279 12.3389 30.478 12.9656 30.338V30.3377ZM5.92902 34.1232C6.23417 34.0092 9.75536 32.368 10.5735 31.9847C10.9831 31.7929 12.1737 31.3703 12.1737 31.3703L5.92902 34.1232Z" fill="#CFB66C"/>
<path fill-rule="evenodd" clip-rule="evenodd" d="M5.92893 34.1231C6.1979 34.0207 6.45185 33.8954 6.71058 33.7763L7.47688 33.4189L9.01492 32.6786C9.52692 32.4352 10.0246 32.1666 10.5526 31.9379C10.8219 31.8242 11.0913 31.731 11.3602 31.643L11.7698 31.5136C11.9094 31.4774 12.0391 31.4358 12.1794 31.3996C11.6674 31.643 11.1285 31.8502 10.6158 32.0881C10.1038 32.342 9.58017 32.5492 9.05179 32.7769L7.48814 33.4653C6.96317 33.678 6.45117 33.9057 5.92859 34.1231H5.92893ZM6.27026 35.5567C6.27026 35.5567 9.45968 33.6876 10.5574 33.0868C11.1322 32.766 12.9911 31.844 12.9911 31.844L6.27026 35.5567Z" fill="#CFB66C"/>
<path fill-rule="evenodd" clip-rule="evenodd" d="M6.27063 35.5574C6.80891 35.226 7.35778 34.8894 7.90664 34.5477L8.72584 34.0504C9.00539 33.8849 9.2747 33.7296 9.55972 33.564C9.83927 33.3981 10.1086 33.2326 10.3933 33.0773C10.5288 32.9936 10.6708 32.9209 10.8179 32.8598L11.2527 32.6424C11.8275 32.3629 12.4023 32.0778 13.0082 31.8345C12.4593 32.1816 11.8948 32.4769 11.3306 32.782C11.051 32.9373 10.766 33.0773 10.4864 33.2326C10.2069 33.3879 9.93757 33.5538 9.65256 33.704C9.37301 33.8695 9.1037 34.0248 8.81902 34.175L7.97491 34.6358L6.27131 35.5574H6.27063ZM12.9655 32.2536C12.9655 32.2536 10.9824 33.776 10.3403 34.2627C9.6983 34.7495 7.80834 36.1165 7.80834 36.1165L12.9655 32.2536V32.2536Z" fill="#CFB66C"/>
<path fill-rule="evenodd" clip-rule="evenodd" d="M24.3469 44.5307L23.3322 42.6097L23.9223 40.207L28.132 38.5813L26.3403 34.9051L27.2257 31.1924L28.888 27.8678L34.0248 27.0602L37.7992 23.4615L45.9496 24.0777L47.5494 32.7922L44.4685 43.7644L42.7134 49.4449L35.5987 49.7142L32.2952 47.4255L28.4272 45.8097L24.3469 44.5307Z" fill="#E2CC85"/>
<path fill-rule="evenodd" clip-rule="evenodd" d="M36.8261 44.4686C36.8261 44.4686 35.8421 44.9191 34.1637 44.8153C33.678 44.1631 30.2763 43.8576 30.2763 43.8576C30.2763 43.8576 29.8517 43.7282 29.1007 44.0388C28.345 44.346 27.6303 44.3081 26.9623 44.4737C26.2943 44.6392 25.6311 43.7695 25.1191 43.5883C24.6071 43.3968 23.9282 42.936 23.9282 42.936L22.4946 42.796L19.6158 41.5792L15.0423 37.0227L13.7995 38.9683L13.4161 41.3761L14.7989 44.2293L18.5218 47.6208L25.7813 49.464L30.0841 48.1962L35.4745 45.9179L36.8261 44.4682V44.4686Z" fill="#F1D789"/>
<path fill-rule="evenodd" clip-rule="evenodd" d="M11.0342 28.3652L11.9558 25.5744L13.0539 23.7722L16.5901 23.4769L15.5286 26.5735L12.5723 31.8345L13.7994 36.5309L11.6248 37.618L10.9564 36.593L10.4181 34.2422L10.382 31.6013L11.0342 28.3652Z" fill="#F4ECB4"/>
<path fill-rule="evenodd" clip-rule="evenodd" d="M15.0007 44.2771L14.3224 43.3295C14.3224 43.3295 14.1412 42.879 14.245 42.4854C14.3474 42.0868 14.3327 42.0608 14.2811 41.9106C14.2296 41.7604 13.7944 41.2426 13.8203 40.7972C13.8459 40.3466 13.7841 40.1964 14.1152 39.8394C14.462 39.4926 14.3586 38.8919 14.3586 38.8919L14.8092 39.1714L14.9116 39.0161C14.9116 39.0161 15.0771 39.1455 15.0771 39.3476C15.1133 39.068 14.9631 37.7733 15.3048 37.4784C15.6465 37.1835 16.2524 38.8608 16.2524 38.8608L15.8796 36.4271L14.9215 33.9316L13.2179 31.6532L13.1155 29.1417V28.9243C13.1155 28.9243 12.3335 30.1257 12.116 31.0747C11.9607 31.7269 12.3335 32.5192 12.256 33.4565C12.1935 34.3887 12.116 34.316 12.3437 34.6853C12.5714 35.0546 13.1257 35.8141 12.9083 36.3629C12.7168 36.8343 12.0641 36.5029 12.0641 36.5029C12.0641 36.5029 11.9348 36.8859 11.7587 37.0258C11.6965 36.7981 11.6293 36.6531 11.505 36.5138C11.4945 36.6019 11.4689 36.721 11.4689 36.721C11.4689 36.721 11.3549 36.3636 11.2408 35.9131C11.0859 35.3127 10.92 34.5204 10.7698 34.0958C10.7077 34.3392 10.5524 35.0795 10.5524 35.0795L10.6404 36.2189L11.0651 37.7825L11.4747 38.8065L11.8733 40.0596L12.2198 40.9013L12.4994 41.5433L12.7427 42.9882L13.918 44.2307L14.5446 44.5106L15 44.2774L15.0007 44.2771Z" fill="#F3E19D"/>
<path fill-rule="evenodd" clip-rule="evenodd" d="M11.6505 26.0868C11.6505 26.0868 10.8063 27.5204 10.5633 28.9656C10.3203 30.4108 10.1025 31.9379 10.2561 33.9053C10.4114 35.8888 10.7067 37.1053 10.9449 37.9754C11.3545 39.4203 12.4154 41.4293 12.4154 41.4293L12.4516 41.3515C12.2732 41.0135 12.1309 40.6577 12.0269 40.29C11.887 39.7411 11.8351 39.0888 11.7057 38.7936C11.5917 38.4987 11.4003 38.2447 11.3071 37.8822C11.219 37.5354 11.2047 36.9866 10.9343 36.5776C10.8203 36.4117 10.6804 35.9769 10.6391 35.542C10.5872 34.8894 10.665 34.1593 10.6029 33.5589C10.4889 32.5595 10.4114 31.8812 10.5148 31.358C10.6183 30.8347 11.1572 29.3492 11.4887 28.1686C11.7061 27.4125 11.5764 26.7756 11.9751 26.1178C12.3737 25.4655 12.6175 24.8907 12.7052 24.492C12.8076 24.1296 11.6491 26.0868 11.6491 26.0868H11.6505Z" fill="#F2E8B0"/>
<path fill-rule="evenodd" clip-rule="evenodd" d="M15.6532 25.512C15.6532 25.512 15.2184 25.6417 15.0112 25.8693C14.804 26.0868 14.7159 26.268 14.4364 26.6356C14.1568 27.0032 14.1411 27.3036 13.9131 27.7644C13.6854 28.2149 13.183 28.8932 13.1208 29.1365C13.0587 29.3799 12.9553 30.5189 12.8259 31.0575C12.7119 31.5962 12.9553 32.259 12.9553 32.259L13.2502 32.1966C13.2502 32.1966 13.2502 32.5799 13.5455 32.8389C13.8404 33.0925 13.8923 31.9791 13.8923 31.9791L14.9951 28.2562L16.6571 27.1275L16.8384 26.2161L15.6525 25.512H15.6532Z" fill="#F5EEC0"/>
<path fill-rule="evenodd" clip-rule="evenodd" d="M16.4609 27.2002C16.4609 27.2002 15.6789 27.2517 15.2959 27.5316C15.1406 27.6453 15.0785 27.7384 14.9129 27.8784C14.6074 28.132 14.2965 28.3651 14.1466 28.6976C13.9807 29.0287 13.7995 29.5311 13.6752 30.4787C13.6234 30.8773 13.6234 31.245 13.5872 31.5661C13.5353 32.001 13.4578 32.3478 13.4991 32.5901C13.551 33.0871 14.0637 33.3462 14.1135 33.9104L15.1751 33.3721L16.1745 29.4314L18.2976 28.1002L17.0961 26.754L16.4595 27.1978L16.4609 27.2002Z" fill="#E6DB9D"/>
<path fill-rule="evenodd" clip-rule="evenodd" d="M10.8606 53.7357C10.865 53.6968 10.8694 53.6579 10.8739 53.618C11.0288 52.2868 11.0551 51.2778 11.1688 50.646C11.3343 49.7503 11.4483 49.4172 11.4224 49.082C11.3862 48.5437 11.3449 48.1502 11.3968 47.7358C11.4743 47.1869 12.0129 46.5346 11.9976 46.0841C11.987 45.7267 11.8057 45.4939 11.6504 45.2765C11.4951 45.0591 11.3709 44.8778 11.3709 44.8778C11.3709 44.8778 12.4324 44.1477 12.4222 41.2064C12.4438 41.2125 12.4647 41.2212 12.4843 41.2324L13.0072 42.7182L13.3646 43.153L14.7368 45.711L16.5025 47.4252L19.112 49.1803L20.7483 50.961L20.9139 55.7093L18.7754 58.4847L18.4252 59.1189C15.6429 57.7221 13.0915 55.9065 10.8602 53.7354L10.8606 53.7357Z" fill="#E5CB7A"/>
<path fill-rule="evenodd" clip-rule="evenodd" d="M17.3931 58.2782C17.3931 58.2782 17.4292 57.688 17.916 57.3047C17.9938 57.4341 18.0454 57.5587 18.03 57.6515C18.1181 57.4965 18.7342 56.5022 20.1271 56.2432C21.5201 55.9896 21.8567 54.9748 21.8567 54.9748L24.8129 52.2875L28.1942 49.1755L32.3055 47.7307L34.2269 47.2593C34.2269 47.2593 34.263 47.3992 34.1907 47.7098C34.5477 47.6842 35.3399 47.503 36.1632 47.2129C36.4947 47.0835 36.8056 47.0316 36.9712 47.2026C37.2145 47.4303 37.2507 47.9689 37.2661 48.2898C37.6648 48.2017 38.1255 47.8187 38.4949 47.8549C39.0854 47.917 39.6083 48.611 40.209 48.611C41.0013 48.611 41.3583 48.1242 41.9126 47.7409C42.2441 47.5132 42.7202 47.2289 42.9895 47.0367C43.6316 46.5653 50.4251 44.489 50.4251 44.489L52.8069 44.6443L53.1902 47.2023L52.9854 53.889C52.9602 53.9132 52.9349 53.9385 52.9093 53.9627L42.0795 59.619L27.0678 61.9202C23.7051 61.3708 20.46 60.2546 17.4709 58.6192L17.3941 58.2779L17.3931 58.2782Z" fill="#D8C173"/>
<path fill-rule="evenodd" clip-rule="evenodd" d="M11.7709 54.5864C11.9842 54.1403 12.176 53.7672 12.2098 53.6337C12.2365 53.9027 12.2853 54.4929 12.3836 55.1202C12.1772 54.9448 11.9729 54.7667 11.7709 54.586V54.5864Z" fill="#F1D789"/>
<path fill-rule="evenodd" clip-rule="evenodd" d="M22.7369 60.8792L24.6784 60.3393L24.8439 60.3911C24.8439 60.3911 24.932 60.443 24.932 60.6188C25.1754 60.4792 25.3826 60.5048 25.5327 60.412C25.6102 60.5775 25.6877 61.1264 26.0297 61.1936C26.3868 61.2714 26.7701 61.0383 27.1585 60.7434C27.5415 60.4379 27.9777 60.0546 28.3078 59.8993C28.4289 60.122 28.5362 60.3519 28.629 60.5878C29.0638 60.241 29.8199 58.8326 30.8968 58.8582C31.2081 58.1226 31.7281 57.4944 32.3925 57.0512C33.3919 56.3729 34.0183 56.3211 34.8003 56.3832C35.1109 55.9797 35.4936 55.6374 35.9291 55.3735C36.0584 55.4254 36.4158 55.6428 36.8613 55.4356C37.3118 55.2288 37.819 54.426 38.487 54.3225C38.847 54.273 39.213 54.3499 39.5226 54.54C39.5226 54.54 41.4682 52.6084 42.8107 51.9663C42.7588 51.811 42.6554 51.226 44.2293 49.9313C44.3173 50.0091 44.2552 50.2265 44.3173 50.2385C44.3429 50.2385 44.7269 50.0729 45.213 49.6999C45.8138 49.2496 46.5333 48.7782 46.9681 48.6489C47.7873 48.4055 48.6564 48.9025 48.6564 48.9025C48.7303 48.8507 48.8126 48.8121 48.8997 48.7885C49.1066 48.7523 49.2568 48.7264 49.3708 48.6861C49.3605 48.9554 49.5107 49.4162 49.3708 49.8149C49.5329 49.9061 49.7046 49.979 49.8828 50.0323C49.7951 50.2238 49.6032 50.7105 49.2824 50.9437C49.5513 51.073 49.5875 51.2232 49.9708 51.3533C49.8155 51.5707 49.5613 51.9438 49.4479 52.1725C49.3339 52.4159 48.9247 53.4255 48.7434 53.8085C48.5519 54.1918 48.2932 54.896 48.1686 55.0373C48.044 55.1786 47.5938 55.7777 47.247 56.0726C47.5542 55.9586 48.811 55.5756 49.3442 55.4305C49.1854 55.6633 48.3809 56.857 47.6075 58.0049C43.9042 60.2245 39.7703 61.6295 35.4814 62.126C31.1925 62.6225 26.847 62.1992 22.7345 60.8844L22.7369 60.8792Z" fill="#E0CD81"/>
<path fill-rule="evenodd" clip-rule="evenodd" d="M16.5888 27.0602C16.5888 27.0602 16.1386 27.0602 16.0506 27.1223C15.9625 27.1845 16.5011 27.3142 16.6667 27.3763C16.8322 27.4384 17.1896 27.7231 17.2828 27.9511C17.3708 28.1685 20.519 29.4369 20.519 29.4369L22.7455 29.3229L23.5132 28.2624L22.0529 26.9834L23.0769 23.9647L21.7205 24.1821L18.4583 26.1277L16.822 26.7544L16.5888 27.0602Z" fill="#DFC57C"/>
<path fill-rule="evenodd" clip-rule="evenodd" d="M21.4784 28.0596C21.5106 28.1117 21.5559 28.1545 21.6098 28.1835C21.6637 28.2126 21.7244 28.2269 21.7856 28.2252C22.2464 28.2252 22.6707 28.3392 22.8468 28.572C23.142 28.945 23.9602 30.136 23.9602 30.136L25.9174 30.8401L26.0437 28.5354L23.9053 27.0496L21.4716 27.9453V28.0593H21.477L21.4784 28.0596Z" fill="#E5CC7C"/>
<path fill-rule="evenodd" clip-rule="evenodd" d="M21.0944 28.914C21.0944 28.914 21.4515 28.9399 21.902 28.7741C22.3526 28.6082 23.0929 28.2511 23.4141 28.3911C23.8643 28.5826 23.7712 29.1833 24.2582 29.7223C24.5532 30.0537 25.0918 30.0435 25.3973 30.4009C25.7028 30.7582 26.7537 30.5923 26.7537 30.5923L27.1524 32.7427L25.5526 34.7935L25.0293 37.3408H22.8659L20.8896 36.5568L19.9161 34.2016L20.4029 31.8198L21.0944 28.914Z" fill="#D2C281"/>
<path fill-rule="evenodd" clip-rule="evenodd" d="M25.2792 29.0174C25.3328 29.0339 25.3886 29.0427 25.4447 29.0433C25.3826 29.0952 25.2529 29.2089 25.3048 29.5041C25.3567 29.7994 25.5222 30.1721 25.3826 30.3998C25.4941 30.5216 25.5772 30.6666 25.626 30.8244C25.7141 31.0783 25.74 31.3111 26.3145 31.3476C26.2316 31.3987 26.1551 31.4595 26.0868 31.5289C26.0868 31.5289 26.4855 31.8757 26.6875 32.1965C26.8944 32.1876 27.4432 32.017 27.4432 32.017L27.5573 32.0948L27.8006 31.9924C27.8006 31.9924 27.573 31.9043 27.7385 31.3504C27.8938 30.8636 28.0338 30.8896 28.0457 30.8534C28.0577 30.8172 28.1597 30.3045 28.1597 30.0974C28.2372 29.8284 28.2993 29.0102 28.2993 29.0102L28.1338 27.2032L27.2019 26.6387L26.4442 25.9072L25.7294 27.2534L25.2587 27.7227L25.2225 28.8877L25.2792 29.0174Z" fill="#E2C270"/>
<path fill-rule="evenodd" clip-rule="evenodd" d="M27.521 27.5057C27.521 27.5057 27.6865 27.9767 27.749 28.3392C27.771 28.2688 27.7832 28.1956 27.7852 28.1218C27.7852 28.1218 27.9146 28.8365 27.9402 29.1318C27.992 29.1212 28.0426 29.1059 28.0542 29.1574C28.0658 29.2089 28.1839 29.7841 28.1566 30.1049C28.3722 29.7492 28.6705 29.4508 29.0263 29.2352C29.2335 29.1055 29.4768 28.9659 29.7308 28.9553C30.1295 28.9451 30.4193 29.2093 30.8958 29.2093C32.045 29.2093 33.0861 28.3652 33.8524 28.1064C34.4166 27.9146 34.9034 27.775 35.245 27.464C35.4109 27.3244 35.7062 27.0138 35.9751 26.5527C36.3325 25.9383 36.7053 25.4034 37.0783 25.3362C36.9095 25.3672 36.7378 25.3793 36.5663 25.3723C36.5663 25.3723 36.6803 25.2583 36.8735 25.103C37.0667 24.9477 37.2981 24.7562 37.6292 24.7562C38.2197 24.7562 38.5147 24.844 38.8461 24.844C39.1775 24.8337 39.369 24.7562 39.369 24.7562C39.369 24.7562 39.7162 24.9996 40.4978 24.9996C41.2798 25.0099 41.8027 25.0771 42.212 25.1136C42.6212 25.1501 43.9931 24.9996 44.3866 25.0112C44.6432 25.0211 44.8951 25.0828 45.1273 25.1925L43.8586 21.5061L39.3011 17.5227L36.5878 19.4437L32.414 23.6172L28.3754 25.1136L27.5312 26.0612V27.5057H27.521Z" fill="#CCB360"/>
<path fill-rule="evenodd" clip-rule="evenodd" d="M36.5826 25.3928C36.5826 25.3928 36.6966 25.2791 36.8877 25.1238C37.0789 24.9685 37.3127 24.7767 37.6438 24.7767C38.234 24.7767 38.5292 24.8647 38.8607 24.8647C39.1921 24.8545 39.3836 24.7767 39.3836 24.7767C39.3836 24.7767 39.7311 25.0197 40.5124 25.0197C41.2944 25.0299 41.8173 25.0972 42.2266 25.1334C42.6359 25.1695 44.0077 25.0197 44.4013 25.031C44.6578 25.0406 44.9097 25.1023 45.1416 25.2122L44.5668 23.5499L43.8992 22.2815L41.9935 20.1946C41.9935 20.1946 39.7065 18.8484 39.6891 18.8382C39.6789 18.8279 38.8969 18.6207 38.8969 18.6207L36.8256 19.8738L34.9462 24.7361L34.91 25.7601L36.1266 26.3349C36.4321 25.8229 36.769 25.4133 37.0847 25.3614C36.7997 25.3924 36.5822 25.3924 36.5822 25.3924L36.5826 25.3928Z" fill="#D5B457"/>
<path fill-rule="evenodd" clip-rule="evenodd" d="M36.5567 25.74C36.3755 25.7502 36.2256 25.714 36.184 25.5846C36.0287 25.1498 35.9044 25.0877 35.7744 25.0877C35.6443 25.0877 35.4689 25.3672 35.3648 25.3928C35.2607 25.4184 35.1371 25.072 35.1371 25.072L35.0231 25.0201C35.0231 25.0201 34.3551 25.4549 33.8841 25.9676C33.413 26.4803 32.6413 27.3504 32.2945 27.5053C31.9477 27.6603 30.7565 27.7125 30.3489 27.8006C29.9414 27.8886 29.4894 28.1839 29.4273 28.2511C29.3652 28.3184 29.6089 28.3907 29.6451 28.458C29.6813 28.5201 29.2461 28.4942 29.2099 28.5604C29.1843 28.6123 29.3123 28.9072 29.3758 29.0574C29.4869 29.0021 29.6088 28.9721 29.7328 28.9693C30.1315 28.9591 30.4216 29.2233 30.8978 29.2233C32.0474 29.2233 33.0881 28.3791 33.8544 28.1201C34.4189 27.9286 34.9057 27.7886 35.2474 27.478C35.4129 27.3384 35.7082 27.0275 35.9775 26.5667C36.1741 26.2509 36.3659 25.9557 36.5577 25.7382L36.5567 25.74Z" fill="#D2B257"/>
<path fill-rule="evenodd" clip-rule="evenodd" d="M20.0704 51.366C20.0704 51.366 19.968 50.9827 19.0191 49.9938C18.7498 49.7143 18.5842 49.4818 18.403 49.3156C17.9524 48.8906 17.6882 48.7769 17.3674 48.5336C16.6632 48.0106 15.8969 48.0106 15.3068 47.3686C14.7166 46.7265 14.0288 45.4998 13.5509 44.246C13.0799 42.993 12.9502 42.5943 12.9502 42.5581C12.9502 42.5219 13.0799 42.2786 13.2454 42.3148C13.411 42.3509 13.411 42.6718 13.4526 42.7496C13.5351 42.8766 13.6287 42.9961 13.7322 43.1067C13.9756 43.3866 14.3224 43.7211 14.4985 44.2201C14.4623 43.7955 14.3172 43.3244 14.3172 43.3244C14.3172 43.3244 15.2286 43.8992 16.0051 44.4997C16.7871 45.1004 17.108 45.3076 17.3363 45.6906C17.5647 46.0736 18.1026 47.0836 18.3603 47.3788C18.618 47.6741 22.1491 48.7872 22.1491 48.7872L23.8288 50.0396L24.6627 51.8674L24.0101 52.8914L22.757 53.1607L20.722 52.2494L20.0704 51.3656V51.366Z" fill="#D2B159"/>
<path fill-rule="evenodd" clip-rule="evenodd" d="M15.5494 45.0693C15.5494 45.0693 15.9741 45.7476 17.0097 46.3896C17.9418 46.9542 19.4174 47.4669 20.7329 47.7724C21.4886 47.9536 22.2447 48.0932 22.9229 48.1038C24.7508 48.1294 26.0089 47.6068 27.5678 47.4358C28.4119 47.3477 29.4475 47.2805 30.5244 47.0262C31.9068 46.6948 32.725 46.3217 33.8384 45.7974C34.646 45.4247 35.3867 45.1451 35.9871 44.7877C36.8312 44.2908 37.4473 43.7368 38.1621 43.5712C38.074 43.8146 37.9808 44.2495 37.2767 44.7C37.6494 44.6894 38.1621 44.6638 38.1621 44.6638C38.1621 44.6638 37.6651 44.9587 36.7899 45.6216C36.2513 46.0312 35.5369 46.7245 34.8068 47.1853C34.3354 47.4805 33.8227 47.6973 33.4862 47.8741C32.667 48.3246 32.3366 48.5523 31.7983 49.1029C31.9898 49.0926 32.0055 49.1029 32.0055 49.1029C32.0055 49.1029 31.3269 49.1909 30.8405 49.4497C30.7381 49.4497 30.5606 49.4135 30.25 49.5016C30.0066 49.579 29.6854 49.7555 29.3543 49.8483C28.8829 49.9883 28.728 49.9262 28.728 49.9262L28.8055 50.0815C28.8055 50.0815 28.1911 50.0709 27.9863 50.0917C28.0224 50.102 28.0122 50.1177 28.0122 50.1177C27.9762 50.1237 27.9416 50.1359 27.9098 50.1538C27.8112 50.2177 27.7028 50.2649 27.5889 50.2934C27.5268 50.3037 27.4749 50.3037 27.3971 50.3194C27.4231 50.3815 27.6251 50.729 27.7183 50.9338C27.6408 50.9857 26.4755 51.866 26.4755 51.866C26.5117 51.9228 26.5412 51.9837 26.5636 52.0472C26.5998 52.1609 26.6155 52.3268 26.6516 52.4043C26.7394 52.5596 26.7913 52.5855 26.7913 52.5855C26.7913 52.5855 26.6516 52.6114 26.4079 52.6736C26.2011 52.7254 25.9471 52.8132 25.5887 52.8651C25.4788 52.8794 25.3681 52.888 25.2573 52.891C25.3092 53.005 25.5369 53.4399 25.1174 53.942C24.6979 54.4441 24.5685 54.5171 24.4391 54.838C24.374 54.7887 24.3047 54.7453 24.2319 54.7083C24.0923 54.6461 23.9005 54.5533 23.8333 54.4287C23.7941 54.5947 23.7421 54.7574 23.678 54.9154C23.5486 55.2622 23.3571 55.6043 23.3209 55.863C23.181 55.7077 22.9222 55.4022 22.5649 55.4643C22.2075 55.5264 21.9228 56.0132 21.8607 56.1531C21.8607 56.0651 21.7986 55.9978 21.7832 56.1012C21.7726 56.2152 21.576 57.4058 20.4783 58.3691C20.4681 58.1257 20.4681 57.5871 20.4421 57.4113C20.3397 57.5137 20.2144 57.6649 19.4686 57.9861C18.7385 58.3069 18.8542 58.6281 18.8542 58.6281C18.8542 58.6281 18.7921 58.1161 19.1857 57.5768C19.5843 57.0385 19.8277 56.7846 19.8277 56.7433C19.8213 56.7012 19.8033 56.6618 19.7758 56.6293C19.7239 56.5774 19.6205 56.5153 19.6205 56.474C19.6826 56.4484 20.2988 56.1531 20.2626 55.5418C20.2264 54.9933 19.9936 54.7083 19.8277 54.5065C19.8021 54.4806 20.0714 54.2891 20.0349 54.227C20.009 54.1908 19.6779 53.9471 19.6362 53.8174C19.646 53.74 19.6634 53.6637 19.6881 53.5897C19.7243 53.4757 19.7502 53.3979 19.74 53.3204C19.714 53.191 19.5741 52.8337 19.5328 52.7975C19.569 52.8077 19.8277 52.7975 19.8277 52.7975C19.8277 52.7975 19.6209 52.466 19.5843 52.3107C19.5478 52.1554 19.4703 51.7462 19.429 51.6687C19.5171 51.6789 19.7345 51.6943 19.7345 51.6687C19.7451 51.5909 19.543 51.4615 19.6321 51.3615C19.6942 51.3717 19.8134 51.4236 19.927 51.5687C19.8649 51.4028 19.7615 51.0819 19.5437 50.9526C19.6461 50.9164 19.9943 50.8229 20.2998 51.0041C20.6053 51.1854 20.7094 51.439 20.7094 51.439C20.7094 51.439 20.8906 51.5789 21.1705 51.7861C21.4914 52.0397 21.9003 52.4005 22.5529 52.6558C22.6929 52.7336 23.0499 52.7336 23.309 52.6818C23.4218 52.6549 23.5299 52.6113 23.6298 52.5524C23.6659 52.5311 23.7041 52.5137 23.7438 52.5005C23.6882 52.3888 23.6242 52.2814 23.5523 52.1793C23.6404 52.1793 23.7438 52.1899 23.7438 52.1899C23.7438 52.1899 23.806 52.0499 23.5264 51.7803C23.5885 51.7182 23.6663 51.6779 23.6663 51.5731C23.5783 51.5629 23.423 51.4335 23.3868 51.3816C23.4383 51.3454 23.5162 51.2263 23.6042 51.1901C23.5264 51.128 23.3349 50.8689 23.2468 50.8433C23.331 50.8121 23.4124 50.774 23.4902 50.7293C23.4902 50.7293 23.0554 50.6153 22.9154 50.5221C22.7755 50.4197 22.5686 50.2426 22.4444 50.1907C22.3147 50.1388 22.087 50.1132 21.9938 50.0095C22.0815 50.0354 22.2215 50.0095 22.3252 50.0095C22.4027 50.0095 22.4393 50.0197 22.4649 50.0197C22.4546 49.9835 22.4546 49.9057 22.6567 49.8801C22.7539 49.8654 22.8482 49.8357 22.9362 49.792C22.9362 49.792 22.7444 49.7818 22.5266 49.5746C22.3089 49.3674 22.128 49.2019 22.0037 49.1759C21.8743 49.15 21.631 49.264 21.4808 49.2534C21.2736 49.2278 21.1855 49.124 21.1855 49.124C21.1855 49.124 20.4971 49.1862 18.9696 48.2543C17.649 47.4464 17.0742 46.732 17.0742 46.732C16.9506 46.6871 16.8311 46.6316 16.7171 46.5661C16.2202 46.3074 15.5313 45.7687 15.5522 45.0642L15.5494 45.0693Z" fill="#C2A44D"/>
<path fill-rule="evenodd" clip-rule="evenodd" d="M34.5991 13.9909C34.7189 14.0298 34.8253 14.1016 34.9063 14.1981C35.1497 14.4776 35.305 15.0057 34.751 15.5703C34.9684 15.6477 35.0582 15.6727 35.248 15.6477C35.0565 15.8757 34.6216 16.3625 34.5957 16.7871C34.5697 17.1339 34.7872 17.2377 34.7872 17.2377C34.7872 17.2377 34.4557 17.6206 34.4404 18.2617C34.5969 18.0852 34.7682 17.9223 34.9524 17.7749C35.3357 17.4694 35.8638 17.1226 36.2211 16.9052C36.2163 16.9963 36.2286 17.0876 36.2573 17.1742C36.2573 17.1742 36.925 16.6253 37.4861 16.869C37.7397 16.983 37.6257 17.3401 37.6257 17.3401C37.6257 17.3401 37.9729 17.2107 38.2162 17.4541C38.4596 17.6974 38.8037 18.3252 38.9802 18.5685C39.0576 18.6825 39.2597 18.9 39.4666 19.2365C39.7492 19.7077 39.9851 20.2053 40.1711 20.7223C40.1813 20.453 40.2486 20.0339 41.0152 20.2977C41.7815 20.567 42.6512 21.1316 43.3814 22.2433C44.1115 23.355 44.2924 24.6101 44.66 25.088C45.0327 25.5488 45.4161 26.3151 45.442 26.6363C45.4679 26.9575 45.328 27.9927 46.0943 30.7941C46.3117 29.9243 46.6432 27.9927 46.6432 27.9927L46.8244 26.2891L47.0316 21.0179L41.5272 16.4451L37.2243 13.3226L34.423 13.5919L34.5988 13.9906L34.5991 13.9909Z" fill="#CAA13E"/>
<path fill-rule="evenodd" clip-rule="evenodd" d="M44.8259 21.8354C44.8259 21.8354 44.7481 21.3234 43.4538 20.453C42.1591 19.5936 41.1494 19.5936 40.2176 18.8634C39.5029 18.2886 38.7574 16.968 38.272 16.5332C37.8006 16.1034 37.7231 14.8606 37.7231 14.8606L39.3127 13.5294L41.6768 10.1123L43.6753 7.91174L44.6331 9.24295L45.9643 10.8066L46.7046 13.9445L46.974 18.5375L44.8236 21.8358L44.8259 21.8354Z" fill="#B59544"/>
<path fill-rule="evenodd" clip-rule="evenodd" d="M46.4261 27.3408C46.4652 26.6442 46.3792 25.9463 46.1721 25.2801C45.8308 24.2186 45.085 22.3338 44.7385 21.6279C44.5986 20.8459 44.7023 20.7838 44.8525 20.6957C45.0027 20.6076 45.5673 20.2861 45.8765 19.158C46.1858 18.0299 47.1453 17.993 47.1453 17.993L47.7354 17.5582L48.6314 19.8L49.4131 21.8248L49.6565 23.3731L49.8377 24.6934L49.4131 27.4845L47.3163 29.3796L46.4257 27.3408H46.4261Z" fill="#C89D3A"/>
<path fill-rule="evenodd" clip-rule="evenodd" d="M17.1654 58.4496V58.3922C17.209 58.365 17.2474 58.3303 17.2791 58.2898C17.3153 58.238 17.3415 58.1758 17.3671 58.1605C17.419 58.1345 17.6624 58.0581 17.7918 58.0826C17.9211 58.1072 18.2631 58.2482 18.4444 58.238C18.8171 58.2277 19.252 57.9427 19.9408 58.0724C20.9764 58.2639 21.2198 58.9681 21.8205 59.3668C22.2301 59.6467 22.654 59.5221 22.7162 59.5221H22.8558C22.8817 59.5221 23.0732 59.3046 23.177 59.3152C23.3842 59.3255 23.4046 59.4965 23.534 59.5067C23.8395 59.5429 24.43 59.3514 24.7253 59.4292C24.8128 59.4567 24.8924 59.5048 24.9573 59.5697C25.0222 59.6345 25.0705 59.7141 25.098 59.8016C25.1601 59.9931 25.1082 60.2365 24.958 60.3764C24.6372 60.6714 24.3317 60.9513 24.2696 61.1957C24.3486 61.2559 24.4245 61.3202 24.4969 61.3882C21.9349 60.7354 19.4699 59.7484 17.1654 58.4527V58.4496Z" fill="#CEB052"/>
<path fill-rule="evenodd" clip-rule="evenodd" d="M44.7379 48.1038C44.7379 48.1038 45.5455 47.0269 45.8254 46.4934C46.105 45.9435 44.94 38.9803 44.94 38.9803L47.2806 31.3119L47.2181 28.8161C47.2181 28.8161 47.3321 26.5117 47.6014 25.5123C47.9226 26.0871 48.9221 26.781 49.1395 27.1486C49.2419 26.4441 49.5897 24.9583 49.5382 23.3738C49.7297 23.6688 50.1905 26.636 50.1905 26.636L50.6513 28.6345L51.252 30.7576L51.92 32.9998L52.3187 34.5481L52.5464 34.9208L52.7382 35.5731L52.9195 36.2776L53.4424 37.9293L53.7496 39.2858L53.993 41.7454C54.0459 41.9338 54.0841 42.1259 54.107 42.3202C54.1173 42.5895 54.0708 42.7448 54.0708 42.7916C54.0708 42.8384 54.1589 43.3818 54.1227 43.791C54.0708 44.2006 54.0708 44.5211 53.7496 44.815C53.4284 45.1089 53.2267 46.8654 53.2267 46.8654L52.6519 46.4824C52.6519 46.4824 52.7659 45.9592 52.4966 45.483C52.2273 45.0069 51.7043 44.9082 51.4091 44.986C51.1141 45.0482 50.524 45.141 50.3321 45.3069C50.1509 45.4724 49.7058 45.9851 49.2965 46.2183C48.7845 46.5255 47.9503 46.5497 47.5052 46.6531C47.0546 46.7555 46.5576 47.0627 46.0343 47.4194C45.624 47.685 45.1909 47.9135 44.74 48.1021V48.1021L44.7379 48.1038Z" fill="#CCA847"/>
<path fill-rule="evenodd" clip-rule="evenodd" d="M44.7379 59.4176C44.7379 59.4176 44.772 59.4398 44.8379 59.476C48.5167 57.7524 51.8128 55.3093 54.5318 52.2909C54.5021 51.243 54.4635 50.1688 54.4212 49.7709C54.3335 48.9267 54.3956 48.0673 54.3697 47.5703C54.3437 47.0733 54.0642 45.0485 53.9348 44.5256C53.7948 44.0027 53.5252 43.7436 53.4842 43.7436C53.4481 43.7542 53.2303 44.7277 53.2303 44.9724C53.2303 45.2171 53.1784 45.8063 53.1784 45.9565C53.1422 45.9459 53.1269 45.8541 53.1269 45.8165C53.075 45.9459 53.0129 46.1739 52.9869 46.1998C52.961 46.2258 53.0231 45.9824 52.9869 45.9305C52.9507 45.8786 52.8845 45.9046 52.8989 45.7752C52.905 45.6985 52.9171 45.6224 52.935 45.5475C52.935 45.5475 52.7797 45.7752 52.6661 46.3551C52.5521 46.9299 52.5521 46.9456 52.5108 46.9972C52.4746 47.0596 52.2674 47.2665 52.2568 47.3443C52.2466 47.4839 52.4486 47.6239 52.464 47.7013C52.4742 47.8311 52.2827 48.4315 52.2206 48.7253C52.1585 49.0192 52.1844 49.5951 52.1182 49.8903C52.0663 50.1596 52.0158 50.3149 51.8387 50.4286C51.968 50.4545 52.0923 50.4907 52.0923 50.4907C52.0923 50.4907 52.2735 51.257 51.8127 51.9096C51.6472 52.1373 51.6059 52.2411 51.4298 52.4483C51.0826 52.8312 50.8133 53.2675 50.7874 53.5511C50.7695 53.4674 50.7574 53.3826 50.7512 53.2972C50.7512 53.2972 50.2129 53.9239 49.9849 54.2812C49.69 54.742 49.2807 54.7161 49.1657 54.8301C49.0507 54.9441 49.0257 55.1509 49.0633 55.3168C48.9609 55.3424 48.7684 55.379 48.6387 55.7776C48.5765 55.9845 48.4212 56.1872 48.1779 56.3265C47.9345 56.4658 47.6392 56.5078 47.4891 56.5439C47.6184 56.5801 47.6703 56.5801 47.7324 56.6214C47.6549 56.7508 47.2976 56.9528 46.8989 57.2119C46.5002 57.4553 46.3084 57.8123 46.2101 58.0455C46.1077 58.2629 45.9565 58.4028 45.7131 58.4288C45.8155 58.4909 45.9671 58.6356 46.0445 58.6824C45.9305 58.7083 45.7373 58.7083 45.3922 59.0036C45.0298 59.304 44.9055 59.392 44.7396 59.418L44.7379 59.4176Z" fill="#C39D3C"/>
<path fill-rule="evenodd" clip-rule="evenodd" d="M37.533 61.8172C37.7312 61.6782 37.946 61.5644 38.1723 61.4783C38.9799 61.1574 39.8342 61.0953 40.1708 60.9919C40.492 60.8895 40.7456 60.7481 41.1443 60.6707C41.1337 60.7614 41.1248 60.8468 41.1153 60.9273C39.9399 61.2968 38.743 61.594 37.5312 61.8172H37.533Z" fill="#D2BA6B"/>
<path fill-rule="evenodd" clip-rule="evenodd" d="M52.4288 40.575C52.4288 40.575 52.2633 41.4706 51.968 42.0352C51.6728 42.5998 51.3536 43.3814 51.3536 43.3814C51.3556 43.2053 51.3764 43.0298 51.4158 42.8581C51.043 43.0756 50.1368 43.5988 49.8798 43.8316C49.6364 44.0491 49.2271 44.4324 49.1237 44.6136C49.3671 43.8992 49.6207 43.2572 49.6623 42.9619C49.2896 43.2312 47.5495 44.6655 46.6436 45.613L43.8214 47.8966C43.4958 48.0723 43.1604 48.2293 42.8169 48.3669C42.3305 48.5738 41.7557 48.7499 41.3311 48.9158C41.4451 48.6103 41.626 48.3406 41.8799 48.0819C42.1492 47.8283 42.9568 46.9531 43.0811 46.5459C43.1951 46.1213 43.221 45.8677 43.0708 45.5103C42.9309 45.5465 42.61 45.5622 42.3926 45.6243C42.1752 45.6864 41.9421 45.9192 41.9421 45.9192C41.9421 45.9192 42.1076 44.9717 42.465 44.076C42.1957 44.0863 41.7349 44.1637 41.7349 44.1637C41.7349 44.1637 42.3769 43.0868 43.4757 42.3362C43.1392 42.4079 42.8099 42.51 42.4919 42.6414C41.8499 42.9107 41.1457 43.3094 40.6228 43.5268C40.9177 43.1172 42.9889 40.1613 44.2215 37.4064C45.4503 34.6569 45.9094 33.9528 46.1787 32.4772C46.3183 31.7471 46.2811 30.6681 46.3183 29.7018C46.3545 28.7437 46.4736 27.8842 46.3961 27.3094C46.717 27.7081 47.9185 28.8317 47.9598 31.3433C47.9959 33.8545 46.8105 37.2463 45.552 39.0738C45.8592 39.1618 46.6552 39.2656 47.473 37.845C48.2909 36.4244 48.281 36.0277 48.5762 35.4372C48.6124 35.7325 48.6018 35.8359 48.6018 35.8359C48.6018 35.8359 49.7931 34.3914 50.3573 32.5738C50.4713 33.3558 50.8078 34.0446 50.2795 35.4789C49.8084 36.7732 49.1923 37.0893 49.1923 37.0893C49.1923 37.0893 49.4978 37.0374 49.948 36.7681C50.0259 36.9596 50.0105 37.1777 50.1399 37.2548C50.2692 37.332 50.4454 37.462 50.4713 37.5863C50.6109 37.3791 50.8283 37.1149 50.8959 36.9183C50.844 37.3279 50.8078 39.1188 50.9983 40.0302C51.3973 39.994 51.8062 39.9681 52.0858 39.2482C51.8943 39.9527 51.8943 40.377 52.0237 40.9777C52.236 40.833 52.4275 40.5739 52.4275 40.5739L52.4288 40.575Z" fill="#C0993A"/>
<path fill-rule="evenodd" clip-rule="evenodd" d="M38.9748 12.0337C38.9748 12.0337 38.5761 12.1992 37.8979 12.1992C37.3077 12.1992 37.4732 11.9716 36.5516 11.9716C35.1331 11.9716 30.1776 12.7908 29.3075 12.7792C28.743 12.7689 31.2128 13.0225 31.2128 13.0225L37.5251 13.1106L38.7935 13.0082L39.2649 12.049L38.9748 12.0337Z" fill="#A88F33"/>
<path fill-rule="evenodd" clip-rule="evenodd" d="M22.6072 24.3729C22.6072 24.3729 21.7993 24.989 21.4576 25.4604C21.116 25.9318 20.9347 26.242 20.5463 26.6254C20.6374 26.6288 20.7285 26.6166 20.8156 26.5892C20.8156 26.5892 20.8156 26.6916 20.7535 26.7185C20.8071 26.7125 20.8615 26.7186 20.9125 26.7363C20.9635 26.7541 21.01 26.783 21.0484 26.8209C20.9344 26.8831 20.6237 27.194 20.8671 27.5616C21.0484 27.8412 21.4317 27.8668 21.4317 27.8668C21.4317 27.8668 21.3436 28.1207 21.7112 28.0948C22.5035 28.0586 23.3889 27.7115 23.7978 27.7995C24.2074 27.9019 24.4402 27.9395 24.73 28.4419C25.0372 28.9389 25.3048 29.0167 25.3048 29.0167C25.3048 29.0167 25.486 28.5556 25.4447 27.8671C25.5933 27.496 25.6757 27.1017 25.6881 26.7022L25.4188 24.719L24.2436 23.2328L22.7212 24.077L22.6072 24.3719V24.3729Z" fill="#E3C571"/>
<path fill-rule="evenodd" clip-rule="evenodd" d="M24.0518 24.0777C24.0518 24.0777 24.1658 24.347 24.6423 24.3726C24.5904 24.4866 24.5904 24.5023 24.6061 24.59C24.6163 24.6781 24.6317 24.8074 24.6317 24.8074C24.6841 24.7821 24.7316 24.7474 24.7716 24.705C24.7976 24.8191 24.7457 25 24.7716 25.1297C24.7876 25.2085 24.8137 25.2851 24.8491 25.3573C24.8567 25.3396 24.8653 25.3224 24.8751 25.3058C24.8853 25.2799 24.9775 25.5853 25.2324 25.8178C25.2322 25.782 25.241 25.7468 25.258 25.7154C25.2619 25.7803 25.2834 25.843 25.3202 25.8966C25.3011 25.8875 25.2836 25.8753 25.2686 25.8605C25.2686 25.8605 25.2942 26.6797 25.4342 27.1033C25.4575 27.0759 25.4783 27.0464 25.4963 27.0152C25.4963 26.9896 25.486 27.2432 25.4601 27.4248C25.4239 27.606 25.4499 27.8596 25.4499 27.8596C25.5432 27.7862 25.6458 27.7252 25.755 27.6784C25.9103 27.6159 26.1646 27.4244 26.3196 26.9998C26.4095 26.7594 26.4788 26.5117 26.5268 26.2595C26.5768 26.3559 26.6114 26.4595 26.6292 26.5667C26.6397 26.696 26.8831 26.6288 26.8831 26.6288L26.935 26.0642L27.2422 24.7853L27.5218 23.993L28.868 21.8962L31.3003 20.023L33.4234 20.5097L35.2147 18.076L32.1287 16.2222L29.2083 16.5277L26.5578 20.1988L24.4351 23.5285L24.0518 24.0773V24.0777Z" fill="#D8B65B"/>
<path fill-rule="evenodd" clip-rule="evenodd" d="M39.3475 18.7651C39.3475 18.7651 39.1663 18.8013 38.6433 19.0723C38.1204 19.3434 37.7579 19.4294 37.5559 19.828C37.3538 20.2267 37.3384 20.5428 37.3384 20.5428C37.3384 20.5428 37.6958 20.3875 37.903 20.3356C38.1204 20.2841 38.3638 20.2994 38.3379 20.3875C38.313 20.4479 38.2784 20.5038 38.2355 20.553C38.2355 20.553 38.645 20.5428 38.6341 20.7449C38.6232 20.9469 38.5566 21.1695 38.4792 21.2678C38.4013 21.3702 38.0805 21.5217 38.0443 21.6409C37.9562 21.8842 38.0805 21.8945 38.0337 22.0911C37.9975 22.2829 37.8269 22.6557 37.2674 23.3079C36.6926 23.9606 36.4482 24.4214 36.4482 24.4214C36.4482 24.4214 36.1687 23.8984 36.0236 23.4479C35.9212 23.4994 35.3713 23.8049 35.3713 23.8049L34.0975 19.3676L34.1231 19.0723C34.1231 19.0723 34.2371 18.9327 34.263 18.6737C34.0715 18.6115 34.0456 18.5597 33.7917 18.3166C33.5377 18.0736 33.3309 17.778 32.9066 17.5759C32.8445 17.4619 32.7666 17.307 32.456 17.2445C32.1454 17.182 31.959 17.1308 31.959 17.1308C31.959 17.1308 32.1246 17.0684 32.2024 16.939C32.0106 16.9649 31.8556 17.0271 31.4361 17.0168C31.0115 17.0062 30.9647 16.9909 30.732 17.0271C30.4992 17.0632 30.22 17.167 30.1159 16.8096C30.0018 16.7216 29.7585 16.7994 29.5513 17.1045C29.3441 17.4097 29.2717 17.6534 28.8731 17.7725C28.845 17.9483 28.7835 18.117 28.6918 18.2695C28.5778 18.4613 28.3966 18.6528 28.1532 18.9375C27.7699 19.3881 27.832 20.1284 27.221 20.693C26.6049 21.2572 27.3234 19.129 27.3234 19.129L28.3071 16.7738L31.1084 14.0346L35.458 13.7397L35.8827 15.9925L38.0057 16.7226L39.3468 18.7679L39.3475 18.7651Z" fill="#D3AE4D"/>
<path fill-rule="evenodd" clip-rule="evenodd" d="M40.0363 19.2621L38.2085 16.6267L36.9296 15.6426C36.9296 15.6426 36.0182 13.9653 35.9561 13.9134C35.9042 13.8772 35.0447 13.784 34.4959 13.7479L34.5983 14.0015C34.7181 14.0404 34.8245 14.1122 34.9055 14.2087C35.1489 14.4882 35.3042 15.0163 34.7502 15.5808C34.9676 15.6583 35.0574 15.6832 35.2472 15.6583C35.0557 15.8863 34.6208 16.3731 34.5949 16.7977C34.5689 17.1445 34.7864 17.2479 34.7864 17.2479C34.7864 17.2479 34.4549 17.6312 34.4396 18.2719C34.5961 18.0954 34.7674 17.9326 34.9516 17.7852C35.3349 17.478 35.8629 17.1325 36.2203 16.9151C36.2154 17.0063 36.2277 17.0977 36.2565 17.1844C36.2565 17.1844 36.9241 16.6355 37.4852 16.8789C37.7388 16.9929 37.6248 17.3503 37.6248 17.3503C37.6248 17.3503 37.972 17.2209 38.2153 17.4643C38.4587 17.7077 38.8055 18.334 38.9816 18.5777C39.0591 18.6917 39.2612 18.9092 39.468 19.2454C39.7506 19.7167 39.9866 20.2144 40.1725 20.7315C40.1827 20.5244 40.2244 20.2346 40.5821 20.2346L40.0384 19.2611L40.0363 19.2621Z" fill="#CAA13E"/>
<path fill-rule="evenodd" clip-rule="evenodd" d="M12.6344 26.7496C12.6344 26.7496 12.505 26.4284 12.6344 25.8021C12.7638 25.1757 12.9658 24.8805 13.0331 23.9589C13.1003 23.0373 13.7011 21.8877 13.7011 21.8877L15.363 21.132L16.5386 21.4528L16.8854 23.027L15.3992 23.8462C15.3992 23.8462 15.3217 24.193 14.9022 24.4726C14.4827 24.7521 13.9028 24.9696 13.7632 25.2546C13.6797 25.4291 13.6188 25.6135 13.582 25.8034C13.582 25.8034 13.1573 25.7154 12.9037 25.9949C12.6344 26.2799 12.6446 26.5336 12.6344 26.751V26.7496Z" fill="#F4EFC8"/>
<path fill-rule="evenodd" clip-rule="evenodd" d="M15.9898 26.3301C15.9898 26.3301 15.8499 26.4182 15.7464 26.6373C15.644 26.4718 15.3993 25.4877 15.3891 24.6023C15.3788 23.7169 15.3259 23.4974 15.5307 23.1923C15.7355 22.8871 16.5387 22.5656 16.4247 22.0161C16.3107 21.4931 15.8342 21.2757 15.2491 21.4259C14.8395 21.5283 14.5347 22.3994 14.1101 22.8342C13.7889 23.1657 13.4059 23.1138 13.3025 23.295C13.1625 23.5384 13.2919 23.7818 13.2506 23.9371C13.24 23.989 13.1107 24.2685 12.8775 24.6051C12.4065 25.2833 11.6091 26.2414 11.5054 27.1009C11.5416 26.6141 11.516 26.6039 11.6453 26.0653L11.5675 25.9359L12.0795 24.2583L12.4109 22.8759L13.1516 20.561L14.4562 18.1949L15.7249 16.7759L17.0452 16.864L17.2005 18.8471L17.9566 22.5704L19.5462 24.5276L16.9984 26.2421L15.9888 26.3301H15.9898Z" fill="#EBCC73"/>
<path fill-rule="evenodd" clip-rule="evenodd" d="M16.7819 27.0337C16.7819 27.0337 16.5645 27.0856 16.4867 27.0443C16.4089 27.003 16.3317 26.9562 16.3573 26.9043C16.3829 26.8524 16.5229 26.7647 16.5229 26.7231C16.5257 26.6854 16.5138 26.6482 16.4897 26.6192C16.4655 26.5902 16.431 26.5717 16.3935 26.5678C16.2744 26.5524 16.2382 26.6299 16.2382 26.6299C16.2382 26.6299 16.1242 26.5422 16.0314 26.5275C16.0863 26.5208 16.1416 26.5172 16.1969 26.5169C16.0538 26.4521 15.902 26.4085 15.7463 26.3875C15.8757 26.31 16.1297 26.082 16.2952 26.082C16.4607 26.082 16.5645 26.0564 16.5386 25.9684C16.5126 25.8803 16.3833 25.7509 16.2437 25.699C16.2952 25.6369 16.3317 25.5437 16.2075 25.2894C16.0778 25.0358 16.1297 24.8648 16.1713 24.803C16.2075 24.7252 16.3368 24.5856 16.399 24.4975C16.4611 24.4095 16.513 24.2903 16.6164 24.2282C16.6683 24.192 16.8338 24.1258 16.9997 24.0627C17.181 24.0005 17.3311 23.9227 17.4346 24.0005C17.5486 24.078 17.4967 24.1818 17.4967 24.1818C17.4967 24.1818 17.8541 24.0521 18.1749 24.218C18.4961 24.3729 19.2781 24.4716 19.2781 24.4716L19.5583 25.0362L17.7046 26.6258L16.9383 27.0091L16.783 27.0347L16.7819 27.0337Z" fill="#E5C66B"/>
<path fill-rule="evenodd" clip-rule="evenodd" d="M19.3553 24.435C19.3553 24.435 18.7805 24.8183 18.6511 24.9579C18.7286 24.9685 18.858 25.0204 18.8061 25.0979C18.744 25.1754 18.3713 25.4447 18.1641 25.6986C17.9466 25.9522 17.7394 26.2734 17.6671 26.4288C17.5896 26.5684 16.9991 26.9776 16.7974 27.0292C17.222 27.0292 18.0763 26.5062 18.3972 26.5062C18.387 26.6615 18.4853 26.8377 18.6665 26.853C18.8478 26.8684 19.3707 26.967 20.0748 26.5322C20.779 26.1076 20.5462 25.7915 20.8411 25.5846C21.4057 25.2116 21.6334 24.8801 21.944 24.6733C22.2546 24.4664 22.4154 24.4193 22.4154 24.4193C22.4154 24.4193 22.4256 24.264 22.5178 24.2797C22.543 24.2826 22.5669 24.2923 22.587 24.3079C22.6071 24.3234 22.6226 24.3441 22.6318 24.3678C22.6318 24.3678 23.1704 23.9845 23.8606 23.881C23.8445 23.8738 23.8316 23.861 23.8244 23.8449C23.8244 23.8449 23.8759 23.8189 23.8865 23.793C23.8865 23.793 23.9227 23.7411 23.9486 23.767C23.9746 23.793 24.0108 23.9845 24.0626 24.0623C24.1767 24.0104 24.3941 23.5237 24.3941 23.5237L24.9173 22.0273V20.6602L24.5077 20.738L21.4357 22.0426L19.5714 23.9742L19.354 24.435H19.3553Z" fill="#E6BD62"/>
<path fill-rule="evenodd" clip-rule="evenodd" d="M28.1992 17.7296C28.3654 17.6892 28.5247 17.6246 28.672 17.5377C28.6099 17.7036 28.6099 17.8849 28.3406 18.2784C28.0712 18.672 28.061 18.729 27.8436 19.1379C27.6261 19.5625 27.6002 20.1735 27.393 20.4425C27.4859 20.3973 27.5855 20.3677 27.6879 20.3547C27.6879 20.3547 27.4811 20.536 27.393 20.7275C27.3049 20.919 27.1496 21.3176 26.7667 21.5613C26.3837 21.805 25.8966 21.96 25.3737 22.5348C24.8504 23.099 24.3121 23.8138 24.0425 24.0708C24.1824 23.8274 24.3739 23.3407 24.4258 23.0198C24.4777 22.699 24.4152 22.3153 24.5033 21.8911C24.5913 21.4668 24.5913 21.161 25.0153 20.4203C25.4392 19.6796 26.1649 17.1063 26.1649 17.1063L27.7285 16.6093L28.1999 17.7279L28.1992 17.7296Z" fill="#B6933F"/>
<path fill-rule="evenodd" clip-rule="evenodd" d="M27.0705 16.782C27.0705 16.782 26.5995 17.4602 26.4701 18.061C26.3407 18.6617 26.4595 18.6098 26.382 18.9051C26.3357 19.0851 26.3357 19.2739 26.382 19.454C26.5452 19.1911 26.7685 18.9709 27.0336 18.8116C27.4791 18.5426 27.8416 18.3508 28.0576 18.1231C28.2751 17.8797 28.4563 17.4811 28.9274 17.1756C28.7359 17.1496 28.4666 17.0616 28.4154 17.0732C28.6072 16.8557 29.1816 16.5243 29.7616 16.1256C30.3364 15.716 30.3002 15.5508 31.2324 15.1419C30.9269 15.1938 30.7818 15.116 30.5279 15.1419C30.6303 14.9245 30.9887 14.8207 31.3471 14.4637C31.7055 14.1066 31.1194 13.5782 31.1194 13.5782L28.3887 15.23L27.0685 16.7834L27.0705 16.782Z" fill="#C49937"/>
<path fill-rule="evenodd" clip-rule="evenodd" d="M19.6608 15.5494L19.7229 15.0524L20.5049 13.7994L21.3231 11.5988V8.59034L21.2609 6.85057L21.3903 5.71121L21.4886 5.34905L21.5924 5.20911L22.26 5.5559L23.182 6.80893L23.27 9.22727L22.374 13.0434L19.8161 15.8344L19.6608 15.5494Z" fill="#DFC068"/>
<path fill-rule="evenodd" clip-rule="evenodd" d="M21.6958 5.06917C21.6958 5.06917 21.2862 5.07975 21.1988 6.78335C21.1114 8.48695 21.0691 9.38262 21.007 10.2267C20.9449 11.0709 20.8001 11.5832 20.7274 12.0805C20.6547 12.5779 20.6134 13.2557 20.3806 13.6701C20.2782 13.8616 20.0594 14.4624 19.5468 14.9129C18.9719 15.4099 18.1132 15.757 17.9831 15.783C17.7551 15.8345 16.6004 15.9485 16.1293 16.2076C15.9638 16.2957 15.6788 16.3991 15.363 16.6943C14.7363 17.2586 13.9028 18.2682 13.3021 19.4851C12.3805 21.3027 11.4589 26.434 11.4589 26.434L11.6661 26.0872C11.6661 26.0872 11.692 25.6264 12.1528 24.8185C12.6034 24.0109 12.474 23.1046 13.1003 21.5563C13.3437 20.9662 13.6492 20.1999 14.0219 19.5472C14.6124 18.4857 15.3269 17.5743 16.0467 17.0773C17.2219 16.2697 18.5166 16.0936 18.5166 16.0936L19.9096 15.172C19.9096 15.172 20.153 14.701 20.4742 14.1623C20.9244 13.4066 21.4982 12.5625 21.6234 11.3354C21.8153 9.51779 21.3541 8.32687 21.3801 7.24996C21.406 6.17305 21.4162 5.38081 21.634 5.18898C21.8518 4.99715 21.6961 5.06985 21.6961 5.06985L21.6958 5.06917Z" fill="#A88F33"/>
<path fill-rule="evenodd" clip-rule="evenodd" d="M21.6959 13.1986C21.6959 13.1986 22.3103 11.6865 22.5915 10.3454C22.6434 10.0761 22.7469 9.80716 22.7728 9.58973C22.9022 8.321 22.9383 7.79807 22.7728 7.10414C22.6434 6.59214 22.1464 6.13066 21.8874 5.77294C21.6337 5.39987 21.5146 5.26094 21.5665 5.18244C21.6184 5.10393 21.8201 4.97559 22.0167 4.99095C22.2257 4.99703 22.4313 5.04556 22.621 5.13357C22.8106 5.22159 22.9804 5.34726 23.1199 5.50295C23.5186 5.96375 23.8344 7.52774 23.8344 7.52774L24.1665 9.59144L25.0106 12.1907L21.6966 13.2007L21.6959 13.1986Z" fill="#C99E3D"/>
<path fill-rule="evenodd" clip-rule="evenodd" d="M27.4692 11.6248C27.4692 11.6248 27.3552 11.6763 27.1483 11.6248C27.1571 11.7093 27.1425 11.7946 27.1059 11.8713C27.0694 11.9481 27.0123 12.0132 26.9411 12.0596C26.7237 11.9716 24.6883 12.1477 24.6883 12.1477C24.6883 12.1477 23.7408 11.9818 23.4455 10.7288C23.2387 9.89489 23.6008 8.74562 23.4817 7.98957C23.3005 6.87614 23.0469 6.65837 23.0209 6.31191C22.995 5.96546 22.969 5.87706 22.969 5.65963C22.855 5.63368 22.7878 5.5975 22.6741 5.5975C22.6482 5.4951 22.6997 5.40567 22.5861 5.22443C22.6482 5.25037 23.0728 5.30225 23.5698 5.77329C23.9794 6.15661 23.9794 6.29621 24.0412 6.37404C24.1186 6.45152 24.7453 6.98844 25.0146 7.52365C25.284 8.05886 25.8069 9.76553 25.926 10.0451C25.9622 10.1591 26.04 10.2731 26.2332 10.5318C26.5336 10.9049 26.9736 11.5217 27.4705 11.6241L27.4692 11.6248Z" fill="#B58634"/>
<path fill-rule="evenodd" clip-rule="evenodd" d="M24.1141 6.40002C24.4278 6.90674 24.7096 7.4325 24.9579 7.97425C25.2634 8.66272 25.4447 9.22729 25.828 9.68809C25.6208 9.08768 25.2532 7.90701 25.0357 7.48751C24.7924 7.04378 24.2954 6.56591 24.1141 6.40037V6.40002Z" fill="#A88F33"/>
<path fill-rule="evenodd" clip-rule="evenodd" d="M20.5929 14.9129C20.5929 14.9129 20.07 15.0422 19.0965 15.5549C18.7753 15.7205 18.4702 15.8601 18.1749 15.9898C17.408 16.3366 16.5854 16.6571 15.9327 16.8339C15.9846 16.896 16.0102 16.9216 16.0102 16.9216C16.0102 16.9216 16.0102 17.1756 16.1502 17.3203C16.0727 17.3981 15.0367 18.1023 15.3426 20.4582C15.5494 20.3807 15.7928 20.2769 15.829 20.2769C15.8914 20.2875 15.9068 20.4582 15.9843 20.4582C16.0618 20.4582 16.3157 20.3558 16.585 20.0076C16.5748 20.1476 16.4195 21.5559 17.253 22.5034C17.4083 22.3222 17.8019 21.7215 17.8019 21.7215L17.8121 21.53C17.8121 21.53 17.8483 20.862 18.0661 20.251C18.2838 19.64 18.7081 19.1894 18.7081 19.1894L20.9237 16.0256L20.5922 14.9125L20.5929 14.9129Z" fill="#E6C367"/>
<path fill-rule="evenodd" clip-rule="evenodd" d="M18.5218 19.5584C18.4204 19.6301 18.3086 19.6859 18.1904 19.724C18.1542 19.5946 18.1023 19.1492 18.4078 18.7143C18.7652 18.191 19.5468 17.5128 19.7643 16.9735C19.9042 16.6264 19.8421 15.7566 21.0849 14.6432C22.3277 13.5298 22.8141 13.1468 22.8141 13.1468L24.8232 12.1371L27.2931 13.1106L26.066 17.92L25.1133 20.1728L21.3245 19.4584L18.5215 19.5584H18.5218Z" fill="#DCBA5A"/>
<path fill-rule="evenodd" clip-rule="evenodd" d="M19.968 18.2524L20.4394 17.6623V17.2428C20.4394 17.2428 20.9623 17.1028 21.5266 16.528C22.0908 15.9532 22.8728 14.8504 23.5616 14.9176C24.2504 14.9954 24.3177 16.414 24.3436 16.813C24.3695 17.2121 24.4576 18.1176 24.5972 18.6047C24.7525 19.0914 22.9195 20.9346 22.9195 20.9346L21.6747 21.8822L19.968 18.2524Z" fill="#E9CE77"/>
<path fill-rule="evenodd" clip-rule="evenodd" d="M21.4265 23.1663C21.4265 23.1663 21.8098 22.5656 21.5289 22.4362C21.6945 22.0635 21.9999 21.6699 21.9999 21.6699C21.9999 21.6699 22.2174 21.1316 22.9215 20.4687C23.6257 19.8059 24.0609 19.3656 24.1749 18.9205C24.2452 18.6304 24.2834 18.3335 24.2889 18.035C24.365 18.0972 24.4464 18.1526 24.5322 18.2006C24.6462 18.2525 25.1845 18.6976 25.107 19.5936C25.0296 20.4896 24.6974 20.8623 24.6974 20.8623C24.6974 20.8623 24.3766 21.1832 24.1489 21.349C23.9052 21.5146 23.8175 21.7061 23.4083 21.7218C23.4503 21.6883 23.4976 21.662 23.5482 21.644C23.5482 21.644 23.1236 21.5924 22.8956 21.7993C22.6676 22.0061 22.1829 22.6434 21.9395 22.8352C21.6962 22.9905 21.4275 23.1666 21.4275 23.1666L21.4265 23.1663Z" fill="#CDAE50"/>
<path fill-rule="evenodd" clip-rule="evenodd" d="M38.6433 13.0949C38.0316 12.872 37.3887 12.7462 36.738 12.7222C35.6505 12.686 34.0609 12.7481 32.5024 12.7584C30.8247 12.7686 29.3024 12.1836 27.1899 12.0801C26.8431 11.8729 25.9611 10.9667 23.2079 12.8877C23.3734 12.8775 25.2067 12.4631 25.8433 13.2608C26.4854 14.053 26.3041 15.3993 26.2164 15.7201C26.0505 16.4349 25.5119 17.4756 25.2948 18.2057C25.0777 18.9358 25.1289 19.3195 24.9736 19.8315C24.8183 20.3435 24.4766 20.5978 24.6784 21.1879C24.9477 21.0224 25.0879 21.0224 25.5378 20.0127C25.9877 19.0031 25.8952 18.2832 26.641 17.4288C27.3711 16.5693 28.5866 15.3938 29.0488 15.0985C29.5109 14.8033 33.1806 12.898 37.023 14.7156C37.9497 14.6173 38.6437 13.0946 38.6437 13.0946L38.6433 13.0949Z" fill="#D2A83E"/>
<path fill-rule="evenodd" clip-rule="evenodd" d="M24.756 12.3904C24.7522 12.3515 24.7436 12.3132 24.7304 12.2764C24.6945 12.2007 24.6473 12.1308 24.5905 12.0692C24.5905 12.0692 23.6791 11.9037 23.2183 11.9552C22.4103 12.0433 21.6802 13.0427 21.3385 13.5554C20.9968 14.0681 20.5722 14.86 20.1114 15.2692C20.1164 15.2294 20.1072 15.189 20.0854 15.1552C20.0854 15.1552 20.1114 15.1914 20.0598 15.2433C20.0083 15.2952 20.008 15.3208 20.0339 15.3457L20.1117 15.4232C20.1373 15.4232 20.8521 15.102 21.8256 14.1944C22.8612 13.2468 23.6535 12.7608 24.0679 12.5942C24.2888 12.5003 24.5198 12.4319 24.7563 12.3904V12.3904H24.756Z" fill="#C29637"/>
<path fill-rule="evenodd" clip-rule="evenodd" d="M42.4338 8.49713C42.4338 8.49713 42.2679 8.70398 42.0608 8.93199C41.6 9.41873 40.9992 9.96725 40.4865 10.5318C40.0001 11.0704 39.4513 11.4899 38.8348 12.1941C38.2184 12.8983 37.5036 13.6799 37.3227 13.9079C37.1572 14.136 37.0278 14.5087 37.0278 14.7002C36.9397 14.6381 36.8363 14.5708 36.8363 14.5708C36.8798 14.6521 36.9319 14.7285 36.9916 14.7988C37.121 14.9801 37.3227 15.2084 37.4265 15.3477C37.5538 15.525 37.6452 15.7255 37.6954 15.9379C37.7576 15.9481 38.1562 16.0259 38.6536 15.2077C39.1509 14.3896 39.8028 13.4939 39.8028 13.4939L40.8384 11.9559L41.4911 10.6513L42.3103 9.19106L42.4349 8.49713H42.4338Z" fill="#AC8132"/>
<path fill-rule="evenodd" clip-rule="evenodd" d="M43.4954 7.45129C43.4954 7.45129 42.8687 7.96329 42.6254 8.27049C42.382 8.57769 41.8062 9.38392 41.8062 9.38392L42.0133 9.35798L43.0646 8.42614L43.4742 7.69603L43.4951 7.45266L43.4954 7.45129Z" fill="#A88F33"/>
<path fill-rule="evenodd" clip-rule="evenodd" d="M43.3036 48.6007C43.3036 48.6007 43.2934 48.1761 43.5316 47.9225C43.775 47.6686 44.3911 47.2958 44.9919 45.8977C45.5926 44.4996 45.6595 44.1839 45.6595 44.1839C45.6595 44.1839 44.5826 45.1055 43.9187 45.3229C44.074 45.0017 44.1621 44.7741 44.2399 44.6082C44.1518 44.5307 43.7791 44.4426 43.7429 44.4013C43.9498 44.1941 44.0638 43.6866 44.4833 43.35C45.0219 42.9404 46.0056 42.2366 46.7702 41.6092C47.5348 40.9818 49.038 39.5226 49.2299 39.098C49.3439 39.2636 49.3695 39.367 49.3695 39.367C49.3695 39.367 48.6138 40.3511 48.2202 40.9774C47.8731 41.516 47.899 41.8215 47.899 41.8215L48.6138 41.5143C48.6138 41.5143 48.8206 42.2806 47.8836 43.4459C48.2932 43.2906 48.4585 43.3838 48.6912 43.2541C48.3079 43.4978 47.7799 43.8292 47.2829 44.7403C46.7962 45.6516 46.1333 46.7132 45.0151 47.3757C43.9276 48.0747 43.3009 48.5977 43.3009 48.5977L43.3036 48.6007Z" fill="#A67A2E"/>
<path fill-rule="evenodd" clip-rule="evenodd" d="M40.4971 13.6339C40.4971 13.6339 40.0725 14.519 40.0104 15.2078C40.0002 15.3737 39.9585 15.503 39.9585 15.6945C39.9483 16.3106 39.9947 16.9994 39.8561 17.3203C39.8043 17.1909 39.7783 17.1028 39.7264 17.0513C39.6489 17.2687 39.509 17.947 39.395 18.2006C39.3435 18.035 39.2295 17.4602 39.24 16.782C39.2506 16.1038 39.2656 15.9741 39.2656 15.8345C39.24 16.0413 39.1001 16.3212 39.0482 16.4867C38.9707 16.3471 38.8827 16.1659 38.7789 16.0157C38.7168 16.1181 38.6393 16.2693 38.5721 16.3471C38.5615 16.285 38.5359 16.1191 38.5202 15.8863C38.5099 15.617 38.4942 15.2702 38.5099 15.1975C38.5355 15.0579 38.7533 14.5091 39.2141 14.0066C39.763 13.4059 40.3275 12.2515 40.493 11.8941C40.6586 11.5367 41.3627 10.0509 41.3627 10.0509H41.9014L41.1194 11.832C41.1194 11.832 40.6484 12.8055 40.405 13.1632C40.1616 13.5209 39.649 14.5459 39.4209 14.9446C39.5865 14.7272 39.7264 14.6132 39.8923 14.406C40.0527 14.2609 40.4978 13.6346 40.4978 13.6346L40.4971 13.6339Z" fill="#8C6228"/>
<path fill-rule="evenodd" clip-rule="evenodd" d="M43.5056 7.38373C43.4176 7.65452 43.2786 7.90595 43.096 8.12442C42.7748 8.50774 42.086 9.02008 41.7498 9.429C41.4426 9.82767 40.8282 10.9152 41.1074 12.2044C41.2098 11.9248 41.4027 11.3708 41.9153 10.7442C42.428 10.1175 42.9769 9.39794 43.2465 8.83883C43.5155 8.27427 43.5516 7.82917 43.5516 7.82917L43.654 7.6998L43.5919 7.40455L43.5039 7.38373H43.5056Z" fill="#CBA94C"/>
<path fill-rule="evenodd" clip-rule="evenodd" d="M53.9911 41.7292C53.9911 41.7292 53.784 41.1649 53.7218 40.6523C53.6597 40.1396 53.8242 40.0379 53.6338 39.4511C53.5198 39.0937 53.3129 39.1439 53.261 39.0937C53.2091 39.0436 53.173 38.5036 53.1832 38.2083C53.1934 37.9131 53.173 37.5301 53.1211 37.3642C53.0436 37.3021 52.9917 37.2502 52.8777 36.8672C52.7483 36.4839 52.6862 36.2924 52.6241 36.1788C52.562 36.0651 52.3804 35.9613 52.3804 35.8473C52.3804 35.6193 52.5876 35.5005 52.5876 35.4377C52.5773 35.3084 52.422 35.4121 52.3804 35.3756C52.3288 35.3135 52.5101 34.9408 52.4429 34.8889C52.4169 34.8633 52.2357 35.0807 52.1889 35.0186C52.137 34.9561 52.0749 34.34 51.9817 33.9311C51.894 33.5324 51.8005 33.2426 51.7902 33.1235C51.78 33.0095 51.0755 31.0004 50.9048 30.5137C50.7673 30.1024 50.6515 29.6841 50.558 29.2607C50.5061 29.0173 50.4699 28.52 50.444 28.5718C50.4181 28.6237 50.4338 28.8773 50.3921 28.8671C50.3559 28.8565 50.2266 27.9714 50.1853 27.8315C50.1491 27.6916 49.9313 27.2171 49.8781 26.8737C49.8262 26.5266 49.7125 25.6204 49.6347 25.0042C49.5569 24.3881 49.5207 24.1345 49.5207 23.9803C49.5334 23.6029 49.5126 23.2252 49.4586 22.8515C49.3562 22.1988 49.1514 21.4066 48.9718 20.9462C48.625 20.0761 47.7031 17.8496 47.5382 17.2956C47.5382 17.1557 47.7195 17.2335 47.7195 17.2335C47.7195 17.2335 48.1697 18.3623 48.5011 19.232C48.8223 20.102 49.1278 20.8683 49.2056 20.9462C49.2678 21.0236 49.7545 21.878 49.9719 23.2761C50.1894 24.6742 50.2668 25.9634 50.3965 26.8229C50.4587 27.2325 50.5106 27.667 50.6399 28.1018C50.7795 28.5732 50.997 29.06 51.282 29.8054C51.5253 30.4321 51.7066 30.955 51.8049 31.4056C51.9189 31.9804 51.9189 32.4152 51.9861 32.7003C52.0486 32.9436 52.1415 33.43 52.3592 34.1338C52.577 34.8377 52.8975 35.7442 53.1149 36.3085C53.5399 37.4373 53.7293 38.3797 53.7935 38.8821C53.8502 39.3999 54.042 41.1916 53.9901 41.7298L53.9911 41.7292Z" fill="#A88F33"/>
<path fill-rule="evenodd" clip-rule="evenodd" d="M43.5316 7.32159L43.5056 7.38371C43.5056 7.38371 43.5831 7.40965 43.5677 7.51342C43.5688 7.65538 43.5602 7.79726 43.5418 7.93804C43.5162 8.11929 43.4643 8.25889 43.4541 8.3729C43.4541 8.61627 43.4903 8.89582 43.1469 9.58976C43.0445 9.78125 42.9813 9.94679 42.9295 10.0608C42.8001 10.3404 42.7742 10.382 42.6602 10.5114C42.8414 10.409 43.494 9.99936 43.8251 10.0608C43.5974 10.1902 43.2503 10.4441 43.0329 10.7756C43.0848 10.7858 43.3022 10.8274 43.6473 10.7756C44.2221 10.6875 44.8641 10.4803 45.4283 10.5216C46.0447 10.5578 45.8014 9.78124 45.8014 9.78124L45.09 8.21759L43.7439 7.27039L43.5316 7.32193V7.32159Z" fill="#BE9C44"/>
<path fill-rule="evenodd" clip-rule="evenodd" d="M47.0422 19.0346C47.0422 19.0346 46.4415 18.4338 46.1981 16.3721C45.9547 14.3009 46.0066 11.2521 46.0066 11.2521L45.5199 10.0612C45.5199 10.0612 45.4175 9.26894 45.1625 8.97403C44.9075 8.67911 44.4068 8.18179 44.1788 7.93842C43.9508 7.69504 43.692 7.36361 43.5367 7.31172C43.6142 7.18236 43.9614 6.45224 45.2919 6.442C46.6224 6.43176 47.0327 7.17212 47.1716 7.44143C47.3105 7.71074 47.9379 8.87504 48.1707 11.0937C48.3881 13.3097 48.3987 13.4756 48.3625 14.2419C48.3366 14.6665 48.1966 15.6502 47.9529 16.7012C47.7304 17.5921 47.487 18.5864 47.0416 19.0366L47.0422 19.0346Z" fill="#A17C34"/>
<path fill-rule="evenodd" clip-rule="evenodd" d="M45.1585 20.8002C45.3587 20.8146 45.5587 20.7695 45.7333 20.6705C45.9248 20.6602 46.6188 20.7483 47.1519 20.0701C47.1881 20.225 47.2817 20.6449 47.0379 21.0176C47.1676 20.8879 47.3591 20.8364 47.3851 20.8002C47.3953 20.9917 47.5766 21.5818 46.8103 23.0161C47.0171 22.7884 47.2605 22.7987 47.4779 22.7727C47.4885 23.042 47.6332 23.9479 47.2503 24.435C46.9966 24.7664 46.5822 24.6627 46.5822 24.6627C46.5883 24.5903 46.5883 24.5176 46.5822 24.4452C46.572 24.3053 46.5201 24.1657 46.5566 24.0725C46.3564 23.9811 46.174 23.8547 46.018 23.6994C45.5674 23.2748 44.9823 22.5502 44.941 22.0116C44.8891 21.4108 45.4278 21.2815 45.4278 21.2815C45.3827 21.2411 45.3442 21.1939 45.3138 21.1415C45.2878 21.0538 45.2619 20.9138 45.1585 20.8002V20.8002Z" fill="#8C6228"/>
<path fill-rule="evenodd" clip-rule="evenodd" d="M41.1648 14.2861C41.1648 14.2861 41.1389 14.25 40.9993 14.4155C41.0252 14.25 41.0511 14.0943 41.0614 13.9441C41.1275 13.8051 41.213 13.6761 41.3153 13.5611C41.2375 13.7161 41.1856 13.8561 41.1856 13.8561C41.1856 13.8561 41.3775 13.4987 41.657 13.2813C41.8485 13.1259 42.0919 13.0536 42.1953 12.9085C42.3093 12.7532 42.2833 12.7273 42.3093 12.7013C42.3093 12.7013 42.5632 12.5358 42.9517 12.0487C43.0032 11.9866 43.081 11.9193 43.1329 11.8572C43.2206 11.821 43.4278 11.7278 43.6712 11.6033C43.9251 11.4637 44.2098 11.2722 44.3859 11.1937C44.7327 11.0383 45.1006 11.0541 45.2713 10.8103C45.4007 10.7742 45.5403 10.3857 45.5147 10.0546C45.7062 10.1321 46.6899 10.7431 47.0268 12.0791C47.2701 13.0266 46.8349 14.4868 46.6537 15.1914C46.4724 15.8959 46.4468 16.4184 46.1929 16.7393C45.8717 17.1643 44.8365 17.7633 44.5825 18.0599C44.3651 18.3033 43.7128 18.9194 43.7384 19.3645C43.7644 19.6959 44.1733 19.8765 44.2617 19.9393C44.3501 20.0021 44.3494 20.0792 44.5153 20.0417C44.6812 20.0042 44.7429 19.9277 44.8105 19.9277C44.888 19.9379 44.888 19.9536 44.9242 19.9536C44.9504 19.9529 44.9765 19.9493 45.002 19.9431C45.002 19.9431 44.9761 20.4144 43.8732 20.5575C43.7954 20.568 43.7179 20.5936 43.6193 20.6093C43.749 20.5472 43.8265 20.5472 43.9664 20.3557C43.8111 20.3298 43.3657 20.3038 43.2517 20.2677C43.2879 20.2055 43.407 20.0397 43.5053 19.9622C43.5933 19.8847 43.495 19.8598 43.4176 19.9C43.2842 19.9908 43.1562 20.0893 43.0343 20.195C42.9049 20.309 42.7909 20.4643 42.5837 20.6046C42.5216 20.3974 42.5318 20.0038 42.7755 19.7191C42.7131 19.7294 42.5939 19.9106 42.4803 19.8744C42.4597 19.6856 42.472 19.4946 42.5165 19.3099C42.5786 19.0767 42.9151 18.6678 42.9151 18.6678L44.5409 15.7627L44.8877 13.5622L41.1648 14.2855V14.2861Z" fill="#92723A"/>
<path fill-rule="evenodd" clip-rule="evenodd" d="M41.0771 14.4104C41.0771 14.4104 40.9891 14.4726 41.1652 14.5917C41.1393 14.6279 41.0771 14.7572 40.9993 14.8453C40.9116 14.9477 40.818 15.0112 40.7819 15.0992C40.7044 15.2805 40.6422 15.4047 40.6422 15.4826C40.6422 15.5604 40.6163 16.0574 40.3989 16.3782C40.321 16.4922 40.233 16.6837 40.1708 16.8131C40.0415 17.0408 39.9275 17.2227 39.9015 17.3251C39.85 17.5063 39.8138 18.0033 39.8138 18.0033C39.8138 18.0033 39.9278 17.8634 39.9691 17.8118C39.9066 17.9412 39.8394 18.0808 39.7411 18.1846C39.8032 18.1327 39.9845 18.0033 40.29 17.734C40.7146 17.377 41.3775 16.7762 42.1855 16.3004C41.9418 16.3885 41.7349 16.3885 41.5693 16.4144C41.6987 16.285 42.8637 14.918 43.4748 14.7886C43.5119 14.7416 43.5303 14.6825 43.5266 14.6227L43.0034 14.5712L41.9418 14.7989L41.7868 13.9797L41.0771 14.4094V14.4104Z" fill="#B18E3E"/>
<path fill-rule="evenodd" clip-rule="evenodd" d="M42.7653 19.0706C42.7653 19.0706 42.6253 19.2102 42.496 19.5574C42.3964 19.4534 42.311 19.3366 42.242 19.2102C42.0505 18.8894 41.7556 18.4801 41.0668 18.7132C41.0566 18.4958 41.0409 18.3818 41.0668 18.2265C41.1808 18.2009 41.5276 17.9214 41.8744 17.5121C42.1181 17.2325 42.3458 16.9113 42.5011 16.5024C42.6035 16.4246 42.7806 16.2952 43.0131 16.1451C43.3445 15.9174 43.7432 15.6064 43.8053 15.2596C43.65 15.3218 43.3186 15.4771 42.8212 15.4515C43.0131 15.3634 43.308 15.2702 43.2718 14.8869C43.3496 14.835 43.4118 14.7988 43.4118 14.7988C43.3534 14.7794 43.292 14.7706 43.2305 14.7729C43.2199 14.7367 43.2046 14.6852 43.1165 14.7108C43.0284 14.7364 43.0141 14.7367 43.0025 14.7729C42.9663 14.7835 42.8472 14.7729 42.7591 14.8354C42.6711 14.8978 42.4277 15.1043 42.3345 15.1405C42.3707 15.0784 42.4222 14.9855 42.4222 14.9855C42.4222 14.9855 42.1686 15.0111 41.9874 15.0879C41.6559 15.202 41.273 15.4091 40.8845 15.6109C40.9207 15.5487 40.9364 15.5085 40.962 15.4969C40.9876 15.4853 41.0501 15.4713 41.0501 15.4607C41.0501 15.4501 41.0245 15.3583 41.0398 15.3211C41.1559 15.0751 41.293 14.8395 41.4494 14.6169C41.6307 14.3732 41.6669 14.0264 41.6669 14.0264L42.4591 13.6277L44.6856 13.1157L46.1305 13.2038L45.9492 14.2032L45.0959 15.9481L44.3658 17.5377L43.5319 18.5115L42.7656 19.0706H42.7653Z" fill="#543E26"/>
<path fill-rule="evenodd" clip-rule="evenodd" d="M46.3741 14.7456C46.3741 14.7456 45.5041 15.8225 45.2607 15.9884C45.416 15.657 46.3741 13.6841 46.7209 13.1352C46.6434 13.0731 46.5397 13.0731 46.783 12.1112C46.5762 12.5976 46.5035 12.8516 46.3328 12.9809C46.1622 13.1103 46.141 13.069 46.0256 13.069C46.0474 13.0296 46.0564 12.9844 46.0512 12.9396C46.0512 12.9396 45.3211 12.8516 44.8224 12.8516C44.3238 12.8516 43.3367 13.1209 42.7875 13.3383C42.3526 13.5195 42.1092 13.5195 41.9539 13.6332C41.7986 13.7626 41.7106 13.9025 41.6328 13.9387C41.5706 13.9749 41.2757 14.0681 41.2081 14.1664C41.146 14.2688 41.0426 14.3838 41.0426 14.4097C41.0426 14.4357 41.0167 14.4722 41.0945 14.4459C41.1201 14.4357 41.3119 14.3319 41.5293 14.2026C41.8242 14.037 42.1816 13.8455 42.4407 13.7315C43.181 13.4363 43.4141 13.4881 43.7452 13.426C44.092 13.3639 44.5893 13.2188 44.9204 13.2188C45.2518 13.2086 45.8785 13.2188 46.0236 13.2448C45.9615 13.2967 45.9096 13.3588 45.9355 13.5762C45.9355 13.6383 45.8836 13.7056 45.8331 13.8558C45.6782 14.2804 45.3829 14.9846 45.2187 15.3419C44.9911 15.8283 44.7323 16.2376 44.6043 16.4912C44.4763 16.7448 44.1947 17.4128 43.9159 17.7702C43.637 18.1275 43.4913 18.345 43.4039 18.4228C43.3165 18.5006 42.6892 18.9611 42.7359 19.127C42.8499 19.0908 43.5698 18.8198 44.0924 18.2313C44.6149 17.6429 44.719 17.2838 45.1279 16.9626C45.5368 16.6414 45.858 16.1031 46.0495 15.658C46.2099 15.2436 46.1738 15.1143 46.3755 14.7466L46.3741 14.7456Z" fill="#806031"/>
<path fill-rule="evenodd" clip-rule="evenodd" d="M27.6248 22.7833C27.6248 22.7833 27.5108 23.2544 27.2517 23.4875C26.9981 23.7155 26.5475 23.9121 26.4959 24.2955C26.4338 24.6784 26.9465 24.8703 26.9465 24.8703C26.9465 24.8703 26.6666 25.3311 26.6666 25.6779C26.6666 26.0352 26.6564 26.1025 26.6926 26.4441C26.6515 26.4706 26.6166 26.5055 26.5902 26.5465C26.5902 26.5465 26.6158 26.878 26.8697 27.0848C27.1237 27.2917 27.3408 27.4163 27.4701 27.3644C27.4899 27.4066 27.5072 27.4499 27.522 27.4941C27.522 27.4941 27.7138 27.0073 27.8432 26.5827C27.9726 26.1479 28.0866 26.2096 28.1381 25.6246C28.1897 25.0396 28.7525 24.035 28.7525 24.035L29.1366 23.1766L28.5102 22.6898L27.6248 22.783V22.7833Z" fill="#B6903C"/>
<path fill-rule="evenodd" clip-rule="evenodd" d="M28.7897 23.6271C28.6606 23.7597 28.5414 23.9016 28.433 24.0517C28.2675 24.2797 28.1381 24.4866 27.8947 24.575C27.6514 24.6634 27.4961 24.6627 27.5114 24.9064C27.5268 25.1501 27.7548 25.2532 27.8842 25.3774C28.0241 25.5068 28.1381 25.7242 28.076 25.9679C28.1535 25.9318 28.2934 25.8901 28.4228 25.6106C28.5522 25.331 29.4571 23.6274 29.4571 23.6274H28.7897V23.6271Z" fill="#685026"/>
<path fill-rule="evenodd" clip-rule="evenodd" d="M32.3584 19.697C32.3584 19.697 32.4359 19.4901 32.3584 19.3399C32.2806 19.1846 31.8096 19.1327 31.5764 18.9566C31.3331 18.7754 31.0378 18.6494 30.7944 18.7289C30.8306 18.6409 30.9757 18.4491 30.8566 18.4078C30.7426 18.3716 30.3183 18.5631 30.2043 18.6511C30.0903 18.7392 29.8312 18.8426 29.7797 18.9051C29.7281 18.9675 29.6397 19.0863 29.5878 19.0344C29.536 18.9983 29.5104 18.9051 29.4223 18.9566C29.3342 19.0082 28.9103 19.3553 28.8321 19.5574C28.754 19.7594 28.5782 20.21 28.0501 20.7223C27.5221 21.2347 27.2941 21.5664 27.4494 21.7579C27.6047 21.9494 27.6774 21.8098 27.7033 21.9754C27.7233 22.1379 27.7145 22.3026 27.6774 22.4621C27.6153 22.7314 27.5119 22.985 27.6515 23.0369C28.0088 23.1509 28.356 22.9345 28.4335 23.0007C28.5888 23.1403 28.3454 23.6428 28.713 23.7411C29.0861 23.8435 29.4537 23.653 29.4537 23.653L30.8101 22.9229L32.1151 22.2344L32.7827 20.9138L32.4246 19.811L32.3564 19.697H32.3584Z" fill="#D4B968"/>
<path fill-rule="evenodd" clip-rule="evenodd" d="M31.0784 22.8506C31.0784 22.8506 30.8504 22.5038 31.1303 22.1979C31.4102 21.8921 31.8085 21.7631 31.9638 21.5716C31.9343 21.5351 31.8946 21.5082 31.8498 21.4941C31.9529 21.3096 32.1102 21.1613 32.3004 21.0692C32.2229 20.9917 32.1191 20.9295 32.0055 20.9295C31.7515 20.9295 31.5959 21.0849 31.3631 21.0849C31.1354 21.0849 31.1095 20.9708 31.1095 20.9708C31.1095 20.9708 31.4928 20.9347 31.4563 20.7637C31.4201 20.5824 31.3539 20.5824 31.3539 20.5824C31.3539 20.5824 32.0942 20.2752 32.2236 20.1114C32.3529 19.9475 32.3376 19.754 32.3635 19.6765C32.4512 19.6765 32.9639 19.4072 33.1711 19.5212C33.3783 19.6352 33.2332 19.9458 33.2332 19.9458C33.2332 19.9458 33.8603 19.4745 34.1798 19.0123C34.4593 19.0382 34.5894 18.8208 34.7942 18.8208C35.0481 18.8208 35.4468 19.1676 35.5243 19.9079C35.5762 20.3326 35.6537 20.5759 35.5762 21.3269C35.54 21.7515 35.5502 22.6581 35.6786 23.1079C35.7663 23.4653 35.9735 23.4291 35.9735 23.4291C35.9417 23.538 35.8787 23.6352 35.7922 23.7087C35.6523 23.838 35.6369 24.18 35.6523 24.3094C35.6729 24.404 35.6989 24.4973 35.7301 24.589C35.7301 24.589 35.5646 24.7805 35.5229 24.9102C35.4867 25.0395 35.3161 25.1276 35.1915 25.1276C35.0669 25.1276 35.1294 25.117 34.9638 25.1276C34.7983 25.1382 34.7464 25.1638 34.6426 25.1276C34.5389 25.0914 34.4614 25.0498 34.503 24.718C34.5392 24.3866 33.224 23.6151 33.224 23.6151L31.0736 22.8489L31.0784 22.8506Z" fill="#CCA849"/>
<path fill-rule="evenodd" clip-rule="evenodd" d="M28.6085 26.123C28.6085 26.123 29.0796 26.7496 31.0163 26.7496C31.938 26.7496 32.2592 26.6616 32.45 26.6097C32.6572 26.5578 33.4337 26.2527 34.2157 25.3307C34.9199 24.4972 34.7646 24.1555 34.7646 24.1555L34.355 24.0934L33.0238 24.2746L29.0847 25.9523L28.6068 26.123H28.6085Z" fill="#585136"/>
<path fill-rule="evenodd" clip-rule="evenodd" d="M30.053 26.2782C30.053 26.2782 28.3754 26.6512 28.3754 25.5897C28.3754 24.5541 29.411 23.4667 29.67 23.2752C29.9394 23.0834 30.5814 22.8656 30.5814 22.8656H32.1297L32.4246 23.6476L32.2952 25.3354L30.053 26.2778V26.2782Z" fill="#252211"/>
<path fill-rule="evenodd" clip-rule="evenodd" d="M31.6014 23.182C31.6014 23.182 31.2805 22.8867 30.5504 23.2844C29.8203 23.682 29.2298 24.5132 29.1936 25.2679C29.1574 25.9355 29.7425 26.4329 30.6538 26.4588C31.3321 26.4844 31.7413 26.4069 31.9485 26.3564C31.8966 26.2943 31.6273 25.9577 31.6273 25.9577L31.6017 23.1823L31.6014 23.182Z" fill="#C3B378"/>
<path fill-rule="evenodd" clip-rule="evenodd" d="M31.2855 23.3472C31.2855 23.3472 31.208 23.2851 30.9783 23.4093C30.7868 23.5117 30.5073 23.7824 30.2899 23.9739C30.1499 24.0879 30.0619 24.1394 29.9827 24.2275C29.6615 24.6108 29.3922 25.2374 29.5478 25.5481C29.7035 25.8587 30.2158 26.216 31.5207 25.9727L31.2818 23.3475L31.2855 23.3472Z" fill="#E6D89C"/>
<path fill-rule="evenodd" clip-rule="evenodd" d="M30.8609 23.9896C30.8609 23.9896 30.6537 24.3108 30.6537 24.8235C30.6537 25.3464 30.9489 26.18 32.0364 26.2421C32.8699 26.294 33.429 25.0409 34.0349 24.5542C34.4957 24.1815 34.7752 24.1709 34.7752 24.1709C34.7752 24.1709 34.3042 23.6589 33.046 22.9957C31.8033 22.3277 30.4103 22.2396 29.6543 23.265C30.0117 23.239 31.1664 22.9438 31.1664 22.9438L31.7309 23.125L30.8609 23.99V23.9896Z" fill="#252211"/>
<path fill-rule="evenodd" clip-rule="evenodd" d="M32.4867 24.6678C32.4506 24.5903 32.4246 24.4865 32.5748 24.4609C32.725 24.4353 32.7922 24.4504 32.8441 24.5633C32.8959 24.6763 32.9464 24.7705 32.8697 24.8173C32.7922 24.8586 32.5901 24.8173 32.4864 24.6671L32.4867 24.6678ZM32.2434 23.9377C32.2434 23.9377 32.1915 23.9739 32.2175 23.9015C32.2277 23.8138 32.2953 23.6581 32.4608 23.6947C32.6263 23.7312 32.5905 23.9121 32.5632 23.964C32.5359 24.0159 32.3977 24.1036 32.2939 24.0664C32.2808 24.063 32.2686 24.0566 32.2584 24.0476C32.2482 24.0387 32.2402 24.0275 32.2352 24.0149C32.2301 24.0022 32.2281 23.9886 32.2293 23.9751C32.2305 23.9616 32.2349 23.9485 32.242 23.937L32.2434 23.9377Z" fill="#6F674D"/>
<path fill-rule="evenodd" clip-rule="evenodd" d="M18.2272 24.2688C18.2272 24.2688 18.6368 24.576 19.1126 24.564C19.5836 24.5535 20.1895 24.0671 20.469 23.7561C20.6346 23.5749 20.7762 23.3834 20.9298 23.2332C21.0596 23.1038 21.1473 23.0417 21.2094 22.9536C21.2975 22.8512 21.3906 22.6587 21.4374 22.5963C21.3234 22.6843 21.1579 22.84 20.9869 22.9434C20.8213 23.0458 20.4639 23.2383 20.3189 23.2902C20.1793 23.3421 18.7293 24.1094 18.7293 24.1094L18.2272 24.2688Z" fill="#AC924C"/>
<path fill-rule="evenodd" clip-rule="evenodd" d="M18.8531 20.4428C18.8531 20.4428 19.0808 20.2875 19.5211 20.1888C19.9458 20.0864 20.8001 20.0076 20.8001 20.0076L21.5043 20.3148L21.7838 21.3763L21.2718 22.4795L20.6195 22.8891L19.8789 21.6982L18.8549 20.4448L18.8531 20.4428Z" fill="#9F8E57"/>
<path fill-rule="evenodd" clip-rule="evenodd" d="M17.9316 21.3904L17.6879 21.5723C17.6879 21.5723 17.7503 21.4583 17.8019 21.1115C17.8534 20.7647 18.1231 19.9206 18.5166 19.4338C18.9102 18.9471 18.8999 18.973 18.8999 18.973C18.8637 18.9664 18.8265 18.9676 18.7908 18.9764C18.7551 18.9853 18.7216 19.0017 18.6928 19.0246C18.7446 18.9099 19.0761 18.5003 19.4075 18.2955C19.7389 18.0907 19.8683 18.0261 20.2151 18.1931C20.5619 18.36 20.65 18.4467 20.9039 18.4364C21.1579 18.4262 21.375 18.1569 21.375 18.1569C21.375 18.1569 21.4268 18.3224 21.2354 18.7057C21.0439 19.0891 20.2878 19.8707 20.2878 19.8707L18.7136 20.9477L17.9316 21.3914V21.3904Z" fill="#EAC970"/>
<path fill-rule="evenodd" clip-rule="evenodd" d="M19.0962 20.3134C19.0962 20.3134 20.2356 20.4687 20.5824 20.1479C20.5926 20.184 20.6343 20.184 20.6343 20.21C20.6315 20.2295 20.6224 20.2476 20.6083 20.2615C20.646 20.2555 20.6841 20.2521 20.7223 20.2513C20.7679 20.2649 20.8148 20.2735 20.8623 20.2772C20.9005 20.2764 20.9386 20.2729 20.9763 20.2666C20.9727 20.2924 20.9639 20.3171 20.9506 20.3394C20.9372 20.3617 20.9195 20.3811 20.8985 20.3963C20.9503 20.3963 21.0009 20.4066 21.0009 20.4479C21.0009 20.4892 21.0111 20.6138 20.949 20.6397C20.8975 20.6539 20.8427 20.6502 20.7937 20.6291C20.7978 20.7272 20.8244 20.8229 20.8715 20.909C20.9739 21.1005 21.1923 21.3186 21.4859 21.2558C21.4859 21.2558 21.6409 21.6286 20.9886 22.457C20.9008 22.571 20.8073 22.7263 20.6937 22.8557C20.6487 22.9535 20.6144 23.056 20.5913 23.1611C20.5913 23.1611 21.6944 22.7365 22.0102 21.7682C22.3314 20.7947 22.3935 19.8369 22.3314 18.9412C22.3208 18.6873 22.2795 18.5064 22.2174 18.3767C22.0621 18.0555 21.6269 18.1074 21.4511 18.2886C21.1971 18.5426 20.7725 19.174 20.1823 19.6089C19.5816 20.0437 19.556 20.1209 19.0948 20.3134H19.0962Z" fill="#D7BC6B"/>
<path fill-rule="evenodd" clip-rule="evenodd" d="M17.7296 21.7115C17.7296 21.7115 17.5121 21.8409 17.3981 22.3259C17.2841 22.8229 17.5005 23.4288 17.6258 23.6202C17.7511 23.8117 18.0354 24.335 18.6253 24.3609C18.7713 24.3602 18.9156 24.3302 19.0499 24.2729C19.2558 24.1785 19.449 24.0584 19.6247 23.9155C19.8787 23.724 20.0856 23.5585 20.0596 23.5428C19.9975 23.5168 18.4959 22.274 18.4959 22.274L17.9313 21.6439L17.7292 21.7122L17.7296 21.7115Z" fill="#585136"/>
<path fill-rule="evenodd" clip-rule="evenodd" d="M19.1488 23.7721C19.1488 23.7721 19.4543 23.7465 19.6355 23.6325C19.8168 23.5185 18.574 22.2863 18.574 22.2863L18.662 23.6175L19.1488 23.7721Z" fill="#453A25"/>
<path fill-rule="evenodd" clip-rule="evenodd" d="M17.8278 21.618C17.8278 21.618 17.6725 21.9132 17.6725 21.9911C17.6465 22.2447 17.7244 23.042 17.7865 23.2956C17.8486 23.5649 18.1852 23.9739 18.6204 23.9739C18.8893 23.9739 19.2624 23.8083 19.2624 23.767C19.2624 23.7151 18.8791 23.6646 18.7757 23.4718C18.7135 23.3694 18.6876 23.1147 18.6733 22.8574C18.663 22.6918 18.663 22.5106 18.7251 22.4478C18.8651 22.2925 18.8907 21.847 18.8907 21.847L19.3877 20.9237H18.734L17.952 21.4104L17.8278 21.618Z" fill="#84754B"/>
<path fill-rule="evenodd" clip-rule="evenodd" d="M17.6364 21.903C17.6364 21.903 18.1483 21.2248 18.6098 21.0691C19.0713 20.9135 19.2778 21.007 19.2778 21.007L19.0085 21.6958L18.6252 22.1204L18.6511 22.3378C18.6511 22.3378 18.5887 22.9126 18.972 23.3113C19.3553 23.71 19.6399 23.6946 19.8058 23.6946C19.9717 23.6946 20.4479 23.5547 20.6912 22.9799C20.9087 22.4416 21.0899 21.7511 20.655 21.0589C20.2301 20.3701 19.4795 20.3434 19.3345 20.3434C19.1894 20.3434 18.0504 20.4004 17.6364 21.902V21.903Z" fill="#252211"/>
<path fill-rule="evenodd" clip-rule="evenodd" d="M30.7831 24.207C30.5917 24.119 30.7729 23.5807 30.9644 23.4148C31.1559 23.2489 31.3993 23.0578 31.8242 23.0315C31.9792 23.0213 32.1294 23.1196 32.1038 23.2233C32.0676 23.4148 31.7983 23.6841 31.5549 23.8756C31.2184 24.1398 31.0006 24.3053 30.7831 24.207Z" fill="#F7F7E7"/>
<path fill-rule="evenodd" clip-rule="evenodd" d="M20.4272 21.2712C20.5671 21.261 20.7484 21.3736 20.7845 21.5252C20.8207 21.6907 20.6965 22.0222 20.4272 22.0222C20.2097 22.0222 20.0957 21.7529 20.0957 21.6754C20.0982 21.6117 20.116 21.5495 20.1476 21.4941C20.1578 21.4784 20.1838 21.2972 20.4272 21.2712V21.2712Z" fill="#F8F6DE"/>
<path fill-rule="evenodd" clip-rule="evenodd" d="M18.4078 21.3903C18.4078 21.3903 18.0504 21.5559 17.8848 21.9023C17.7665 22.1581 17.7308 22.4444 17.7824 22.7215C17.8084 22.8508 17.9377 23.1717 18.0258 23.2857C18.1139 23.3997 18.233 23.4775 18.3211 23.4669C18.4091 23.4563 18.59 23.2236 18.59 23.084C18.59 22.9444 18.6006 22.3539 18.7713 22.0327C18.9215 21.7118 18.4088 21.3907 18.4088 21.3907L18.4078 21.3903Z" fill="#D4C38B"/>
<path fill-rule="evenodd" clip-rule="evenodd" d="M18.4596 21.3644C18.3975 21.4006 18.2941 21.4525 18.3197 21.5197C18.3456 21.5818 18.563 21.6221 18.6409 21.7736C18.7289 21.9289 18.7289 22.0945 18.703 22.1723C18.7706 22.1402 18.832 22.0963 18.8842 22.0426C18.9982 21.9132 19.1378 21.7375 19.257 21.7375C19.3348 21.7375 19.4123 21.7736 19.485 21.7736C19.599 21.7736 19.7127 21.7375 19.7284 21.6183C19.754 21.463 19.5109 21.3231 19.371 21.349C19.3969 21.2467 19.4331 21.0954 19.3191 20.9917C19.2051 20.8879 18.8481 21.0695 18.7702 21.1214C18.6924 21.1733 18.4596 21.3647 18.4596 21.3647V21.3644Z" fill="#E2D59D"/>
<path fill-rule="evenodd" clip-rule="evenodd" d="M26.6875 32.2434L27.4538 32.0171L27.6712 32.1724C27.6712 32.1724 27.8262 32.5038 28.0699 32.5451C27.9921 32.7107 27.79 32.8523 27.8006 32.9698C27.8112 33.0872 27.9146 33.1769 27.9146 33.1769C27.9146 33.1769 27.2258 34.316 28.5826 35.4639C28.2614 35.5932 27.8525 35.7711 27.6351 35.8735C27.79 35.9097 28.1215 35.9759 28.2614 36.1015C28.4013 36.2271 28.4013 36.267 28.5307 36.3449C28.6601 36.4227 28.7376 36.5261 28.712 36.5725C28.6239 36.5206 28.3286 36.3657 28.2771 36.5104C28.2256 36.6551 26.9981 36.5985 26.9981 36.5985L24.9269 36.9971C24.9269 36.9971 25.0044 36.79 24.787 36.5985C24.5334 36.3708 24.2227 36.6087 23.8913 36.3551C23.4565 36.0237 23.4408 35.6403 23.3011 35.4956C23.4408 35.4076 23.7258 35.2782 24.404 35.1884C24.3781 35.1365 24.29 34.9812 24.3419 34.8416C24.404 34.6604 24.6627 34.5464 24.5852 34.3296C24.6992 34.3037 24.7508 34.3037 25.0358 33.9463C25.3051 33.5889 25.4707 33.5114 25.6779 33.4855C25.885 33.4596 26.0093 33.4855 26.3926 33.1281C26.6616 32.8745 26.5739 32.6571 26.5739 32.6571C26.5739 32.6571 26.7496 32.6001 26.6879 32.2427L26.6875 32.2434Z" fill="#CBAC5A"/>
<path fill-rule="evenodd" clip-rule="evenodd" d="M24.4248 32.3585C24.435 32.3066 24.4767 32.2807 24.7562 32.3066C25.0358 32.3325 26.8066 32.1411 27.2882 32.1151C27.775 32.0789 29.4888 32.1045 30.3227 32.2807C31.1566 32.4568 32.0004 32.6639 32.4093 32.7674C32.8189 32.8814 32.9479 32.9223 32.9322 32.9742C32.922 33.0261 32.8298 33.0766 32.7769 33.0622C32.7254 33.052 31.3686 32.6377 30.9494 32.5503C30.5303 32.4629 29.0799 32.2291 28.287 32.2431C27.5466 32.2537 27.2514 32.2329 26.625 32.3052C25.9983 32.383 24.9627 32.4865 24.6521 32.4452C24.3449 32.409 24.4084 32.409 24.4241 32.3571L24.4248 32.3585Z" fill="#D6BC6F"/>
<path fill-rule="evenodd" clip-rule="evenodd" d="M28.5927 36.4168C28.5927 36.4168 29.6543 36.9916 30.0376 37.6958C30.3171 38.2187 29.872 38.4778 29.872 38.4778C29.872 38.4778 30.4728 38.4778 30.395 38.8092C30.3588 39.016 29.3594 39.5751 28.6914 39.8704C28.0131 40.1656 28.0391 40.1503 27.7077 40.2018C27.3865 40.2537 26.5062 40.0994 26.3249 40.3571C26.1437 40.6148 26.2225 40.8804 26.273 40.9217C26.3249 40.9579 26.7444 41.0098 26.7444 41.0098C26.7444 41.0098 26.6564 41.2531 25.7866 41.2791C24.9169 41.305 24.6992 41.3668 24.6473 41.4603C24.5954 41.548 24.8128 41.4965 25.2118 41.5627C25.6105 41.6248 26.1696 41.6651 26.1696 41.6651C26.1696 41.6651 25.9884 41.8204 25.5173 41.9447C24.9787 42.0843 24.1346 42.214 23.881 42.3693C24.0103 42.4573 24.2022 42.5867 24.2906 42.5969C24.0732 42.6488 23.7673 42.7628 23.7158 42.8041C23.7933 42.856 23.897 42.9181 23.897 42.9181C23.897 42.9181 23.4618 43.441 23.2082 43.5707C22.9546 43.7005 21.4944 44.3783 20.9919 44.249C19.7389 43.9175 19.5836 42.5454 19.2781 42.442C18.8173 42.2867 18.5999 42.5969 18.1906 42.3795C18.3719 42.2501 18.4705 42.1727 18.662 42.0846C18.4548 41.9822 17.383 41.3026 17.383 41.3026C17.271 41.0583 17.1466 40.8199 17.0103 40.5882C16.8031 40.2308 16.4983 39.7543 16.2696 39.3349C15.7726 38.4133 15.7467 37.9886 15.2961 37.4657C15.374 37.3633 15.6429 37.3777 15.6429 37.3777L19.4181 38.6204L26.1119 38.8143L27.8527 36.3291L28.5931 36.4172L28.5927 36.4168Z" fill="#DFC677"/>
<path fill-rule="evenodd" clip-rule="evenodd" d="M18.6771 40.207C18.7175 40.252 18.7646 40.2904 18.8167 40.321C18.9464 40.4091 19.1379 40.5128 19.2673 40.6678C19.3192 40.5903 19.4485 40.4504 19.6769 40.6678C19.9052 40.8852 20.1889 40.7303 20.3654 40.7818C20.5466 40.8443 20.5568 40.8699 20.5568 40.8699C20.5568 40.8699 20.6592 40.7818 20.8883 40.6886C21.0282 40.6367 21.1938 40.6006 21.375 40.549C21.5406 40.5128 21.7218 40.461 21.8464 40.461C21.9604 40.5384 22.3693 40.973 24.0108 40.3316C25.5591 39.7308 25.9161 39.6636 26.1752 39.7564C26.2011 39.6943 26.2271 39.5752 26.6258 39.5909C26.6258 39.4253 26.2943 38.8608 26.2943 38.8608L24.4665 38.2344H23.4667L20.4688 38.7833L18.8075 39.7312L18.6781 40.209L18.6771 40.207Z" fill="#C4A859"/>
<path fill-rule="evenodd" clip-rule="evenodd" d="M17.6776 39.1561C17.6776 39.1561 17.7138 39.4356 18.1282 39.7309C18.5378 40.0258 18.6665 40.2019 18.6665 40.2019C18.6665 40.2019 18.7443 40.0995 18.8064 39.9951C18.8685 39.881 18.9204 39.7517 19.0238 39.7155C19.231 39.6274 19.7021 39.793 19.8058 39.767C19.8939 39.7414 19.8679 39.5602 19.9611 39.5602C20.1786 39.5496 20.3182 39.6998 20.396 39.6998C20.4738 39.6998 20.665 39.6896 20.6909 39.6483C20.7168 39.607 20.7271 39.1769 21.0223 38.9697C21.3435 38.742 21.7371 38.8403 21.8415 38.8922C21.8415 38.9697 21.8518 39.1615 22.059 39.1718C22.2662 39.182 22.2866 39.1458 22.4686 39.2079C22.6505 39.2701 22.8672 39.1977 22.9655 39.5029C23.0536 39.4773 23.2608 39.4513 23.2089 39.1561C23.3113 39.0786 23.4007 39.0267 23.6185 38.7212C23.6704 38.6437 23.7581 38.5557 23.8257 38.4416C24.007 38.4416 24.2244 38.4055 24.5142 38.6591C24.4261 38.7212 24.3742 38.7615 24.3486 38.8246C24.4244 38.8997 24.4936 38.9811 24.5555 39.068C24.6333 39.1704 24.6852 39.296 24.7835 39.3219C25.0009 39.3841 25.3583 39.296 25.757 39.3219C26.1403 39.3479 26.4611 39.4875 26.6011 39.5756C26.653 39.55 26.653 39.5394 26.7823 39.5653C26.9117 39.5913 27.01 39.6015 26.8704 39.436C26.9479 39.4721 27.0359 39.55 27.1138 39.4721C27.1916 39.3943 27.2534 39.2806 27.4708 39.2547C27.6882 39.2288 27.7661 39.2649 27.8541 39.0373C27.9681 38.7577 27.5746 38.7577 27.5746 38.7577C27.5746 38.7577 27.7558 38.5918 27.9579 38.3744C28.2013 38.1467 28.4808 37.8515 28.5481 37.489C28.6621 36.821 28.0098 36.7333 28.0098 36.7333L24.846 37.7068L20.978 37.5149L17.6797 39.1564L17.6776 39.1561Z" fill="#927D49"/>
<path fill-rule="evenodd" clip-rule="evenodd" d="M14.835 30.0168C14.835 30.0168 14.7326 30.1462 14.6694 30.4517C14.6063 30.7572 14.6333 30.721 14.5814 30.9385C14.5295 31.1559 13.8922 33.3203 14.1312 34.0505C14.3701 34.7806 14.7838 35.0499 15.0425 35.6401C15.0944 35.7694 15.1449 35.8473 15.1719 35.9613C15.2599 36.3443 15.1825 36.6395 15.2859 37.0228C15.3221 37.1522 15.4156 37.3024 15.5552 37.4577C15.8624 37.7786 16.3631 38.0841 16.5792 38.3015C16.8844 38.6227 17.3196 39.2753 17.8735 39.3371C18.1688 39.3733 18.5883 39.2491 18.9351 39.0422C19.2423 38.8504 19.4321 38.5814 19.7543 38.4278C19.982 38.3138 20.2253 38.2725 20.4428 38.2206C20.8933 38.1325 21.3026 38.1182 21.5459 38.1687C21.9187 38.2465 22.799 38.5159 23.2867 38.5159C23.6679 38.5097 24.0469 38.4576 24.4155 38.3605C25.1559 38.1431 26.0515 37.77 26.6421 37.6045C26.9888 37.5021 27.2684 37.4751 27.5534 37.413C28.0402 37.299 28.4491 37.1437 28.6822 36.8484C28.5269 36.6672 28.3354 36.3876 27.2995 36.3978C26.1242 36.4238 24.7674 37.0761 24.0995 37.1799C23.4315 37.2836 23.1417 37.3713 22.3959 37.102C21.6647 36.83 21.6405 36.6501 21.6405 36.6501C21.6405 36.6501 20.8728 36.1132 20.5516 34.7444C20.2304 33.3756 20.5516 32.3782 21.3855 31.4303C21.6029 31.187 21.5511 30.9695 21.5511 30.9695C21.5511 30.9695 22.0999 30.2292 21.9497 29.5359C21.7842 28.8471 20.7226 28.987 20.7226 28.987L14.8353 30.0168H14.835Z" fill="#6E6342"/>
<path fill-rule="evenodd" clip-rule="evenodd" d="M15.7204 32.3212C15.6748 32.407 15.6533 32.5036 15.6583 32.6007C15.6685 32.7403 15.7102 32.9216 16.1293 33.3308C16.4867 33.6878 16.4089 34.0865 16.4089 34.0865C16.4089 34.0865 16.5888 34.1227 17.0769 33.8943C17.4602 33.7131 17.5889 34.0343 17.5889 34.0343C17.7005 33.9758 17.8214 33.9372 17.9463 33.9203C18.0594 33.9099 18.1689 33.8749 18.2671 33.8179C18.2671 33.8179 18.7177 34.2787 19.1112 34.4961C19.4686 34.6879 19.6758 34.8173 19.8519 34.6879C20.0175 34.5739 20.0175 34.3408 20.0069 34.2374C19.9658 34.1419 19.9138 34.0515 19.8519 33.9681C19.7379 33.8025 19.5567 33.6107 19.5447 33.4561C19.5188 33.099 19.814 32.6741 19.7516 32.5707C19.6891 32.4673 19.4566 32.4413 18.8818 32.6485C18.2866 32.8451 15.718 32.3222 15.718 32.3222L15.7204 32.3212Z" fill="#39331F"/>
<path fill-rule="evenodd" clip-rule="evenodd" d="M17.0769 34.6359C17.0769 34.6359 16.7821 34.3563 16.8855 32.9996C17.0107 32.9977 17.1357 33.0099 17.2581 33.0357C17.2581 33.0357 17.4189 34.087 17.0769 34.6359Z" fill="#292311"/>
<path fill-rule="evenodd" clip-rule="evenodd" d="M14.975 28.9813C15.0162 28.9508 15.0543 28.9165 15.089 28.8789C14.9866 29.0703 14.5139 29.8366 14.8972 31.0432C15.2805 32.2444 16.2434 33.14 17.4292 33.1817C18.615 33.2233 19.2383 32.643 19.951 31.7733C20.2305 31.4265 20.5517 30.9913 20.8364 30.6964C21.261 30.2353 21.5924 30.1059 21.5924 29.6608C21.5924 28.7495 20.6603 28.3402 19.2881 27.9313C17.9159 27.5224 16.6783 27.5729 16.0362 27.8528C15.4099 28.158 15.1406 28.4792 14.9747 28.9816L14.975 28.9813Z" fill="#252211"/>
<path fill-rule="evenodd" clip-rule="evenodd" d="M19.3813 35.0447L19.4837 34.9928C19.4837 34.9928 19.5093 34.5832 19.6751 34.5941C19.8407 34.6201 19.9185 34.8379 19.9028 34.9154C19.8925 34.9928 19.8512 35.1226 19.6854 35.1069C19.468 35.112 19.3802 35.0447 19.3802 35.0447H19.3813Z" fill="#3F3824"/>
<path fill-rule="evenodd" clip-rule="evenodd" d="M18.9204 33.3049C18.9204 33.3049 19.0228 33.2687 19.1481 33.3929C19.2505 33.3929 19.6969 33.3411 19.8369 33.4291C19.9768 33.5172 20.0181 33.5946 20.0181 33.5946C20.0181 33.5946 19.4952 33.7086 19.2102 33.5946C18.9204 33.4964 18.9204 33.3049 18.9204 33.3049V33.3049Z" fill="#2D2815"/>
<path fill-rule="evenodd" clip-rule="evenodd" d="M21.2248 33.3824C21.2248 33.3564 20.9452 33.165 20.6499 33.1025C20.5981 33.0923 20.5875 33.1285 20.5475 33.1285C20.5216 33.1182 20.5114 33.0404 20.5114 33.0404L20.3434 33.1288C20.3434 33.1288 20.3175 33.165 20.4055 33.2312C20.483 33.2933 20.6127 33.3452 20.6489 33.4486C20.6851 33.552 20.6851 33.5881 20.7008 33.6038C20.711 33.6141 20.8923 33.6038 20.9804 33.552C21.0684 33.5001 21.2343 33.4155 21.2238 33.3813L21.2248 33.3824Z" fill="#82764F"/>
<path fill-rule="evenodd" clip-rule="evenodd" d="M18.6099 34.4337C18.6099 34.4337 18.6614 34.0767 19.0085 34.061C19.3656 34.035 19.4332 34.3818 19.4332 34.3818L19.226 34.589C19.226 34.5839 19.0707 34.3665 18.6116 34.4337H18.6099Z" fill="#2D2816"/>
<path fill-rule="evenodd" clip-rule="evenodd" d="M20.8623 32.8956C20.8623 32.8956 20.6705 33.1028 20.2462 33.165C20.21 33.1131 20.1322 33.0096 20.2462 32.844C20.3602 32.6785 20.4896 32.6266 20.619 32.6781C20.676 32.6874 20.7293 32.7128 20.7724 32.7513C20.8155 32.7898 20.8467 32.8399 20.8623 32.8956V32.8956Z" fill="#574F35"/>
<path fill-rule="evenodd" clip-rule="evenodd" d="M21.644 33.1496C21.6546 33.0977 21.6184 33.0875 21.644 33.0615C21.6696 33.0356 21.8099 32.984 21.8358 33.0096C21.8461 33.0202 21.8358 33.0615 21.8358 33.112C21.8358 33.1625 21.8358 33.2144 21.8099 33.2516C21.7737 33.3035 21.6703 33.3294 21.6184 33.3141C21.5665 33.2987 21.5563 33.226 21.5563 33.2117C21.5819 33.2015 21.644 33.1755 21.644 33.1496ZM22.528 32.5905C22.528 32.5646 22.6161 32.5127 22.668 32.5127C22.7455 32.5127 22.7455 32.5748 22.7561 32.5905C22.7817 32.6008 22.7817 32.5799 22.8076 32.6267C22.8335 32.6734 22.8701 32.756 22.8438 32.8079C22.8175 32.8598 22.7144 32.8956 22.6888 32.8854C22.6526 32.8595 22.5386 32.6267 22.528 32.5905V32.5905Z" fill="#82764F"/>
<path fill-rule="evenodd" clip-rule="evenodd" d="M20.7483 33.2687C20.7483 33.2687 20.8623 33.2943 21.0176 33.424C20.9657 33.4602 20.8879 33.5015 20.8879 33.5015C20.8879 33.5015 20.8777 33.3824 20.7483 33.2684V33.2687Z" fill="#6E6342"/>
<path fill-rule="evenodd" clip-rule="evenodd" d="M20.4947 32.1295C20.4688 32.1039 20.5722 32.0417 20.6343 32.052C20.6964 32.0622 20.7224 32.1039 20.7896 32.1141C20.8569 32.1243 20.8674 32.0882 20.892 32.0622C20.9166 32.0363 21.006 32.052 21.0214 32.0622C21.031 32.0736 21.0396 32.0857 21.0473 32.0984C21.0484 32.0787 21.0535 32.0594 21.0624 32.0418C21.0713 32.0242 21.0837 32.0086 21.0989 31.996C21.1187 31.9814 21.1416 31.9715 21.1659 31.967C21.1901 31.9625 21.215 31.9635 21.2388 31.97C21.2491 32.0062 21.3009 32.1356 21.2907 32.1615C21.2805 32.1875 21.1252 32.224 21.0989 32.1977C21.1248 32.2602 21.2388 32.3896 21.2542 32.4152C21.2695 32.4408 21.1402 32.5032 21.0886 32.493C21.0163 32.4879 20.5708 32.2288 20.4933 32.1305L20.4947 32.1295ZM21.1729 31.2699C21.1634 31.2438 21.145 31.2219 21.1211 31.2078C21.0849 31.1976 20.9657 31.2078 20.9657 31.2699C20.9657 31.3321 21.0681 31.6796 21.1832 31.8605C21.3129 32.0417 21.4006 32.1916 21.4887 32.2332C21.5163 32.2458 21.5477 32.2475 21.5765 32.2378C21.6054 32.2282 21.6295 32.208 21.644 32.1813C21.6542 32.1554 21.6802 31.9639 21.6699 31.5133C21.6597 31.0627 21.644 30.6278 21.6181 30.6019C21.5921 30.576 21.4887 30.5763 21.4525 30.6278C21.4163 30.6794 21.1832 31.1924 21.1726 31.2699H21.1729Z" fill="#585136"/>
<path fill-rule="evenodd" clip-rule="evenodd" d="M20.7122 33.9211C20.7122 33.9211 20.5309 33.8072 20.3548 33.885C20.1892 33.9628 20.1995 34.2682 20.1995 34.2682C20.2367 34.2828 20.277 34.288 20.3167 34.2835C20.3564 34.279 20.3945 34.2648 20.4275 34.2422C20.5415 34.1648 20.6863 34.0355 20.7122 33.9215V33.9211Z" fill="#574F35"/>
<path fill-rule="evenodd" clip-rule="evenodd" d="M21.0538 34.3302C21.0436 34.2278 20.9514 34.2278 20.9514 34.1749C20.9578 34.1496 20.9724 34.1272 20.993 34.1112C21.0136 34.0953 21.039 34.0867 21.0651 34.0868C21.117 34.0868 21.1675 34.149 21.231 34.1893C21.2931 34.2254 21.3863 34.2917 21.3965 34.3705C21.4068 34.4494 21.2941 34.6654 21.1688 34.6654C21.0436 34.6654 21.0808 34.4323 21.0548 34.3289L21.0538 34.3302ZM22.0532 34.1903C22.0532 34.1903 21.846 34.2524 21.8614 34.1903C21.8768 34.1282 21.9239 34.1128 21.9911 34.1128C22.0253 34.077 22.0712 34.0548 22.1205 34.0503C22.1487 34.0489 22.1763 34.0582 22.198 34.0763C22.198 34.0763 22.3379 34.0141 22.3792 34.0503C22.4205 34.0865 22.3898 34.0865 22.4154 34.1282C22.448 34.1744 22.4694 34.2275 22.4779 34.2835C22.4779 34.3248 22.3226 34.4128 22.198 34.3975C22.0532 34.3664 22.0788 34.2162 22.0532 34.1903V34.1903ZM23.2595 33.9571C23.2595 33.9571 23.3216 33.9933 23.2701 34.035C23.2339 34.0711 23.0527 34.1374 22.897 34.149C22.7417 34.149 22.6021 34.1746 22.6021 34.123C22.6021 34.0715 22.7315 33.9677 22.809 33.9418C22.8245 33.9223 22.8442 33.9066 22.8667 33.8959C22.8892 33.8851 22.9138 33.8796 22.9387 33.8797C23.0008 33.8797 23.2438 33.8537 23.3114 33.8435C23.3735 33.8329 23.4254 33.8691 23.3889 33.921C23.3735 33.9571 23.2595 33.9571 23.2595 33.9571V33.9571ZM23.6169 32.3583C23.6169 32.3583 23.5391 32.5238 23.4513 32.5238C23.3633 32.5136 23.3633 32.4877 23.3633 32.4617C23.3633 32.4255 23.4513 32.3323 23.4408 32.3064C23.4152 32.3064 23.3527 32.3064 23.3633 32.2443C23.3633 32.1924 23.4513 32.1303 23.5288 32.1419C23.5874 32.0938 23.6603 32.0665 23.736 32.0644C23.8241 32.0644 23.9016 32.09 23.9016 32.1419C23.9016 32.1938 23.7992 32.3074 23.7616 32.3337C23.7203 32.375 23.6684 32.402 23.6169 32.3593V32.3583ZM22.4362 35.4184C22.4362 35.4184 22.3338 35.429 22.3338 35.4806C22.3338 35.5065 22.3594 35.5065 22.3959 35.4911C22.417 35.4899 22.4378 35.4864 22.4581 35.4806C22.4683 35.4911 22.4683 35.5427 22.5461 35.5427C22.61 35.5341 22.6716 35.5129 22.7274 35.4806C22.7895 35.455 22.8414 35.4287 22.8414 35.3781C22.8154 35.2901 22.7636 35.2484 22.6861 35.2484C22.6464 35.2459 22.6068 35.2549 22.5721 35.2744C22.5721 35.2744 22.5461 35.2225 22.4581 35.2744C22.37 35.3263 22.3802 35.3263 22.4062 35.3522C22.4526 35.3935 22.4372 35.4205 22.4372 35.4205L22.4362 35.4184ZM21.8512 35.9571C21.8512 35.9311 21.9805 35.8792 22.0167 35.8949C22.0529 35.9052 22.1563 36.1018 22.1563 36.1226C22.1563 36.1486 22.027 36.2107 21.9751 36.2107C21.9232 36.2107 21.8355 36.1226 21.8355 36.1083C21.8355 36.098 21.8976 36.0827 21.8976 36.0721C21.913 36.0465 21.8512 35.984 21.8512 35.9581V35.9571ZM21.4416 35.201C21.4675 35.1908 21.4675 35.1648 21.5037 35.1389C21.515 35.1313 21.5279 35.1265 21.5414 35.1247C21.5549 35.1229 21.5686 35.1243 21.5815 35.1286C21.5906 35.1123 21.6033 35.0983 21.6185 35.0875C21.6337 35.0767 21.6512 35.0694 21.6696 35.0662C21.7317 35.0559 21.7836 35.0662 21.772 35.0921C21.772 35.1699 21.8239 35.2215 21.8239 35.2836C21.8239 35.3457 21.7877 35.4235 21.6583 35.4754C21.529 35.5116 21.3528 35.5116 21.3269 35.5014C21.3009 35.4911 21.275 35.3874 21.3009 35.3355C21.3269 35.2836 21.3992 35.2269 21.4409 35.201H21.4416Z" fill="#82764F"/>
<path fill-rule="evenodd" clip-rule="evenodd" d="M21.6065 35.2362C21.6065 35.2362 21.5184 35.2881 21.5184 35.314C21.5105 35.3391 21.5071 35.3653 21.5081 35.3915C21.5081 35.4068 21.6222 35.3812 21.6375 35.3655C21.6427 35.3553 21.6065 35.2632 21.6065 35.2362Z" fill="#6E6342"/>
<path fill-rule="evenodd" clip-rule="evenodd" d="M20.8363 34.9928C20.8879 35.0034 20.9759 34.9928 21.0432 35.0188C21.095 35.0447 21.1312 35.0966 21.0793 35.1587C21.0275 35.2208 20.977 35.3139 20.8619 35.2982C20.7326 35.288 20.6083 35.2208 20.6083 35.1689C20.6062 35.1361 20.6105 35.1032 20.6212 35.0721C20.6319 35.041 20.6486 35.0123 20.6705 34.9877C20.7223 34.9464 20.7479 34.9724 20.836 34.9928H20.8363Z" fill="#585136"/>
<path fill-rule="evenodd" clip-rule="evenodd" d="M20.7741 35.0447C20.7741 35.0447 20.6086 35.174 20.5669 35.2365C20.5151 35.2986 20.2615 35.6195 20.184 35.6867C20.2097 35.6413 20.2391 35.5981 20.2717 35.5574C20.1693 35.6228 20.0926 35.7215 20.0543 35.8369C19.9922 36.0287 20.4014 36.1322 20.6704 36.21C20.9393 36.2878 21.0434 36.3124 21.0434 36.3124C20.9444 36.1636 20.8594 36.0059 20.7895 35.8414C20.6871 35.598 20.6342 35.572 20.7014 35.458C20.7533 35.344 20.8311 35.2665 20.8311 35.1785C20.8 35.0966 20.7741 35.0447 20.7741 35.0447Z" fill="#574F35"/>
<path fill-rule="evenodd" clip-rule="evenodd" d="M14.8712 35.454C14.9089 35.4609 14.9475 35.4609 14.9852 35.454C15.0627 35.4434 15.8706 35.1467 16.7147 35.2C17.3466 35.2382 17.973 35.3411 18.5838 35.5072C19.6454 35.7868 20.9657 36.3408 21.82 36.6569C22.0477 36.7446 22.2706 36.9002 22.4344 36.962C23.0871 37.216 23.1127 37.216 23.496 37.2832C23.9465 37.3454 24.4073 37.1952 24.889 37.0917C25.4791 36.962 26.4888 36.8999 27.3742 36.7705C27.6605 36.7308 27.9429 36.6668 28.2183 36.579C28.2183 36.579 27.5142 37.2832 25.8259 37.5369C25.1435 37.6405 24.4501 37.6492 23.7653 37.5628C23.2267 37.5109 22.8696 37.4331 22.6003 37.3556C22.2948 37.2675 21.6681 37.0344 20.8967 36.8436C20.3581 36.7036 19.7574 36.6002 19.0689 36.4708C17.3704 36.1599 15.5272 35.8028 14.8705 35.456L14.8712 35.454Z" fill="#252211"/>
<path fill-rule="evenodd" clip-rule="evenodd" d="M12.9656 32.254C12.556 32.6008 12.1215 32.9322 11.6972 33.2531L10.4182 34.2357C9.98338 34.5566 9.55876 34.888 9.12356 35.2092C8.68836 35.5304 8.25384 35.8356 7.79236 36.1308C8.20196 35.784 8.63648 35.4628 9.07133 35.1471C9.50619 34.8314 9.95709 34.5218 10.3766 34.2016L11.6556 33.2176C12.0955 32.8967 12.5202 32.5653 12.9656 32.2547V32.254ZM10.7029 35.8786C10.7029 35.8786 11.1637 35.4953 11.7385 34.957C12.4529 34.2893 13.3281 33.4346 13.6077 33.2797L10.7026 35.8789L10.7029 35.8786Z" fill="#CFB66C"/>
<path fill-rule="evenodd" clip-rule="evenodd" d="M10.7029 35.8782C10.9309 35.6505 11.1743 35.428 11.4176 35.2102L11.7904 34.8894C11.9044 34.787 12.0341 34.6719 12.1477 34.5579C12.3754 34.3303 12.5983 34.0865 12.826 33.8538C12.9388 33.7367 13.0581 33.626 13.1834 33.5223C13.246 33.4669 13.3155 33.4199 13.3902 33.3824C13.4527 33.3462 13.5199 33.28 13.6076 33.2684C13.5561 33.3462 13.494 33.3824 13.4421 33.4496C13.38 33.5015 13.3281 33.5636 13.2765 33.6152C13.1625 33.7292 13.0332 33.8326 12.9192 33.9364C12.6758 34.1436 12.4222 34.346 12.1788 34.5627C11.9354 34.7795 11.7078 35.0133 11.4641 35.2307C11.2002 35.4536 10.9568 35.671 10.7029 35.8792V35.8782ZM13.7995 33.807C13.7995 33.807 12.1116 35.459 11.7644 35.728L13.7995 33.807Z" fill="#CFB66C"/>
<path fill-rule="evenodd" clip-rule="evenodd" d="M13.7994 33.807C13.6476 33.9828 13.4848 34.1488 13.312 34.304L12.8 34.7907C12.6345 34.9563 12.4788 35.1222 12.303 35.2877C12.1218 35.443 11.9562 35.5949 11.7644 35.7383L12.2614 35.2515C12.4273 35.086 12.6085 34.9464 12.7846 34.7805L13.2816 34.2937C13.4523 34.1231 13.6182 33.9572 13.7994 33.807V33.807ZM13.8769 34.7027C13.7213 35.1369 13.538 35.5607 13.3281 35.9714C12.8932 36.8415 12.2409 37.9286 11.9559 38.4829L13.8769 34.7027Z" fill="#CFB66C"/>
<path fill-rule="evenodd" clip-rule="evenodd" d="M13.877 34.703C13.877 34.8945 13.8251 35.0604 13.763 35.2259C13.7024 35.3916 13.6334 35.5541 13.5561 35.7127C13.4783 35.868 13.3902 36.0339 13.3022 36.184C13.2141 36.3342 13.1107 36.4892 13.0328 36.6448L12.5099 37.5664C12.3287 37.8736 12.1525 38.1826 11.9611 38.4778C12.0904 38.1464 12.2666 37.8358 12.4324 37.5303C12.6137 37.2231 12.7792 36.9159 12.9444 36.5981C13.0251 36.4397 13.0977 36.2774 13.1619 36.1117C13.2394 35.9458 13.3168 35.7905 13.3793 35.6403C13.4568 35.4748 13.5189 35.3191 13.5967 35.1693C13.6845 35.0085 13.7572 34.8532 13.8763 34.703H13.877Z" fill="#CFB66C"/>
<path fill-rule="evenodd" clip-rule="evenodd" d="M15.7205 38.9489C15.7205 38.9489 15.2085 39.6271 15.2597 40.4866C15.3993 40.0363 15.5754 39.3475 15.7205 38.9489ZM16.2072 39.6288C16.2072 39.6288 16.026 41.472 15.8758 42.3782C16.0881 41.3307 16.1294 41.4187 16.2072 39.6288ZM19.5987 42.4871C19.5987 42.4871 18.8325 44.7399 18.8167 45.3659C18.9826 44.7222 19.3035 43.407 19.5987 42.4854V42.4871Z" fill="#DEC270"/>
<path fill-rule="evenodd" clip-rule="evenodd" d="M21.3904 38.8096C21.3904 38.8096 22.6332 40.86 23.5654 42.61C23.3131 41.7293 22.7328 40.1141 21.3904 38.8096Z" fill="#CBAF59"/>
<path fill-rule="evenodd" clip-rule="evenodd" d="M24.7302 41.828C25.4126 43.0342 26.0279 44.277 26.5734 45.5509C26.47 44.6706 26.1901 43.164 24.7302 41.828Z" fill="#E3C677"/>
<path fill-rule="evenodd" clip-rule="evenodd" d="M34.5477 44.8511C34.7546 44.7217 35.1638 44.0172 35.5212 43.8414C35.8782 43.6602 36.1475 43.624 36.4687 43.2666C36.7896 42.8936 36.8783 42.6659 37.5818 42.371C38.5659 41.946 37.889 41.3971 37.889 41.3971C37.9974 41.2907 38.1133 41.1921 38.2358 41.1022C38.4898 40.9107 38.7847 40.6776 38.7591 40.2684C38.7229 39.5799 38.5935 38.5805 38.029 38.0005C38.5778 37.8865 39.6288 37.809 40.2818 37.6435C41.0375 37.4517 41.3846 37.1824 41.3846 37.1824C41.3846 37.1824 40.9498 36.442 41.654 35.6965C42.3581 34.9511 42.9329 34.5056 43.3576 33.6717C42.8708 33.6096 42.1288 33.3509 40.235 34.0704C40.3373 34.1185 40.4359 34.1738 40.5303 34.236C40.5303 34.236 39.3653 34.5572 38.9407 34.9145C38.2 35.5409 38.1068 36.0536 37.3043 36.4369C36.5018 36.8202 35.6939 36.7164 35.0263 37.0271C34.3586 37.3377 34.26 37.6019 34.0162 37.7159C34.0681 37.778 34.006 37.8814 34.1043 37.9695C34.0422 38.0575 33.6797 38.6477 33.3121 38.6477C33.3483 38.7877 33.6589 38.8911 33.6589 38.8911C33.6589 38.8911 33.4312 39.057 32.8513 39.0983C33.1462 39.4055 33.4261 39.7403 34.1975 40.2271C34.1354 40.3564 33.8763 40.5482 33.9801 40.7916C34.0941 41.035 34.3897 41.3664 35.5697 41.6357C34.9689 41.6613 34.2651 41.8013 33.3169 41.6719C32.3693 41.5579 32.214 41.4907 31.629 41.6357C31.6911 41.6979 31.8566 41.6979 32.0017 41.8634C31.8464 41.8736 30.8729 41.7494 30.5415 42.1846C30.1947 42.6348 30.0445 43.3755 30.0704 43.8725C29.8892 43.9606 29.713 44.1159 29.8011 44.4371C29.8892 44.7583 30.35 44.8617 30.6452 45.0634C30.9401 45.2808 30.9661 45.3583 31.246 45.3068C31.5409 45.2447 31.9757 44.9497 32.2297 44.9497C32.4837 44.9497 32.6646 45.1412 32.6646 45.1412C32.6646 45.1412 33.3534 44.8098 33.4206 44.8719C33.4827 44.934 33.4309 45.3327 33.4981 45.3948C33.5664 45.4416 34.3422 44.9808 34.5494 44.8511H34.5477Z" fill="#ECD592"/>
<path fill-rule="evenodd" clip-rule="evenodd" d="M49.6001 24.1296C46.3639 15.7724 38.3638 14.2241 38.3638 14.2241H15.5392L15.6272 22.7366H20.1728V41.7451H15.5388V50.2423H37.732C43.0807 50.2423 47.3682 44.8673 47.3682 44.8673C54.2341 35.1226 49.5998 24.1296 49.5998 24.1296H49.6001ZM37.8511 39.1404C37.8511 39.1404 36.1103 41.6519 34.2162 41.6519H30.4274L30.3377 22.7574H35.2C35.2 22.7574 37.4528 23.2284 39.0266 27.6866C39.0266 27.6866 41.1132 34.0696 37.8511 39.1404V39.1404Z" fill="white" fill-opacity="0.8"/>
</g>
</svg>
