<svg width="64" height="64" viewBox="0 0 64 64" fill="none" xmlns="http://www.w3.org/2000/svg">
<defs>
<clipPath id="clip0_9683_35419">
<rect width="40" height="44" fill="white" transform="matrix(1 0 0 -1 12 54)"/>
</clipPath>
</defs>
<path d="M32 64C49.6731 64 64 49.6731 64 32C64 14.3269 49.6731 0 32 0C14.3269 0 0 14.3269 0 32C0 49.6731 14.3269 64 32 64Z" fill="#E6007A"/>
<g clip-path="url(#clip0_9683_35419)">
<path d="M31.9985 44.7713C36.2349 44.7713 39.6691 46.8372 39.6691 49.3857C39.6691 51.9341 36.2349 54 31.9985 54C27.7621 54 24.3279 51.9341 24.3279 49.3857C24.3279 46.8372 27.7621 44.7713 31.9985 44.7713Z" fill="white"/>
<path d="M31.9985 10.0031C36.2349 10.0031 39.6691 12.069 39.6691 14.6175C39.6691 17.1659 36.2349 19.2318 31.9985 19.2318C27.7621 19.2318 24.3279 17.1659 24.3279 14.6175C24.3279 12.069 27.7621 10.0031 31.9985 10.0031Z" fill="white"/>
<path d="M21.309 38.384C23.4272 42.1786 23.4135 46.2884 21.2783 47.5635C19.1432 48.8386 15.6952 46.7961 13.577 43.0014C11.4588 39.2068 11.4726 35.097 13.6077 33.8219C15.7428 32.5469 19.1908 34.5894 21.309 38.384Z" fill="white"/>
<path d="M50.4167 21.002C52.5349 24.7966 52.5224 28.9057 50.3886 30.1799C48.2549 31.4541 44.8081 29.4109 42.6899 25.6163C40.5717 21.8217 40.5843 17.7126 42.718 16.4384C44.8517 15.1642 48.2986 17.2074 50.4167 21.002Z" fill="white"/>
<path d="M21.2793 16.4394C23.4144 17.7145 23.4282 21.8243 21.31 25.6189C19.1918 29.4136 15.7438 31.4561 13.6087 30.181C11.4735 28.9059 11.4598 24.7961 13.578 21.0015C15.6962 17.2069 19.1442 15.1644 21.2793 16.4394Z" fill="white"/>
<path d="M50.3904 33.8209C52.5241 35.0951 52.5367 39.2043 50.4185 42.9989C48.3004 46.7935 44.8535 48.8367 42.7198 47.5625C40.5861 46.2883 40.5736 42.1792 42.6917 38.3845C44.8099 34.5899 48.2567 32.5467 50.3904 33.8209Z" fill="white"/>
</g>
</svg>
