<svg width="64" height="64" viewBox="0 0 64 64" fill="none" xmlns="http://www.w3.org/2000/svg">
<path d="M0 32C0 14.3269 14.3269 0 32 0V0C49.6731 0 64 14.3269 64 32V32C64 49.6731 49.6731 64 32 64V64C14.3269 64 0 49.6731 0 32V32Z" fill="#8247E5"/>
<path d="M42.2872 26.3917C41.5561 25.9881 40.6162 25.9881 39.7807 26.3917L33.9321 29.7211L29.9634 31.8398L24.2193 35.1691C23.4883 35.5727 22.5483 35.5727 21.7128 35.1691L17.2219 32.546C16.4909 32.1424 15.9687 31.3353 15.9687 30.4273V25.3828C15.9687 24.5757 16.3864 23.7685 17.2219 23.2641L21.7128 20.7418C22.4439 20.3383 23.3838 20.3383 24.2193 20.7418L28.7102 23.365C29.4413 23.7685 29.9634 24.5757 29.9634 25.4837V28.8131L33.9321 26.5935V23.1632C33.9321 22.3561 33.5144 21.549 32.6788 21.0445L24.3238 16.3027C23.5927 15.8991 22.6527 15.8991 21.8172 16.3027L13.2533 21.1454C12.4178 21.549 12 22.3561 12 23.1632V32.6469C12 33.454 12.4178 34.2611 13.2533 34.7656L21.7128 39.5074C22.4439 39.911 23.3838 39.911 24.2193 39.5074L29.9634 36.2789L33.9321 34.0593L39.6762 30.8309C40.4073 30.4273 41.3473 30.4273 42.1828 30.8309L46.6736 33.3531C47.4047 33.7567 47.9269 34.5638 47.9269 35.4718V40.5163C47.9269 41.3234 47.5091 42.1306 46.6736 42.635L42.2872 45.1573C41.5561 45.5608 40.6162 45.5608 39.7807 45.1573L35.2898 42.635C34.5587 42.2315 34.0366 41.4243 34.0366 40.5163V37.2878L30.0679 39.5074V42.8368C30.0679 43.6439 30.4856 44.451 31.3211 44.9555L39.7807 49.6973C40.5117 50.1009 41.4517 50.1009 42.2872 49.6973L50.7467 44.9555C51.4778 44.5519 52 43.7448 52 42.8368V33.2522C52 32.4451 51.5822 31.638 50.7467 31.1335L42.2872 26.3917Z" fill="white"/>
</svg>
