<svg width="64" height="64" viewBox="0 0 64 64" fill="none" xmlns="http://www.w3.org/2000/svg">
<path d="M32 64C49.6731 64 64 49.6731 64 32C64 14.3269 49.6731 0 32 0C14.3269 0 0 14.3269 0 32C0 49.6731 14.3269 64 32 64Z" fill="#26A17B"/>
<path fill-rule="evenodd" clip-rule="evenodd" d="M35.244 35.128V35.124C35.024 35.14 33.89 35.208 31.36 35.208C29.34 35.208 27.918 35.148 27.418 35.124V35.13C19.642 34.788 13.838 33.434 13.838 31.814C13.838 30.196 19.642 28.842 27.418 28.494V33.782C27.926 33.818 29.382 33.904 31.394 33.904C33.808 33.904 35.018 33.804 35.244 33.784V28.498C43.004 28.844 48.794 30.198 48.794 31.814C48.794 33.434 43.004 34.784 35.244 35.128V35.128ZM35.244 27.948V23.216H46.072V16H16.59V23.216H27.418V27.946C18.618 28.35 12 30.094 12 32.182C12 34.27 18.618 36.012 27.418 36.418V51.582H35.244V36.414C44.03 36.01 50.632 34.268 50.632 32.182C50.632 30.096 44.03 28.354 35.244 27.948" fill="white"/>
</svg>
