<svg width="32" height="32" viewBox="0 0 32 32" fill="none" xmlns="http://www.w3.org/2000/svg">
<rect width="32" height="32" rx="16" fill="#2B6AFF"/>
<path d="M22.6561 17.7616C22.3373 17.9535 21.9654 17.9884 21.682 17.8314C21.3278 17.6221 21.1153 17.1512 21.1153 16.5058V14.5349C21.1153 13.593 20.7434 12.9128 20.1058 12.7384C19.0255 12.4244 18.2108 13.7326 17.9097 14.2209L15.9969 17.2384V13.5233C15.9792 12.6686 15.6959 12.1628 15.1646 12.0058C14.8103 11.9012 14.279 11.9535 13.7654 12.7209L9.49718 19.4535C8.93045 18.3895 8.62937 17.2035 8.62937 16C8.62937 11.936 11.9412 8.63953 15.9969 8.63953C20.0527 8.63953 23.3645 11.936 23.3645 16V16.0174V16.0349C23.4 16.8198 23.152 17.4477 22.6561 17.7616ZM24.9939 16V15.9826V15.9651C24.9762 11.0291 20.9382 7 15.9969 7C11.038 7 7 11.0291 7 16C7 20.9535 11.038 25 15.9969 25C18.2816 25 20.4423 24.1453 22.1071 22.593C22.4436 22.2791 22.4613 21.7733 22.1425 21.4419C21.8414 21.1105 21.3278 21.093 20.9913 21.3895C20.9913 21.3895 20.9913 21.3895 20.9736 21.407C19.6276 22.6628 17.8211 23.3779 15.9615 23.3779C13.7831 23.3779 11.835 22.436 10.489 20.936L14.3322 14.8663V17.6744C14.3322 19.0174 14.8635 19.4535 15.3062 19.5756C15.749 19.6977 16.422 19.6105 17.1481 18.4767L19.2557 15.1105C19.3265 15.0058 19.3797 14.9012 19.4505 14.8314V16.5407C19.4505 17.7965 19.9641 18.8081 20.8496 19.2965C21.6466 19.75 22.6561 19.6977 23.4885 19.1919C24.5157 18.5291 25.0647 17.3779 24.9939 16Z" fill="white"/>
</svg>
