<svg width="32" height="32" viewBox="0 0 32 32" fill="none" xmlns="http://www.w3.org/2000/svg">
<path d="M31.9998 15.924C32.0149 19.0887 31.091 22.1869 29.3451 24.8265C27.5993 27.4662 25.1098 29.5288 22.1916 30.7535C19.2734 31.9781 16.0575 32.3099 12.9507 31.7067C9.84393 31.1036 6.98581 29.5927 4.73782 27.365C2.48984 25.1374 0.952983 22.2931 0.321625 19.1919C-0.309733 16.0908 -0.00722556 12.872 1.19089 9.94278C2.389 7.01355 4.42889 4.50544 7.05256 2.73565C9.67624 0.965852 12.7658 0.0138809 15.9306 0.000150786C20.1729 -0.0182542 24.2488 1.64889 27.2622 4.635C30.2755 7.62111 31.9797 11.6817 31.9998 15.924Z" fill="#8DC63F"/>
<path d="M30.7985 15.927C30.8115 18.853 29.9566 21.7172 28.3418 24.1574C26.727 26.5976 24.425 28.5042 21.7267 29.6361C19.0284 30.768 16.0551 31.0744 13.1827 30.5165C10.3103 29.9587 7.66776 28.5617 5.5893 26.5021C3.51083 24.4425 2.08974 21.8128 1.50571 18.9456C0.921687 16.0784 1.20095 13.1024 2.3082 10.3939C3.41544 7.68544 5.30094 5.36608 7.72629 3.72912C10.1516 2.09217 13.0079 1.21113 15.934 1.19741C19.8583 1.17993 23.6288 2.72187 26.4164 5.4841C29.2039 8.24634 30.7802 12.0027 30.7985 15.927Z" fill="#F9E988"/>
<path d="M16.2734 2.14687C17.2146 1.97969 18.1778 1.97969 19.1189 2.14687C20.0691 2.29721 20.9875 2.60491 21.8364 3.0573C22.6517 3.54766 23.4211 4.11074 24.135 4.73968C24.8619 5.32817 25.582 5.93397 26.2708 6.59516C26.9724 7.24537 27.5847 7.98569 28.0917 8.7968C28.6132 9.60142 29.0407 10.4633 29.3656 11.3654C30.0037 13.1825 30.1832 15.129 29.8883 17.0322H29.7983C29.5242 15.2252 29.0601 13.4522 28.4136 11.7427C28.1031 10.8982 27.7377 10.0748 27.3197 9.27798C26.8834 8.48194 26.4026 7.71106 25.8797 6.96902C25.3483 6.21794 24.6968 5.55948 23.9515 5.02008C23.1869 4.51799 22.3638 4.11111 21.5006 3.80848C20.6663 3.46231 19.8355 3.13692 18.9632 2.88768C18.0908 2.63843 17.2046 2.44804 16.2804 2.26803L16.2734 2.14687Z" fill="white"/>
<path d="M23.494 10.7075C22.4209 10.3959 21.3062 9.95629 20.1812 9.50973C20.0218 9.07952 19.7358 8.70775 19.3607 8.44353C18.6234 7.80312 17.2422 7.82042 16.0479 8.09736C14.7839 7.75315 13.4563 7.71399 12.1742 7.98312C1.94144 10.8009 7.74325 17.6759 3.9873 24.5993C4.52041 25.7347 10.2842 32.3501 18.6199 30.5742C18.6199 30.5742 15.7675 23.7235 22.2028 20.4349C27.4265 17.7521 31.1963 12.8018 23.494 10.7075Z" fill="#8BC53F"/>
<path d="M24.7676 15.2041C24.7683 15.3266 24.7326 15.4466 24.6651 15.5489C24.5976 15.6512 24.5012 15.7312 24.3883 15.7787C24.2753 15.8262 24.1508 15.8392 24.0305 15.8159C23.9101 15.7927 23.7994 15.7343 23.7123 15.6481C23.6251 15.562 23.5655 15.4519 23.5409 15.3318C23.5163 15.2118 23.5279 15.0871 23.5742 14.9736C23.6204 14.8601 23.6993 14.7629 23.8008 14.6943C23.9023 14.6256 24.0219 14.5886 24.1445 14.5879C24.2259 14.5874 24.3065 14.603 24.3819 14.6337C24.4572 14.6645 24.5258 14.7097 24.5837 14.7669C24.6415 14.8242 24.6875 14.8922 24.7191 14.9672C24.7507 15.0422 24.7671 15.1227 24.7676 15.2041Z" fill="white"/>
<path d="M16.0547 8.10141C16.799 8.15334 19.4956 9.02915 20.1914 9.50686C19.6133 7.82448 17.6609 7.60293 16.0547 8.10141Z" fill="#009345"/>
<path d="M16.7647 12.3516C16.7654 12.9179 16.5981 13.4718 16.2839 13.943C15.9698 14.4143 15.5229 14.7817 14.9998 14.9989C14.4768 15.2162 13.9011 15.2733 13.3455 15.1633C12.7899 15.0532 12.2795 14.7808 11.8788 14.3806C11.4781 13.9803 11.2051 13.4702 11.0943 12.9148C10.9836 12.3594 11.0401 11.7836 11.2566 11.2603C11.4732 10.7369 11.8402 10.2896 12.311 9.9749C12.7819 9.66018 13.3355 9.49219 13.9019 9.49219C14.2777 9.49173 14.6499 9.56536 14.9972 9.70885C15.3445 9.85235 15.6601 10.0629 15.926 10.3285C16.1919 10.594 16.4028 10.9094 16.5467 11.2565C16.6906 11.6037 16.7647 11.9758 16.7647 12.3516Z" fill="white"/>
<path d="M15.917 12.3765C15.917 12.7743 15.7991 13.1631 15.5781 13.4939C15.3571 13.8246 15.043 14.0824 14.6755 14.2346C14.3079 14.3869 13.9036 14.4267 13.5134 14.3491C13.1233 14.2715 12.7649 14.0799 12.4836 13.7987C12.2023 13.5174 12.0108 13.159 11.9332 12.7689C11.8556 12.3787 11.8954 11.9743 12.0476 11.6068C12.1999 11.2393 12.4576 10.9252 12.7884 10.7042C13.1191 10.4832 13.508 10.3652 13.9058 10.3652C14.4392 10.3652 14.9508 10.5771 15.328 10.9543C15.7051 11.3315 15.917 11.8431 15.917 12.3765Z" fill="#58595B"/>
<path d="M27.0872 16.4675C24.7679 18.1015 22.1335 19.3407 18.3914 19.3407C16.6398 19.3407 16.2867 17.4853 15.1305 18.3922C14.5351 18.863 12.4269 19.9154 10.7584 19.8358C9.08983 19.7562 6.37932 18.7765 5.62467 15.2109C5.32696 18.7765 5.17118 21.4039 3.83496 24.4156C6.50047 28.6839 12.8596 31.9794 18.6303 30.5601C18.0106 26.2296 21.7943 21.989 23.9267 19.8289C24.7367 19.0084 26.2807 17.6653 27.0907 16.4779L27.0872 16.4675Z" fill="#8BC53F"/>
<path d="M26.9945 16.5716C26.2564 17.2076 25.4326 17.7367 24.5471 18.1432C23.6643 18.5621 22.744 18.8971 21.7985 19.1436C20.8483 19.4266 19.8564 19.5437 18.8664 19.4898C17.8553 19.4487 16.897 19.0271 16.1836 18.3093L16.2147 18.2747C17.0227 18.7632 17.95 19.0183 18.8941 19.012C19.8391 19.0408 20.7844 18.963 21.7119 18.7801C22.649 18.5846 23.5658 18.3018 24.4501 17.9355C25.349 17.5948 26.1951 17.1286 26.9633 16.5508L26.9945 16.5716Z" fill="#58595B"/>
</svg>
