<svg width="93" height="106" viewBox="0 0 93 106" fill="none" xmlns="http://www.w3.org/2000/svg">
<defs>
<clipPath id="clip0_11831_43344">
<rect width="93" height="123" fill="white"/>
</clipPath>
</defs>
<g clip-path="url(#clip0_11831_43344)">
<path d="M27.1574 23.6264C26.9468 22.7468 26.7752 21.8334 26.6435 20.8865L27.1387 20.8176C27.1039 20.5677 27.072 20.3153 27.0428 20.0605C27.2981 20.0888 27.5514 20.1196 27.8026 20.1529L27.8682 19.6572C28.812 19.782 29.728 19.9406 30.6154 20.133L30.5094 20.6216C31.424 20.8199 32.3065 21.0543 33.156 21.3246L33.3077 20.8482C34.2126 21.1362 35.0819 21.4645 35.9144 21.8331L35.7119 22.2903C36.5592 22.6654 37.3665 23.0827 38.1326 23.5417L38.3896 23.1129C39.1964 23.5963 39.9597 24.1257 40.678 24.7008L40.3655 25.0911C41.0755 25.6596 41.7401 26.2738 42.3579 26.9334L42.7228 26.5916C43.355 27.2666 43.9397 27.9883 44.4753 28.7564L44.0652 29.0424C44.5764 29.7756 45.0422 30.5528 45.4611 31.3743L45.9066 31.1471C46.3201 31.958 46.6886 32.8103 47.0108 33.7038L46.5405 33.8734C46.8413 34.7077 47.1014 35.5799 47.3192 36.49L47.8055 36.3736C48.016 37.2533 48.1877 38.1666 48.3194 39.1135L47.8242 39.1824C47.859 39.4323 47.8909 39.6847 47.9201 39.9396C47.6647 39.9112 47.4115 39.8804 47.1602 39.8472L47.0947 40.3428C46.1509 40.218 45.2348 40.0594 44.3475 39.8671L44.4534 39.3785C43.5387 39.1802 42.6562 38.9458 41.8067 38.6755L41.6551 39.152C40.7502 38.864 39.8808 38.5357 39.0483 38.1672L39.2508 37.71C38.4034 37.3348 37.5962 36.9176 36.83 36.4585L36.573 36.8875C35.7662 36.404 35.0029 35.8747 34.2846 35.2995L34.5971 34.9092C33.8871 34.3407 33.2225 33.7266 32.6047 33.0669L32.2398 33.4087C31.6076 32.7337 31.0229 32.012 30.4873 31.2438L30.8974 30.9578C30.3862 30.2247 29.9204 29.4474 29.5016 28.6259L29.0561 28.8531C28.6426 28.0421 28.2742 27.1898 27.952 26.2963L28.4223 26.1267C28.1215 25.2924 27.8615 24.4202 27.6436 23.5101L27.1574 23.6264Z" stroke="#37FF37" stroke-dasharray="3 3"/>
<mask id="path-2-inside-1_11831_43344" fill="white">
<path fill-rule="evenodd" clip-rule="evenodd" d="M47.2484 34.7988C46.9218 34.7988 46.6571 35.0635 46.6571 35.3901L46.6571 103.916C45.4746 85.2917 29.4091 71.2521 10 69.4894C11.8451 88.0163 27.2455 102.156 46.6571 103.916L46.6571 122.894C46.6571 123.221 46.9218 123.485 47.2484 123.485C47.5749 123.485 47.8396 123.221 47.8396 122.894L47.8396 91.4998C67.2487 89.7385 75.5577 72.2163 77.4018 53.687C57.9952 55.4483 49.6862 72.9729 47.8396 91.4998L47.8396 35.3901C47.8396 35.0635 47.5749 34.7988 47.2484 34.7988Z"/>
</mask>
<path d="M46.6571 35.3901L47.6571 35.3901V35.3901H46.6571ZM10 69.4894L10.0904 68.4935L8.88497 68.384L9.00492 69.5885L10 69.4894ZM46.6571 122.894H47.6571H46.6571ZM47.8396 122.894H48.8396H47.8396ZM47.8396 91.4998H46.8396H47.8396ZM77.4018 53.687L78.3969 53.7861L78.5167 52.5817L77.3114 52.6911L77.4018 53.687ZM47.8396 35.3901L48.8396 35.3901V35.3901H47.8396ZM47.6571 35.3901C47.6571 35.6158 47.4741 35.7988 47.2484 35.7988V33.7988C46.3695 33.7988 45.6571 34.5113 45.6571 35.3901H47.6571ZM47.6571 103.916L47.6571 35.3901L45.6571 35.3901L45.6571 103.916H47.6571ZM9.90956 70.4853C28.928 72.2125 44.5139 85.9414 45.6591 103.979L47.6551 103.853C46.4354 84.642 29.8902 70.2916 10.0904 68.4935L9.90956 70.4853ZM46.7474 102.92C27.7603 101.198 12.7876 87.3888 10.9951 69.3903L9.00492 69.5885C10.9026 88.6437 26.7306 103.113 46.5668 104.912L46.7474 102.92ZM47.6571 122.894L47.6571 103.916H45.6571L45.6571 122.894H47.6571ZM47.2484 122.485C47.4741 122.485 47.6571 122.668 47.6571 122.894H45.6571C45.6571 123.773 46.3695 124.485 47.2484 124.485V122.485ZM46.8396 122.894C46.8396 122.668 47.0226 122.485 47.2484 122.485V124.485C48.1272 124.485 48.8396 123.773 48.8396 122.894H46.8396ZM46.8396 91.4998L46.8396 122.894H48.8396L48.8396 91.4998H46.8396ZM76.4067 53.588C75.4945 62.7537 72.9891 71.5855 68.3823 78.3166C63.7983 85.0145 57.1256 89.653 47.7492 90.5039L47.93 92.4957C57.9627 91.5853 65.149 86.5821 70.0328 79.4462C74.8938 72.3436 77.465 63.1497 78.3969 53.7861L76.4067 53.588ZM48.8347 91.5989C49.7481 82.4344 52.2541 73.6025 56.861 66.8711C61.445 60.1728 68.1172 55.5338 77.4922 54.6829L77.3114 52.6911C67.2799 53.6015 60.0942 58.6054 55.2105 65.7415C50.3495 72.8444 47.7777 82.0382 46.8445 91.4006L48.8347 91.5989ZM46.8396 35.3901L46.8396 91.4998H48.8396L48.8396 35.3901L46.8396 35.3901ZM47.2484 35.7988C47.0226 35.7988 46.8396 35.6158 46.8396 35.3901H48.8396C48.8396 34.5113 48.1272 33.7988 47.2484 33.7988V35.7988Z" fill="#C1C8FF" mask="url(#path-2-inside-1_11831_43344)"/>
<path d="M15.2335 50.2241C15.003 49.2647 14.8127 48.2749 14.6651 47.2533L15.16 47.1818C15.1182 46.8927 15.0799 46.601 15.0452 46.3066C15.3597 46.3389 15.6718 46.374 15.9815 46.4119L16.0423 45.9156C17.1021 46.0454 18.1345 46.208 19.1397 46.4024L19.0447 46.8933C20.0794 47.0935 21.0842 47.3278 22.0591 47.5952L22.1913 47.1131C23.2181 47.3947 24.2127 47.7128 25.1753 48.0664L25.0029 48.5358C25.9862 48.8969 26.9349 49.2954 27.8492 49.73L28.0638 49.2785C29.0205 49.7332 29.9406 50.2272 30.824 50.7592L30.5661 51.1875C31.4555 51.7231 32.3068 52.2976 33.1203 52.9097L33.4209 52.5102C34.2604 53.1419 35.0603 53.8132 35.8208 54.5227L35.4797 54.8883C36.2314 55.5897 36.9439 56.3292 37.6172 57.1054L37.9949 56.7778C38.6772 57.5643 39.3198 58.3879 39.9227 59.247L39.5134 59.5342C40.0995 60.3695 40.6477 61.2393 41.1579 62.1425L41.5932 61.8966C42.1017 62.7967 42.5728 63.729 43.0064 64.6922L42.5505 64.8974C42.968 65.8248 43.3506 66.7817 43.6981 67.7673L44.1697 67.601C44.5122 68.5722 44.821 69.5703 45.0959 70.5941L44.613 70.7238C44.8768 71.7061 45.1092 72.7129 45.3102 73.7433L45.801 73.6475C45.998 74.6575 46.1651 75.6893 46.3021 76.7421L45.8063 76.8066C45.838 77.0503 45.8681 77.2953 45.8966 77.5413C45.6819 77.4586 45.4672 77.3753 45.2525 77.2913L45.0704 77.7569C44.1354 77.3911 43.2001 77.0129 42.268 76.6205L42.462 76.1597C41.5389 75.7711 40.6194 75.3688 39.7069 74.9509L39.4987 75.4056C38.5821 74.9858 37.6722 74.5504 36.7722 74.0975L36.997 73.6509C36.101 73.2 35.2156 72.732 34.3441 72.2451L34.1002 72.6816C33.2177 72.1886 32.3489 71.6761 31.4973 71.1425L31.7628 70.7188C30.9133 70.1864 30.0816 69.6331 29.2713 69.0572L28.9816 69.4647C28.157 68.8786 27.3537 68.2688 26.5754 67.6336L26.8915 67.2463C26.1174 66.6145 25.369 65.9578 24.6497 65.2742L24.3053 65.6367C23.5736 64.9414 22.8712 64.2182 22.2018 63.4653L22.5755 63.1331C21.9164 62.3918 21.2903 61.6217 20.7008 60.8209L20.2981 61.1174C19.7035 60.3097 19.1451 59.471 18.6266 58.5993L19.0563 58.3437C18.5544 57.4997 18.0905 56.6245 17.6683 55.7163L17.2149 55.9271C16.7959 55.0258 16.417 54.0925 16.0816 53.1254L16.554 52.9616C16.2351 52.042 15.956 51.0911 15.7197 50.1074L15.2335 50.2241Z" stroke="#37FF37" stroke-dasharray="3 3"/>
<path d="M80.8251 13.309C81.0188 12.3737 81.1814 11.4188 81.3123 10.4447L80.8167 10.3782C80.8533 10.1057 80.8874 9.83177 80.9189 9.55627C80.6421 9.58441 80.3667 9.6146 80.0926 9.64682L80.0343 9.15024C79.0594 9.26483 78.1009 9.40495 77.1595 9.57015L77.2459 10.0626C76.2904 10.2303 75.3529 10.424 74.4341 10.6433L74.3181 10.1569C73.3636 10.3847 72.4287 10.6398 71.5142 10.9218L71.6616 11.3996C70.7358 11.6851 69.8315 11.9982 68.9495 12.3385L68.7696 11.872C67.8564 12.2243 66.9666 12.6054 66.1008 13.0147L66.3145 13.4668C65.4424 13.8791 64.5954 14.3203 63.7744 14.7897L63.5262 14.3556C62.6786 14.8402 61.858 15.3547 61.0653 15.8983L61.3481 16.3106C60.5561 16.8537 59.7927 17.4262 59.0586 18.0273L58.7418 17.6405C57.9899 18.2563 57.2683 18.9019 56.5779 19.5766L56.9273 19.9342C56.2447 20.6013 55.5931 21.2973 54.9737 22.0214L54.5938 21.6963C53.9654 22.4309 53.3695 23.194 52.8071 23.9849L53.2146 24.2746C52.6645 25.0483 52.147 25.849 51.663 26.6763L51.2314 26.4238C50.7457 27.2539 50.2933 28.1102 49.8753 28.9919L50.327 29.2061C49.922 30.0605 49.5494 30.9393 49.2105 31.8421L48.7424 31.6663C48.406 32.5622 48.1023 33.4811 47.8321 34.4222L48.3127 34.5602C48.0526 35.4664 47.8239 36.394 47.6274 37.3424L47.1378 37.241C46.9441 38.1763 46.7815 39.1312 46.6506 40.1053L47.1462 40.1719C47.1096 40.4443 47.0755 40.7182 47.044 40.9937C47.3208 40.9656 47.5962 40.9354 47.8703 40.9032L47.9287 41.3998C48.9035 41.2852 49.862 41.1451 50.8034 40.9799L50.717 40.4875C51.6726 40.3198 52.6101 40.1261 53.5289 39.9069L53.6449 40.3932C54.5995 40.1655 55.5343 39.9104 56.4488 39.6284L56.3015 39.1506C57.2273 38.8652 58.1316 38.5521 59.0136 38.2118L59.1936 38.6783C60.1067 38.3261 60.9966 37.945 61.8624 37.5357L61.6487 37.0836C62.5208 36.6714 63.3678 36.2302 64.1888 35.7608L64.437 36.1948C65.2846 35.7103 66.1053 35.1958 66.898 34.6522L66.6152 34.2399C67.4072 33.6968 68.1707 33.1243 68.9047 32.5231L69.2215 32.91C69.9734 32.2942 70.6951 31.6486 71.3855 30.9739L71.036 30.6163C71.7187 29.9491 72.3702 29.2532 72.9896 28.5291L73.3696 28.8541C73.9979 28.1195 74.5938 27.3564 75.1562 26.5655L74.7487 26.2757C75.2987 25.5021 75.8163 24.7013 76.3003 23.874L76.7318 24.1265C77.2175 23.2964 77.6699 22.4401 78.0879 21.5583L77.6361 21.3441C78.0412 20.4898 78.4136 19.6109 78.7526 18.7081L79.2207 18.8838C79.557 17.9879 79.8607 17.069 80.1309 16.1278L79.6503 15.9899C79.9104 15.0837 80.1391 14.1561 80.3355 13.2076L80.8251 13.309Z" stroke="#37FF37" stroke-dasharray="3 3"/>
</g>
</svg>
