<svg width="248" height="135" viewBox="0 0 248 135" fill="none" xmlns="http://www.w3.org/2000/svg">
<defs>
<filter id="filter0_bi_11831_43476" x="107.823" y="23.4101" width="32.8927" height="20.5411" filterUnits="userSpaceOnUse" color-interpolation-filters="sRGB">
<feFlood flood-opacity="0" result="BackgroundImageFix"/>
<feGaussianBlur in="BackgroundImage" stdDeviation="1.69925"/>
<feComposite in2="SourceAlpha" operator="in" result="effect1_backgroundBlur_11831_43476"/>
<feBlend mode="normal" in="SourceGraphic" in2="effect1_backgroundBlur_11831_43476" result="shape"/>
<feColorMatrix in="SourceAlpha" type="matrix" values="0 0 0 0 0 0 0 0 0 0 0 0 0 0 0 0 0 0 127 0" result="hardAlpha"/>
<feOffset dy="2.26566"/>
<feGaussianBlur stdDeviation="2.26566"/>
<feComposite in2="hardAlpha" operator="arithmetic" k2="-1" k3="1"/>
<feColorMatrix type="matrix" values="0 0 0 0 0.725 0 0 0 0 0.934 0 0 0 0 1 0 0 0 0.16 0"/>
<feBlend mode="normal" in2="shape" result="effect2_innerShadow_11831_43476"/>
</filter>
<filter id="filter1_bi_11831_43476" x="106.706" y="10.1933" width="32.8927" height="20.5411" filterUnits="userSpaceOnUse" color-interpolation-filters="sRGB">
<feFlood flood-opacity="0" result="BackgroundImageFix"/>
<feGaussianBlur in="BackgroundImage" stdDeviation="1.69925"/>
<feComposite in2="SourceAlpha" operator="in" result="effect1_backgroundBlur_11831_43476"/>
<feBlend mode="normal" in="SourceGraphic" in2="effect1_backgroundBlur_11831_43476" result="shape"/>
<feColorMatrix in="SourceAlpha" type="matrix" values="0 0 0 0 0 0 0 0 0 0 0 0 0 0 0 0 0 0 127 0" result="hardAlpha"/>
<feOffset dy="2.26566"/>
<feGaussianBlur stdDeviation="2.26566"/>
<feComposite in2="hardAlpha" operator="arithmetic" k2="-1" k3="1"/>
<feColorMatrix type="matrix" values="0 0 0 0 0.93175 0 0 0 0 0.7375 0 0 0 0 1 0 0 0 0.13 0"/>
<feBlend mode="normal" in2="shape" result="effect2_innerShadow_11831_43476"/>
</filter>
<linearGradient id="paint0_linear_11831_43476" x1="224.413" y1="23.7422" x2="218.444" y2="29.5435" gradientUnits="userSpaceOnUse">
<stop stop-color="#63E163"/>
<stop offset="1" stop-color="#63E163" stop-opacity="0"/>
</linearGradient>
<linearGradient id="paint1_linear_11831_43476" x1="214.103" y1="17.875" x2="208.133" y2="23.6763" gradientUnits="userSpaceOnUse">
<stop stop-color="#63E163"/>
<stop offset="1" stop-color="#63E163" stop-opacity="0"/>
</linearGradient>
<linearGradient id="paint2_linear_11831_43476" x1="214.103" y1="29.5" x2="208.133" y2="35.3013" gradientUnits="userSpaceOnUse">
<stop stop-color="#63E163"/>
<stop offset="1" stop-color="#63E163" stop-opacity="0"/>
</linearGradient>
<linearGradient id="paint3_linear_11831_43476" x1="234.725" y1="17.875" x2="228.755" y2="23.6763" gradientUnits="userSpaceOnUse">
<stop stop-color="#63E163"/>
<stop offset="1" stop-color="#63E163" stop-opacity="0"/>
</linearGradient>
<linearGradient id="paint4_linear_11831_43476" x1="234.725" y1="29.5" x2="228.755" y2="35.3013" gradientUnits="userSpaceOnUse">
<stop stop-color="#63E163"/>
<stop offset="1" stop-color="#63E163" stop-opacity="0"/>
</linearGradient>
<linearGradient id="paint5_linear_11831_43476" x1="224.413" y1="13.6094" x2="218.444" y2="19.4106" gradientUnits="userSpaceOnUse">
<stop stop-color="#63E163"/>
<stop offset="1" stop-color="#63E163" stop-opacity="0"/>
</linearGradient>
<linearGradient id="paint6_linear_11831_43476" x1="224.413" y1="34.0391" x2="218.444" y2="39.8403" gradientUnits="userSpaceOnUse">
<stop stop-color="#63E163"/>
<stop offset="1" stop-color="#63E163" stop-opacity="0"/>
</linearGradient>
<clipPath id="clip0_11831_43476">
<rect width="101.396" height="18.9349" fill="white" transform="translate(73.6094 93.6777)"/>
</clipPath>
</defs>
<path d="M174.094 81.7188L208.912 46.84" stroke="#B0C7FF" stroke-width="0.680381"/>
<line x1="123.7" y1="53.8145" x2="123.7" y2="70.7561" stroke="#B0C7FF" stroke-width="0.680381"/>
<path d="M100.345 13.726L123.709 0.236667L147.074 13.726V40.7045L123.709 54.1938L100.345 40.7045V13.726Z" fill="#2B63F1" fill-opacity="0.07" stroke="#2B63F1" stroke-width="0.409919"/>
<g filter="url(#filter0_bi_11831_43476)">
<path d="M116.584 32.1946L119.672 28.9822C119.777 28.8726 119.777 28.6993 119.672 28.5897L118.043 26.896C117.932 26.7801 117.747 26.7801 117.635 26.896L111.301 33.4849C111.196 33.5945 111.196 33.7678 111.301 33.8774L117.635 40.4663C117.747 40.5823 117.932 40.5823 118.043 40.4663L119.672 38.7726C119.777 38.663 119.777 38.4897 119.672 38.3801L116.584 35.1678L130.283 35.1678C131.538 35.1678 132.613 34.6076 133.457 33.9275C134.302 33.2473 135.006 32.3767 135.557 31.5672C136.114 30.7499 136.55 29.9419 136.846 29.3434C136.994 29.0423 137.11 28.7898 137.189 28.6097C137.229 28.5195 137.26 28.4473 137.281 28.3958L137.307 28.3345L137.314 28.3163L137.317 28.3103L137.317 28.3083L137.317 28.3081C137.315 28.3071 137.264 28.2833 135.999 27.7348C134.904 27.2602 134.718 27.1791 134.686 27.1653L134.677 27.1691L134.661 27.2073C134.646 27.2429 134.623 27.2984 134.591 27.3709C134.527 27.516 134.43 27.728 134.304 27.9844C134.048 28.5009 133.681 29.1794 133.225 29.8487C132.764 30.5258 132.247 31.1418 131.708 31.5765C131.168 32.0114 130.694 32.1946 130.283 32.1946L116.584 32.1946Z" fill="#0057FF" fill-opacity="0.71"/>
</g>
<path d="M116.584 32.1946L119.672 28.9822C119.777 28.8726 119.777 28.6993 119.672 28.5897L118.043 26.896C117.932 26.7801 117.747 26.7801 117.635 26.896L111.301 33.4849C111.196 33.5945 111.196 33.7678 111.301 33.8774L117.635 40.4663C117.747 40.5823 117.932 40.5823 118.043 40.4663L119.672 38.7726C119.777 38.663 119.777 38.4897 119.672 38.3801L116.584 35.1678L130.283 35.1678C131.538 35.1678 132.613 34.6076 133.457 33.9275C134.302 33.2473 135.006 32.3767 135.557 31.5672C136.114 30.7499 136.55 29.9419 136.846 29.3434C136.994 29.0423 137.11 28.7898 137.189 28.6097C137.229 28.5195 137.26 28.4473 137.281 28.3958L137.307 28.3345L137.314 28.3163L137.317 28.3103L137.317 28.3083L137.317 28.3081C137.315 28.3071 137.264 28.2833 135.999 27.7348C134.904 27.2602 134.718 27.1791 134.686 27.1653L134.677 27.1691L134.661 27.2073C134.646 27.2429 134.623 27.2984 134.591 27.3709C134.527 27.516 134.43 27.728 134.304 27.9844C134.048 28.5009 133.681 29.1794 133.225 29.8487C132.764 30.5258 132.247 31.1418 131.708 31.5765C131.168 32.0114 130.694 32.1946 130.283 32.1946L116.584 32.1946Z" fill="#2B63F1"/>
<g filter="url(#filter1_bi_11831_43476)">
<path d="M130.838 21.95L127.75 25.1623C127.645 25.2719 127.645 25.4452 127.75 25.5548L129.378 27.2486C129.49 27.3645 129.675 27.3645 129.787 27.2486L136.121 20.6596C136.226 20.55 136.226 20.3767 136.121 20.2671L129.787 13.6782C129.675 13.5623 129.49 13.5623 129.378 13.6782L127.75 15.3719C127.645 15.4815 127.645 15.6548 127.75 15.7645L130.838 18.9768L117.139 18.9768C115.884 18.9768 114.809 19.5369 113.965 20.217C113.12 20.8972 112.416 21.7678 111.865 22.5773C111.308 23.3946 110.872 24.2027 110.576 24.8012C110.427 25.1022 110.312 25.3548 110.233 25.5349C110.193 25.625 110.162 25.6973 110.141 25.7487L110.115 25.81L110.108 25.8283L110.105 25.8342L110.105 25.8363L110.105 25.8364C110.106 25.8374 110.156 25.8604 111.423 26.4098C112.518 26.8843 112.704 26.9654 112.735 26.9793L112.745 26.9754L112.761 26.9372C112.775 26.9016 112.799 26.8461 112.831 26.7736C112.895 26.6285 112.992 26.4165 113.118 26.1601C113.373 25.6437 113.741 24.9651 114.197 24.2958C114.658 23.6187 115.174 23.0027 115.714 22.568C116.254 22.1331 116.727 21.95 117.139 21.95L130.838 21.95Z" fill="#3300FF" fill-opacity="0.55"/>
</g>
<path d="M130.838 21.95L127.75 25.1623C127.645 25.2719 127.645 25.4452 127.75 25.5548L129.378 27.2486C129.49 27.3645 129.675 27.3645 129.787 27.2486L136.121 20.6596C136.226 20.55 136.226 20.3767 136.121 20.2671L129.787 13.6782C129.675 13.5623 129.49 13.5623 129.378 13.6782L127.75 15.3719C127.645 15.4815 127.645 15.6548 127.75 15.7645L130.838 18.9768L117.139 18.9768C115.884 18.9768 114.809 19.5369 113.965 20.217C113.12 20.8972 112.416 21.7678 111.865 22.5773C111.308 23.3946 110.872 24.2027 110.576 24.8012C110.427 25.1022 110.312 25.3548 110.233 25.5349C110.193 25.625 110.162 25.6973 110.141 25.7487L110.115 25.81L110.108 25.8283L110.105 25.8342L110.105 25.8363L110.105 25.8364C110.106 25.8374 110.156 25.8604 111.423 26.4098C112.518 26.8843 112.704 26.9654 112.735 26.9793L112.745 26.9754L112.761 26.9372C112.775 26.9016 112.799 26.8461 112.831 26.7736C112.895 26.6285 112.992 26.4165 113.118 26.1601C113.373 25.6437 113.741 24.9651 114.197 24.2958C114.658 23.6187 115.174 23.0027 115.714 22.568C116.254 22.1331 116.727 21.95 117.139 21.95L130.838 21.95Z" fill="#63E163"/>
<path d="M197.702 13.726L221.066 0.236667L244.43 13.726V40.7045L221.066 54.1938L197.702 40.7045V13.726Z" fill="#2B63F1" fill-opacity="0.07" stroke="#2B63F1" stroke-width="0.409919"/>
<path fill-rule="evenodd" clip-rule="evenodd" d="M218.465 18.0795C218.414 18.0879 218.365 18.1059 218.321 18.1326L214.089 20.7071V21.6115L218.74 18.7825C218.784 18.7558 218.822 18.7209 218.852 18.6799C218.882 18.6389 218.904 18.5926 218.915 18.5435C218.927 18.4944 218.929 18.4436 218.92 18.394C218.911 18.3444 218.893 18.2968 218.865 18.2542C218.838 18.2115 218.802 18.1745 218.76 18.1453C218.718 18.1161 218.67 18.0953 218.619 18.084C218.569 18.0727 218.516 18.0712 218.465 18.0795ZM228.199 21.7087C228.262 21.7469 228.334 21.7672 228.408 21.7672H228.409C228.495 21.7673 228.578 21.7403 228.647 21.6902C228.715 21.6402 228.765 21.5699 228.789 21.4899C228.813 21.4099 228.809 21.3246 228.778 21.2469C228.748 21.1692 228.692 21.1032 228.619 21.059L224.363 18.4708V19.3754L228.199 21.7087ZM220.779 24.7011C220.853 24.773 220.953 24.8134 221.058 24.8134C221.162 24.8134 221.262 24.7731 221.336 24.7014C221.41 24.6297 221.452 24.5325 221.452 24.4309V20.4028V20.186L221.057 20.4028L220.774 19.8472L220.663 20.186V24.4301C220.663 24.5317 220.705 24.6292 220.779 24.7011ZM210.471 30.0934C210.545 30.1653 210.645 30.2057 210.75 30.2057C210.855 30.2057 210.955 30.1655 211.029 30.0938C211.103 30.0221 211.144 29.9248 211.145 29.8233V24.6611V24.4444L210.75 24.6611L210.466 24.1055L210.355 24.4444V29.8224C210.355 29.9241 210.397 30.0216 210.471 30.0934ZM220.779 35.9561C220.853 36.028 220.953 36.0684 221.058 36.0684C221.162 36.0684 221.262 36.0281 221.336 35.9564C221.41 35.8848 221.452 35.7875 221.452 35.686V30.5238V30.3071L221.057 30.5238L220.774 29.9682L220.663 30.3071V35.6851C220.663 35.7868 220.705 35.8843 220.779 35.9561ZM231.375 30.2057C231.27 30.2057 231.17 30.1653 231.096 30.0934C231.022 30.0216 230.98 29.9241 230.98 29.8224V24.4444L231.091 24.1055L231.374 24.6611L231.769 24.4444V24.6611V29.8233C231.769 29.9248 231.727 30.0221 231.653 30.0938C231.579 30.1655 231.479 30.2057 231.375 30.2057ZM228.408 31.6484C228.334 31.6484 228.262 31.6281 228.199 31.5899L224.363 29.2566V28.352L228.619 30.9402C228.692 30.9844 228.748 31.0504 228.778 31.1281C228.809 31.2058 228.813 31.2911 228.789 31.3711C228.765 31.4511 228.715 31.5214 228.647 31.5714C228.578 31.6214 228.495 31.6484 228.409 31.6484H228.408ZM218.091 37.8266C218.154 37.8648 218.226 37.8851 218.3 37.8851H218.301C218.387 37.8852 218.47 37.8582 218.539 37.8082C218.607 37.7582 218.657 37.6878 218.681 37.6079C218.705 37.5279 218.701 37.4426 218.67 37.3648C218.64 37.2871 218.584 37.2212 218.511 37.177L214.255 34.5888V35.4934L218.091 37.8266ZM218.134 25.978C218.06 25.978 217.988 25.9578 217.925 25.9196L214.089 23.5863V22.6817L218.345 25.2699C218.418 25.3141 218.473 25.38 218.504 25.4578C218.535 25.5355 218.538 25.6208 218.515 25.7008C218.491 25.7808 218.441 25.8511 218.373 25.9011C218.304 25.9511 218.221 25.9781 218.135 25.978H218.134ZM229.259 22.1737C229.303 22.147 229.352 22.1289 229.403 22.1206C229.454 22.1122 229.507 22.1138 229.557 22.125C229.608 22.1363 229.655 22.1572 229.698 22.1864C229.74 22.2156 229.776 22.2526 229.803 22.2952C229.831 22.3379 229.849 22.3854 229.858 22.4351C229.867 22.4847 229.865 22.5355 229.853 22.5846C229.842 22.6336 229.82 22.68 229.79 22.721C229.76 22.762 229.722 22.7968 229.678 22.8235L225.027 25.5298L224.347 25.9436V25.5739H223.893V25.3151L229.259 22.1737ZM229.403 32.4388C229.352 32.4471 229.303 32.4652 229.259 32.4919L223.893 35.6333V35.8921H224.347V36.2618L229.678 33.1417C229.722 33.115 229.76 33.0802 229.79 33.0392C229.82 32.9982 229.842 32.9518 229.853 32.9028C229.865 32.8537 229.867 32.8029 229.858 32.7533C229.849 32.7036 229.831 32.6561 229.803 32.6134C229.776 32.5708 229.74 32.5338 229.698 32.5046C229.655 32.4754 229.608 32.4545 229.557 32.4432C229.507 32.4319 229.454 32.4304 229.403 32.4388ZM217.823 28.5114C217.867 28.4847 217.916 28.4666 217.967 28.4583C218.018 28.4499 218.07 28.4514 218.121 28.4627C218.171 28.474 218.219 28.4949 218.261 28.5241C218.303 28.5533 218.339 28.5903 218.367 28.6329C218.394 28.6756 218.413 28.7231 218.421 28.7728C218.43 28.8224 218.428 28.8732 218.417 28.9223C218.405 28.9713 218.384 29.0177 218.353 29.0587C218.323 29.0997 218.285 29.1345 218.241 29.1612L214.724 31.3005L214.044 31.7143V31.3446H213.59V31.0859L217.823 28.5114Z" fill="#2B63F1"/>
<path fill-rule="evenodd" clip-rule="evenodd" d="M221.063 23.7422L217.766 25.5768L221.063 27.3253L224.361 25.5768L221.063 23.7422ZM217.766 28.7802L221.063 30.5288V27.3254L217.766 25.5769V28.7802Z" fill="#B0C7FF"/>
<path fill-rule="evenodd" clip-rule="evenodd" d="M221.063 23.7422L217.766 25.5768L221.063 27.3253L224.361 25.5768L221.063 23.7422ZM217.766 28.7802L221.063 30.5288V27.3254L217.766 25.5769V28.7802Z" fill="url(#paint0_linear_11831_43476)"/>
<path fill-rule="evenodd" clip-rule="evenodd" d="M210.753 17.875L207.455 19.7096L210.753 21.4582L214.05 19.7096L210.753 17.875ZM207.455 22.913L210.753 24.6616V21.4582L207.455 19.7097V22.913Z" fill="#B0C7FF"/>
<path fill-rule="evenodd" clip-rule="evenodd" d="M210.753 17.875L207.455 19.7096L210.753 21.4582L214.05 19.7096L210.753 17.875ZM207.455 22.913L210.753 24.6616V21.4582L207.455 19.7097V22.913Z" fill="url(#paint1_linear_11831_43476)"/>
<path fill-rule="evenodd" clip-rule="evenodd" d="M210.753 29.5L207.455 31.3346L210.753 33.0832L214.05 31.3346L210.753 29.5ZM207.455 34.538L210.753 36.2866V33.0832L207.455 31.3347V34.538Z" fill="#B0C7FF"/>
<path fill-rule="evenodd" clip-rule="evenodd" d="M210.753 29.5L207.455 31.3346L210.753 33.0832L214.05 31.3346L210.753 29.5ZM207.455 34.538L210.753 36.2866V33.0832L207.455 31.3347V34.538Z" fill="url(#paint2_linear_11831_43476)"/>
<path fill-rule="evenodd" clip-rule="evenodd" d="M231.375 17.875L228.077 19.7096L231.375 21.4582L234.672 19.7096L231.375 17.875ZM228.077 22.913L231.375 24.6616V21.4582L228.077 19.7097V22.913Z" fill="#B0C7FF"/>
<path fill-rule="evenodd" clip-rule="evenodd" d="M231.375 17.875L228.077 19.7096L231.375 21.4582L234.672 19.7096L231.375 17.875ZM228.077 22.913L231.375 24.6616V21.4582L228.077 19.7097V22.913Z" fill="url(#paint3_linear_11831_43476)"/>
<path fill-rule="evenodd" clip-rule="evenodd" d="M231.375 29.5L228.077 31.3346L231.375 33.0832L234.672 31.3346L231.375 29.5ZM228.077 34.538L231.375 36.2866V33.0832L228.077 31.3347V34.538Z" fill="#B0C7FF"/>
<path fill-rule="evenodd" clip-rule="evenodd" d="M231.375 29.5L228.077 31.3346L231.375 33.0832L234.672 31.3346L231.375 29.5ZM228.077 34.538L231.375 36.2866V33.0832L228.077 31.3347V34.538Z" fill="url(#paint4_linear_11831_43476)"/>
<path fill-rule="evenodd" clip-rule="evenodd" d="M221.063 13.6094L217.766 15.444L221.063 17.1927L224.361 15.444L221.063 13.6094ZM217.766 18.6474L221.063 20.3962V17.1928L217.766 15.4441V18.6474Z" fill="#B0C7FF"/>
<path fill-rule="evenodd" clip-rule="evenodd" d="M221.063 13.6094L217.766 15.444L221.063 17.1927L224.361 15.444L221.063 13.6094ZM217.766 18.6474L221.063 20.3962V17.1928L217.766 15.4441V18.6474Z" fill="url(#paint5_linear_11831_43476)"/>
<path fill-rule="evenodd" clip-rule="evenodd" d="M221.063 34.0391L217.766 35.8737L221.063 37.6224L224.361 35.8737L221.063 34.0391ZM217.766 39.0771L221.063 40.8259V37.6225L217.766 35.8737V39.0771Z" fill="#B0C7FF"/>
<path fill-rule="evenodd" clip-rule="evenodd" d="M221.063 34.0391L217.766 35.8737L221.063 37.6224L224.361 35.8737L221.063 34.0391ZM217.766 39.0771L221.063 40.8259V37.6225L217.766 35.8737V39.0771Z" fill="url(#paint6_linear_11831_43476)"/>
<path d="M3.85209 13.726L27.2162 0.236667L50.5803 13.726V40.7045L27.2162 54.1938L3.85209 40.7045L3.85209 13.726Z" fill="#2B63F1" fill-opacity="0.07" stroke="#2B63F1" stroke-width="0.409919"/>
<path d="M14.6436 33.6177C14.6436 33.1422 14.8438 32.6887 15.1952 32.3684L19.965 28.0198C20.4141 27.6104 21.0483 27.4735 21.6263 27.6612L22.2831 27.8745C22.9057 28.0768 23.589 27.9014 24.0373 27.4244L26.3021 25.0146C26.8708 24.4095 27.7947 24.307 28.4822 24.7727L31.4587 26.7888C32.2571 27.3296 33.3454 27.0942 33.8488 26.2717L39.1513 17.6094C39.3741 17.2455 39.9345 17.4034 39.9345 17.8301V35.2806C39.9345 36.2143 39.1776 36.9712 38.2438 36.9712H16.3342C15.4005 36.9712 14.6436 36.2143 14.6436 35.2806V33.6177Z" fill="#83ADFF" fill-opacity="0.71"/>
<path d="M14.6436 33.6177C14.6436 33.1422 14.8438 32.6887 15.1952 32.3684L19.965 28.0198C20.4141 27.6104 21.0483 27.4735 21.6263 27.6612L22.2831 27.8745C22.9057 28.0768 23.589 27.9014 24.0373 27.4244L26.3021 25.0146C26.8708 24.4095 27.7947 24.307 28.4822 24.7727L31.4587 26.7888C32.2571 27.3296 33.3454 27.0942 33.8488 26.2717L39.1513 17.6094C39.3741 17.2455 39.9345 17.4034 39.9345 17.8301V35.2806C39.9345 36.2143 39.1776 36.9712 38.2438 36.9712H16.3342C15.4005 36.9712 14.6436 36.2143 14.6436 35.2806V33.6177Z" fill="#2B63F1"/>
<path d="M14.6436 34.6768C14.6436 34.0088 15.0368 33.4035 15.6471 33.132L19.0414 31.6223C19.4792 31.4276 19.9791 31.4278 20.4168 31.6228L22.6322 32.6103C23.3476 32.9291 24.1885 32.7148 24.664 32.0923L30.2043 24.8396C30.8374 24.0108 32.0625 23.9473 32.7779 24.7061L34.3182 26.34C35.075 27.1427 36.3854 27.0173 36.9762 26.0855L39.1549 22.6495C39.3815 22.2921 39.9345 22.4526 39.9345 22.8758V35.2808C39.9345 36.2146 39.1776 36.9715 38.2438 36.9715H16.3342C15.4005 36.9715 14.6436 36.2146 14.6436 35.2808V34.6768Z" fill="#5A31FF" fill-opacity="0.36"/>
<path d="M14.6436 34.6768C14.6436 34.0088 15.0368 33.4035 15.6471 33.132L19.0414 31.6223C19.4792 31.4276 19.9791 31.4278 20.4168 31.6228L22.6322 32.6103C23.3476 32.9291 24.1885 32.7148 24.664 32.0923L30.2043 24.8396C30.8374 24.0108 32.0625 23.9473 32.7779 24.7061L34.3182 26.34C35.075 27.1427 36.3854 27.0173 36.9762 26.0855L39.1549 22.6495C39.3815 22.2921 39.9345 22.4526 39.9345 22.8758V35.2808C39.9345 36.2146 39.1776 36.9715 38.2438 36.9715H16.3342C15.4005 36.9715 14.6436 36.2146 14.6436 35.2808V34.6768Z" fill="#63E163"/>
<path d="M13.6002 16.4121L13.6002 34.6996C13.6002 36.5784 15.1233 38.1015 17.0021 38.1015L40.8154 38.1015" stroke="#2B63F1" stroke-opacity="0.4"/>
<line x1="73.7594" y1="82.2406" x2="38.7594" y2="47.2406" stroke="#B0C7FF" stroke-width="0.680381"/>
<path d="M121.844 71.1681C123.005 70.8917 124.442 70.8917 125.604 71.1681L189.773 86.4347C190.354 86.5728 190.809 86.7665 191.113 86.9836C191.421 87.2033 191.543 87.4225 191.543 87.611V118.144C191.543 118.333 191.421 118.552 191.113 118.772C190.809 118.989 190.354 119.182 189.773 119.321L125.604 134.587C124.442 134.864 123.005 134.864 121.844 134.587L57.6742 119.321C57.0935 119.182 56.6389 118.989 56.3348 118.772C56.0269 118.552 55.9042 118.333 55.9042 118.144V87.611C55.9042 87.4225 56.0269 87.2033 56.3348 86.9836C56.6389 86.7665 57.0935 86.5728 57.6742 86.4347L121.844 71.1681Z" fill="#2B63F1" fill-opacity="0.07" stroke="#2B63F1" stroke-width="0.409919"/>
<g clip-path="url(#clip0_11831_43476)">
<path d="M95.4377 97.2263H101.867V98.7408H97.1522V101.327H101.01V102.841H97.1522V105.713H101.867V107.228H95.4377V97.2263Z" fill="#2B63F1"/>
<path d="M102.78 97.2263H104.637L107.495 105.228L110.124 97.2263H111.924L108.495 107.228H106.495L102.78 97.2263Z" fill="#2B63F1"/>
<path d="M113.273 97.2263H119.703V98.7408H114.988V101.327H118.846V102.841H114.988V105.713H119.703V107.228H113.273V97.2263Z" fill="#2B63F1"/>
<path d="M125.259 103.456H123.187V107.228H121.473V97.2263H124.916C126.25 97.2263 127.221 97.5025 127.831 98.055C128.45 98.6075 128.759 99.3695 128.759 100.341C128.759 101.008 128.607 101.584 128.302 102.07C127.997 102.546 127.531 102.903 126.902 103.142L129.045 107.228H127.102L125.259 103.456ZM123.187 98.7408V101.941H124.916C125.63 101.941 126.15 101.798 126.473 101.513C126.797 101.217 126.959 100.827 126.959 100.341C126.959 99.8458 126.797 99.4552 126.473 99.1695C126.15 98.8837 125.63 98.7408 124.916 98.7408H123.187Z" fill="#2B63F1"/>
<path d="M140.228 98.4122L137.957 107.228H136.671L133.884 97.2263H134.913L137.314 106.042L139.6 97.2263H140.886L143.315 106.056L145.601 97.2263H146.601L143.957 107.228H142.672L140.228 98.4122Z" fill="#2B63F1"/>
<path d="M149.45 107.328C148.736 107.328 148.188 107.147 147.807 106.785C147.426 106.413 147.236 105.904 147.236 105.256C147.236 104.913 147.288 104.604 147.393 104.327C147.507 104.042 147.683 103.804 147.922 103.613C148.169 103.423 148.484 103.275 148.865 103.17C149.246 103.065 149.703 103.013 150.236 103.013H151.865V102.37C151.865 101.856 151.736 101.479 151.479 101.241C151.232 100.994 150.817 100.87 150.236 100.87C149.712 100.87 149.317 100.975 149.05 101.184C148.793 101.384 148.646 101.66 148.607 102.013H147.593C147.612 101.717 147.679 101.446 147.793 101.198C147.907 100.951 148.074 100.736 148.293 100.555C148.512 100.374 148.784 100.236 149.107 100.141C149.431 100.036 149.808 99.9839 150.236 99.9839C151.084 99.9839 151.722 100.193 152.151 100.613C152.589 101.032 152.808 101.617 152.808 102.37V107.228H152.079L151.937 105.885C151.689 106.342 151.346 106.699 150.908 106.956C150.479 107.204 149.993 107.328 149.45 107.328ZM149.522 106.442C149.846 106.442 150.15 106.385 150.436 106.271C150.722 106.147 150.97 105.985 151.179 105.785C151.398 105.575 151.565 105.337 151.679 105.07C151.803 104.794 151.865 104.504 151.865 104.199V103.87H150.236C149.503 103.87 148.979 103.999 148.665 104.256C148.36 104.513 148.207 104.847 148.207 105.256C148.207 105.618 148.317 105.909 148.536 106.128C148.765 106.337 149.093 106.442 149.522 106.442Z" fill="#2B63F1"/>
<path d="M157.22 107.228C156.62 107.228 156.158 107.071 155.835 106.756C155.52 106.433 155.363 105.961 155.363 105.342V97.2263H156.306V105.228C156.306 105.99 156.649 106.371 157.335 106.371H157.792V107.228H157.22Z" fill="#2B63F1"/>
<path d="M161.499 107.228C160.899 107.228 160.437 107.071 160.113 106.756C159.799 106.433 159.641 105.961 159.641 105.342V97.2263H160.584V105.228C160.584 105.99 160.927 106.371 161.613 106.371H162.07V107.228H161.499Z" fill="#2B63F1"/>
<path d="M166.563 107.328C165.62 107.328 164.872 107.042 164.32 106.471C163.767 105.89 163.491 105.056 163.491 103.97V103.342C163.491 102.265 163.767 101.436 164.32 100.855C164.882 100.274 165.63 99.9839 166.563 99.9839C167.497 99.9839 168.24 100.274 168.792 100.855C169.354 101.436 169.635 102.265 169.635 103.342V103.927H164.463V103.97C164.463 104.799 164.653 105.418 165.034 105.828C165.415 106.237 165.925 106.442 166.563 106.442C167.154 106.442 167.601 106.318 167.906 106.071C168.221 105.823 168.449 105.513 168.592 105.142H169.564C169.487 105.447 169.373 105.732 169.221 105.999C169.068 106.266 168.868 106.499 168.621 106.699C168.373 106.89 168.078 107.042 167.735 107.156C167.392 107.271 167.001 107.328 166.563 107.328ZM166.563 100.87C165.944 100.87 165.449 101.065 165.077 101.456C164.715 101.837 164.51 102.384 164.463 103.099H168.649C168.611 102.356 168.402 101.798 168.021 101.427C167.649 101.055 167.163 100.87 166.563 100.87Z" fill="#2B63F1"/>
<path d="M170.983 100.084H172.269V98.0836H173.212V100.084H175.126V100.941H173.212V105.228C173.212 105.99 173.564 106.371 174.269 106.371H175.269V107.228H174.155C173.536 107.228 173.064 107.071 172.74 106.756C172.426 106.433 172.269 105.961 172.269 105.342V100.941H170.983V100.084Z" fill="#2B63F1"/>
<path d="M73.3457 101.59L78.5366 96.3418H86.9533V104.776L81.7838 109.949V101.59H73.3457Z" fill="#2B63F1"/>
</g>

</svg>
